%TF.GenerationSoftware,KiCad,Pcbnew,9.0.3-9.0.3-0~ubuntu22.04.1*%
%TF.CreationDate,2026-08-04T22:10:24+00:00*%
%TF.ProjectId,typoena-mainboard,7479706f-656e-4612-9d6d-61696e626f61,rev?*%
%TF.SameCoordinates,Original*%
%TF.FileFunction,Copper,L1,Top*%
%TF.FilePolarity,Positive*%
%FSLAX46Y46*%
G04 Gerber Fmt 4.6, Leading zero omitted, Abs format (unit mm)*
G04 Created by KiCad (PCBNEW 9.0.3-9.0.3-0~ubuntu22.04.1) date 2026-08-04 22:10:24*
%MOMM*%
%LPD*%
G01*
G04 APERTURE LIST*
G04 Aperture macros list*
%AMRoundRect*
0 Rectangle with rounded corners*
0 $1 Rounding radius*
0 $2 $3 $4 $5 $6 $7 $8 $9 X,Y pos of 4 corners*
0 Add a 4 corners polygon primitive as box body*
4,1,4,$2,$3,$4,$5,$6,$7,$8,$9,$2,$3,0*
0 Add four circle primitives for the rounded corners*
1,1,$1+$1,$2,$3*
1,1,$1+$1,$4,$5*
1,1,$1+$1,$6,$7*
1,1,$1+$1,$8,$9*
0 Add four rect primitives between the rounded corners*
20,1,$1+$1,$2,$3,$4,$5,0*
20,1,$1+$1,$4,$5,$6,$7,0*
20,1,$1+$1,$6,$7,$8,$9,0*
20,1,$1+$1,$8,$9,$2,$3,0*%
G04 Aperture macros list end*
%TA.AperFunction,ComponentPad*%
%ADD10R,1.700000X1.700000*%
%TD*%
%TA.AperFunction,ComponentPad*%
%ADD11C,1.700000*%
%TD*%
%TA.AperFunction,SMDPad,CuDef*%
%ADD12R,0.900000X1.700000*%
%TD*%
%TA.AperFunction,SMDPad,CuDef*%
%ADD13RoundRect,0.250000X-0.250000X-0.475000X0.250000X-0.475000X0.250000X0.475000X-0.250000X0.475000X0*%
%TD*%
%TA.AperFunction,SMDPad,CuDef*%
%ADD14RoundRect,0.150000X-0.587500X-0.150000X0.587500X-0.150000X0.587500X0.150000X-0.587500X0.150000X0*%
%TD*%
%TA.AperFunction,SMDPad,CuDef*%
%ADD15RoundRect,0.250000X-0.262500X-0.450000X0.262500X-0.450000X0.262500X0.450000X-0.262500X0.450000X0*%
%TD*%
%TA.AperFunction,SMDPad,CuDef*%
%ADD16RoundRect,0.225000X-0.225000X-0.375000X0.225000X-0.375000X0.225000X0.375000X-0.225000X0.375000X0*%
%TD*%
%TA.AperFunction,SMDPad,CuDef*%
%ADD17R,1.500000X0.900000*%
%TD*%
%TA.AperFunction,SMDPad,CuDef*%
%ADD18R,0.900000X1.500000*%
%TD*%
%TA.AperFunction,HeatsinkPad*%
%ADD19C,0.600000*%
%TD*%
%TA.AperFunction,HeatsinkPad*%
%ADD20R,3.900000X3.900000*%
%TD*%
%TA.AperFunction,SMDPad,CuDef*%
%ADD21RoundRect,0.250000X-1.000000X-0.650000X1.000000X-0.650000X1.000000X0.650000X-1.000000X0.650000X0*%
%TD*%
%TA.AperFunction,SMDPad,CuDef*%
%ADD22RoundRect,0.375000X-0.625000X-0.375000X0.625000X-0.375000X0.625000X0.375000X-0.625000X0.375000X0*%
%TD*%
%TA.AperFunction,SMDPad,CuDef*%
%ADD23RoundRect,0.500000X-0.500000X-1.400000X0.500000X-1.400000X0.500000X1.400000X-0.500000X1.400000X0*%
%TD*%
%TA.AperFunction,ViaPad*%
%ADD24C,0.600000*%
%TD*%
%TA.AperFunction,Conductor*%
%ADD25C,0.200000*%
%TD*%
G04 APERTURE END LIST*
D10*
%TO.P,J1,1*%
%TO.N,+3V3*%
X103000000Y-79000000D03*
D11*
%TO.P,J1,2*%
%TO.N,GND*%
X103000000Y-81540000D03*
%TO.P,J1,3*%
%TO.N,EPD_MOSI*%
X103000000Y-84080000D03*
%TO.P,J1,4*%
%TO.N,EPD_SCK*%
X103000000Y-86620000D03*
%TO.P,J1,5*%
%TO.N,EPD_CS*%
X103000000Y-89160000D03*
%TO.P,J1,6*%
%TO.N,EPD_DC*%
X103000000Y-91700000D03*
%TO.P,J1,7*%
%TO.N,EPD_RST*%
X103000000Y-94240000D03*
%TO.P,J1,8*%
%TO.N,EPD_BUSY*%
X103000000Y-96780000D03*
%TD*%
D12*
%TO.P,SW1,1*%
%TO.N,EN*%
X103300000Y-102000000D03*
%TO.P,SW1,2*%
%TO.N,GND*%
X106700000Y-102000000D03*
%TD*%
D13*
%TO.P,C1,1*%
%TO.N,+3V3*%
X132050000Y-81000000D03*
%TO.P,C1,2*%
%TO.N,GND*%
X133950000Y-81000000D03*
%TD*%
D12*
%TO.P,SW2,1*%
%TO.N,IO0*%
X103300000Y-108000000D03*
%TO.P,SW2,2*%
%TO.N,GND*%
X106700000Y-108000000D03*
%TD*%
D14*
%TO.P,Q2,1*%
%TO.N,LATCH_GATE*%
X132062500Y-85050000D03*
%TO.P,Q2,2*%
%TO.N,VLOAD*%
X132062500Y-86950000D03*
%TO.P,Q2,3*%
%TO.N,VSW*%
X133937500Y-86000000D03*
%TD*%
D13*
%TO.P,C3,1*%
%TO.N,EN*%
X117050000Y-86000000D03*
%TO.P,C3,2*%
%TO.N,GND*%
X118950000Y-86000000D03*
%TD*%
D15*
%TO.P,R6,1*%
%TO.N,BTN*%
X140087500Y-91000000D03*
%TO.P,R6,2*%
%TO.N,PWR_SENSE*%
X141912500Y-91000000D03*
%TD*%
%TO.P,R7,1*%
%TO.N,VBAT*%
X117087500Y-96000000D03*
%TO.P,R7,2*%
%TO.N,VBAT_SENSE*%
X118912500Y-96000000D03*
%TD*%
D10*
%TO.P,J3,1*%
%TO.N,VSW*%
X130000000Y-102000000D03*
D11*
%TO.P,J3,2*%
%TO.N,GND*%
X132540000Y-102000000D03*
%TD*%
D15*
%TO.P,R5,1*%
%TO.N,PWR_HOLD*%
X135087500Y-91000000D03*
%TO.P,R5,2*%
%TO.N,GND*%
X136912500Y-91000000D03*
%TD*%
D14*
%TO.P,Q1,1*%
%TO.N,VMAINS*%
X127062500Y-85050000D03*
%TO.P,Q1,2*%
%TO.N,VLOAD*%
X127062500Y-86950000D03*
%TO.P,Q1,3*%
%TO.N,VBAT*%
X128937500Y-86000000D03*
%TD*%
D15*
%TO.P,R1,1*%
%TO.N,+3V3*%
X112087500Y-86000000D03*
%TO.P,R1,2*%
%TO.N,EN*%
X113912500Y-86000000D03*
%TD*%
D13*
%TO.P,C4,1*%
%TO.N,V5*%
X112050000Y-81000000D03*
%TO.P,C4,2*%
%TO.N,GND*%
X113950000Y-81000000D03*
%TD*%
D16*
%TO.P,D1,1*%
%TO.N,BTN*%
X111350000Y-91000000D03*
%TO.P,D1,2*%
%TO.N,LATCH_GATE*%
X114650000Y-91000000D03*
%TD*%
D17*
%TO.P,U1,1*%
%TO.N,GND*%
X116250000Y-58240000D03*
%TO.P,U1,2*%
%TO.N,+3V3*%
X116250000Y-59510000D03*
%TO.P,U1,3*%
%TO.N,EN*%
X116250000Y-60780000D03*
%TO.P,U1,4*%
%TO.N,EPD_BUSY*%
X116250000Y-62050000D03*
%TO.P,U1,5*%
%TO.N,EPD_RST*%
X116250000Y-63320000D03*
%TO.P,U1,6*%
%TO.N,EPD_DC*%
X116250000Y-64590000D03*
%TO.P,U1,7*%
%TO.N,EPD_CS*%
X116250000Y-65860000D03*
%TO.P,U1,8*%
%TO.N,SD_MOSI*%
X116250000Y-67130000D03*
%TO.P,U1,9*%
%TO.N,N/C*%
X116250000Y-68400000D03*
%TO.P,U1,10*%
X116250000Y-69670000D03*
%TO.P,U1,11*%
X116250000Y-70940000D03*
%TO.P,U1,12*%
X116250000Y-72210000D03*
%TO.P,U1,13*%
%TO.N,USB_DM*%
X116250000Y-73480000D03*
%TO.P,U1,14*%
%TO.N,USB_DP*%
X116250000Y-74750000D03*
D18*
%TO.P,U1,15*%
%TO.N,N/C*%
X118015000Y-76000000D03*
%TO.P,U1,16*%
X119285000Y-76000000D03*
%TO.P,U1,17*%
X120555000Y-76000000D03*
%TO.P,U1,18*%
%TO.N,SD_CS*%
X121825000Y-76000000D03*
%TO.P,U1,19*%
%TO.N,EPD_MOSI*%
X123095000Y-76000000D03*
%TO.P,U1,20*%
%TO.N,EPD_SCK*%
X124365000Y-76000000D03*
%TO.P,U1,21*%
%TO.N,SD_MISO*%
X125635000Y-76000000D03*
%TO.P,U1,22*%
%TO.N,SD_SCK*%
X126905000Y-76000000D03*
%TO.P,U1,23*%
%TO.N,CHRG*%
X128175000Y-76000000D03*
%TO.P,U1,24*%
%TO.N,N/C*%
X129445000Y-76000000D03*
%TO.P,U1,25*%
X130715000Y-76000000D03*
%TO.P,U1,26*%
X131985000Y-76000000D03*
D17*
%TO.P,U1,27*%
%TO.N,IO0*%
X133750000Y-74750000D03*
%TO.P,U1,28*%
%TO.N,N/C*%
X133750000Y-73480000D03*
%TO.P,U1,29*%
X133750000Y-72210000D03*
%TO.P,U1,30*%
X133750000Y-70940000D03*
%TO.P,U1,31*%
X133750000Y-69670000D03*
%TO.P,U1,32*%
X133750000Y-68400000D03*
%TO.P,U1,33*%
%TO.N,PWR_HOLD*%
X133750000Y-67130000D03*
%TO.P,U1,34*%
%TO.N,PWR_SENSE*%
X133750000Y-65860000D03*
%TO.P,U1,35*%
%TO.N,N/C*%
X133750000Y-64590000D03*
%TO.P,U1,36*%
%TO.N,UART_RX*%
X133750000Y-63320000D03*
%TO.P,U1,37*%
%TO.N,UART_TX*%
X133750000Y-62050000D03*
%TO.P,U1,38*%
%TO.N,N/C*%
X133750000Y-60780000D03*
%TO.P,U1,39*%
%TO.N,VBAT_SENSE*%
X133750000Y-59510000D03*
%TO.P,U1,40*%
%TO.N,GND*%
X133750000Y-58240000D03*
D19*
%TO.P,U1,41*%
X122100000Y-65260000D03*
X122100000Y-66660000D03*
X122800000Y-64560000D03*
X122800000Y-65960000D03*
X122800000Y-67360000D03*
X123500000Y-65260000D03*
D20*
X123500000Y-65960000D03*
D19*
X123500000Y-66660000D03*
X124200000Y-64560000D03*
X124200000Y-65960000D03*
X124200000Y-67360000D03*
X124900000Y-65260000D03*
X124900000Y-66660000D03*
%TD*%
D21*
%TO.P,D2,1*%
%TO.N,VLOAD*%
X117000000Y-91000000D03*
%TO.P,D2,2*%
%TO.N,VMAINS*%
X121000000Y-91000000D03*
%TD*%
D10*
%TO.P,J4,1*%
%TO.N,V5*%
X137000000Y-102000000D03*
D11*
%TO.P,J4,2*%
%TO.N,GND*%
X139540000Y-102000000D03*
%TD*%
D13*
%TO.P,C7,1*%
%TO.N,VBAT_SENSE*%
X127050000Y-96000000D03*
%TO.P,C7,2*%
%TO.N,GND*%
X128950000Y-96000000D03*
%TD*%
%TO.P,C5,1*%
%TO.N,+3V3*%
X126050000Y-81000000D03*
%TO.P,C5,2*%
%TO.N,GND*%
X127950000Y-81000000D03*
%TD*%
D14*
%TO.P,Q3,1*%
%TO.N,PWR_HOLD*%
X137062500Y-85050000D03*
%TO.P,Q3,2*%
%TO.N,GND*%
X137062500Y-86950000D03*
%TO.P,Q3,3*%
%TO.N,LATCH_GATE*%
X138937500Y-86000000D03*
%TD*%
D15*
%TO.P,R2,1*%
%TO.N,+3V3*%
X122087500Y-86000000D03*
%TO.P,R2,2*%
%TO.N,IO0*%
X123912500Y-86000000D03*
%TD*%
D13*
%TO.P,C2,1*%
%TO.N,+3V3*%
X137050000Y-81000000D03*
%TO.P,C2,2*%
%TO.N,GND*%
X138950000Y-81000000D03*
%TD*%
D15*
%TO.P,R4,1*%
%TO.N,LATCH_GATE*%
X130087500Y-91000000D03*
%TO.P,R4,2*%
%TO.N,VLOAD*%
X131912500Y-91000000D03*
%TD*%
D10*
%TO.P,J5,1*%
%TO.N,BTN*%
X130000000Y-108000000D03*
D11*
%TO.P,J5,2*%
%TO.N,GND*%
X132540000Y-108000000D03*
%TD*%
D15*
%TO.P,R8,1*%
%TO.N,VBAT_SENSE*%
X122087500Y-96000000D03*
%TO.P,R8,2*%
%TO.N,GND*%
X123912500Y-96000000D03*
%TD*%
D10*
%TO.P,J2,1*%
%TO.N,+3V3*%
X112000000Y-102000000D03*
D11*
%TO.P,J2,2*%
%TO.N,GND*%
X114540000Y-102000000D03*
%TO.P,J2,3*%
%TO.N,UART_TX*%
X117080000Y-102000000D03*
%TO.P,J2,4*%
%TO.N,UART_RX*%
X119620000Y-102000000D03*
%TO.P,J2,5*%
%TO.N,EN*%
X122160000Y-102000000D03*
%TO.P,J2,6*%
%TO.N,IO0*%
X124700000Y-102000000D03*
%TD*%
D15*
%TO.P,R3,1*%
%TO.N,VMAINS*%
X125087500Y-91000000D03*
%TO.P,R3,2*%
%TO.N,GND*%
X126912500Y-91000000D03*
%TD*%
D13*
%TO.P,C6,1*%
%TO.N,LATCH_GATE*%
X112050000Y-96000000D03*
%TO.P,C6,2*%
%TO.N,GND*%
X113950000Y-96000000D03*
%TD*%
D22*
%TO.P,U2,1*%
%TO.N,GND*%
X116850000Y-78700000D03*
%TO.P,U2,2*%
%TO.N,+3V3*%
X116850000Y-81000000D03*
D23*
X123150000Y-81000000D03*
D22*
%TO.P,U2,3*%
%TO.N,V5*%
X116850000Y-83300000D03*
%TD*%
D10*
%TO.P,J6,1*%
%TO.N,VBAT*%
X147000000Y-79000000D03*
D11*
%TO.P,J6,2*%
%TO.N,VMAINS*%
X147000000Y-81540000D03*
%TO.P,J6,3*%
%TO.N,GND*%
X147000000Y-84080000D03*
%TO.P,J6,4*%
%TO.N,V5*%
X147000000Y-86620000D03*
%TO.P,J6,5*%
%TO.N,USB_DP*%
X147000000Y-89160000D03*
%TO.P,J6,6*%
%TO.N,USB_DM*%
X147000000Y-91700000D03*
%TO.P,J6,7*%
%TO.N,GND*%
X147000000Y-94240000D03*
%TO.P,J6,8*%
%TO.N,+3V3*%
X147000000Y-96780000D03*
%TO.P,J6,9*%
%TO.N,SD_SCK*%
X147000000Y-99320000D03*
%TO.P,J6,10*%
%TO.N,SD_MOSI*%
X147000000Y-101860000D03*
%TO.P,J6,11*%
%TO.N,SD_MISO*%
X147000000Y-104400000D03*
%TO.P,J6,12*%
%TO.N,SD_CS*%
X147000000Y-106940000D03*
%TO.P,J6,13*%
%TO.N,CHRG*%
X147000000Y-109480000D03*
%TO.P,J6,14*%
%TO.N,GND*%
X147000000Y-112020000D03*
%TD*%
D24*
%TO.N,VMAINS*%
X127062500Y-84226600D03*
X130057300Y-84936900D03*
%TO.N,UART_RX*%
X131351200Y-74365200D03*
%TO.N,EN*%
X114310700Y-83762500D03*
X119003900Y-74723200D03*
X120077400Y-88686000D03*
%TO.N,+3V3*%
X130450100Y-79972300D03*
X136800900Y-78417900D03*
X117505000Y-60160200D03*
%TO.N,EPD_SCK*%
X124365000Y-77299500D03*
%TO.N,VBAT*%
X129291100Y-84020000D03*
%TO.N,SD_MOSI*%
X118160200Y-67983200D03*
%TO.N,SD_SCK*%
X143432500Y-88201000D03*
X127849200Y-78753500D03*
%TO.N,BTN*%
X111350000Y-92536100D03*
X140087500Y-96760800D03*
%TO.N,SD_CS*%
X121565100Y-84577600D03*
X141000000Y-89452300D03*
%TO.N,USB_DP*%
X115198300Y-75712000D03*
%TO.N,CHRG*%
X128771400Y-77831300D03*
X138000000Y-78342900D03*
%TO.N,IO0*%
X123344800Y-87253800D03*
%TO.N,USB_DM*%
X117514800Y-73480000D03*
%TO.N,GND*%
X137450000Y-111450000D03*
X143450000Y-63450000D03*
X125450000Y-93450000D03*
X113450000Y-99450000D03*
X101450000Y-117450000D03*
X107450000Y-87450000D03*
X119450000Y-111450000D03*
X113450000Y-93450000D03*
X101450000Y-105450000D03*
X113450000Y-105450000D03*
X125450000Y-111450000D03*
X113950000Y-78449000D03*
X143450000Y-117450000D03*
X137450000Y-63450000D03*
X131450000Y-117450000D03*
X143450000Y-75450000D03*
X137450000Y-69450000D03*
X101450000Y-63450000D03*
X143450000Y-69450000D03*
X107450000Y-81450000D03*
X107450000Y-99450000D03*
X137450000Y-75450000D03*
X107450000Y-105450000D03*
X143450000Y-111450000D03*
X125450000Y-63450000D03*
X137450000Y-105450000D03*
X113450000Y-111450000D03*
X137450000Y-117450000D03*
X131450000Y-111450000D03*
X101450000Y-99450000D03*
X131450000Y-93450000D03*
X125450000Y-117450000D03*
X107450000Y-111450000D03*
X107450000Y-75450000D03*
X113450000Y-75450000D03*
X101450000Y-111450000D03*
X113450000Y-69450000D03*
X107450000Y-117450000D03*
X113450000Y-117450000D03*
X119450000Y-117450000D03*
X143450000Y-105450000D03*
X125450000Y-105450000D03*
X107450000Y-63450000D03*
X143450000Y-81450000D03*
X107450000Y-93450000D03*
X125450000Y-99450000D03*
X125450000Y-69450000D03*
X101450000Y-69450000D03*
%TO.N,SD_MISO*%
X128380900Y-79368700D03*
X142730100Y-87498700D03*
%TO.N,V5*%
X121438500Y-89179900D03*
%TO.N,VBAT_SENSE*%
X129055100Y-74498700D03*
X116445000Y-97662600D03*
%TO.N,EPD_MOSI*%
X123095000Y-77263900D03*
%TO.N,UART_TX*%
X130142300Y-74722500D03*
%TD*%
D25*
%TO.N,VMAINS*%
X126828800Y-89020100D02*
X125087500Y-90761400D01*
X126950000Y-85050000D02*
X127062500Y-85050000D01*
X125087500Y-90761400D02*
X125087500Y-91000000D01*
X127317300Y-89020100D02*
X126828800Y-89020100D01*
X130057300Y-84936900D02*
X130057300Y-86280100D01*
X130057300Y-86280100D02*
X127317300Y-89020100D01*
X127062500Y-85050000D02*
X127062500Y-84226600D01*
X121000000Y-91000000D02*
X126950000Y-85050000D01*
%TO.N,VSW*%
X133937500Y-86000000D02*
X133535800Y-86401700D01*
X133535800Y-86401700D02*
X133535800Y-97312500D01*
X133535800Y-97312500D02*
X130000000Y-100848300D01*
X130000000Y-102000000D02*
X130000000Y-100848300D01*
%TO.N,UART_RX*%
X132698300Y-63320000D02*
X131351200Y-64667100D01*
X133750000Y-63320000D02*
X132698300Y-63320000D01*
X131351200Y-64667100D02*
X131351200Y-74365200D01*
%TO.N,VLOAD*%
X131912500Y-87100000D02*
X132062500Y-86950000D01*
X123801500Y-90093800D02*
X126945300Y-86950000D01*
X122207000Y-92260700D02*
X123801500Y-90666200D01*
X131912500Y-91000000D02*
X131912500Y-87100000D01*
X117000000Y-91000000D02*
X118260700Y-92260700D01*
X118260700Y-92260700D02*
X122207000Y-92260700D01*
X128319200Y-84089900D02*
X128990800Y-83418300D01*
X126945300Y-86950000D02*
X127062500Y-86950000D01*
X128990800Y-83418300D02*
X129549500Y-83418300D01*
X130784600Y-84653400D02*
X130784600Y-85672100D01*
X129549500Y-83418300D02*
X130784600Y-84653400D01*
X127062500Y-86487500D02*
X128319200Y-85230800D01*
X130784600Y-85672100D02*
X132062500Y-86950000D01*
X123801500Y-90666200D02*
X123801500Y-90093800D01*
X127062500Y-86950000D02*
X127062500Y-86487500D01*
X128319200Y-85230800D02*
X128319200Y-84089900D01*
%TO.N,EN*%
X114310700Y-86000000D02*
X117050000Y-86000000D01*
X114958900Y-109201100D02*
X122160000Y-102000000D01*
X104051700Y-102000000D02*
X104051700Y-107081700D01*
X117301700Y-60780000D02*
X119003900Y-62482200D01*
X113912500Y-86000000D02*
X114310700Y-86000000D01*
X104051700Y-107081700D02*
X106171100Y-109201100D01*
X114310700Y-86000000D02*
X114310700Y-83762500D01*
X103300000Y-102000000D02*
X104051700Y-102000000D01*
X117391400Y-86000000D02*
X117050000Y-86000000D01*
X119003900Y-62482200D02*
X119003900Y-74723200D01*
X120077400Y-88686000D02*
X117391400Y-86000000D01*
X116250000Y-60780000D02*
X117301700Y-60780000D01*
X106171100Y-109201100D02*
X114958900Y-109201100D01*
%TO.N,+3V3*%
X119558700Y-83471200D02*
X119558700Y-82402800D01*
X123150000Y-81000000D02*
X126050000Y-81000000D01*
X137050000Y-81000000D02*
X137050000Y-81284000D01*
X118155900Y-81000000D02*
X118155900Y-78028900D01*
X122166800Y-81983200D02*
X123150000Y-81000000D01*
X119558700Y-82402800D02*
X118155900Y-81000000D01*
X127077700Y-79972300D02*
X130450100Y-79972300D01*
X118155900Y-78028900D02*
X117773400Y-77646400D01*
X103000000Y-79000000D02*
X104151700Y-79000000D01*
X118155900Y-81000000D02*
X116850000Y-81000000D01*
X142258800Y-86176300D02*
X144102300Y-88019800D01*
X112000000Y-102000000D02*
X112000000Y-100848300D01*
X111503100Y-86584400D02*
X110584400Y-86584400D01*
X117301700Y-59510000D02*
X117505000Y-59713300D01*
X141942300Y-86176300D02*
X142258800Y-86176300D01*
X130450100Y-79972300D02*
X131022300Y-79972300D01*
X113876400Y-77646400D02*
X111242700Y-80280100D01*
X104151700Y-79000000D02*
X104151700Y-80151700D01*
X110584400Y-99432700D02*
X112000000Y-100848300D01*
X111242700Y-80280100D02*
X111242700Y-85155200D01*
X111242700Y-85155200D02*
X112087500Y-86000000D01*
X144102300Y-93882300D02*
X147000000Y-96780000D01*
X122087500Y-86000000D02*
X122166800Y-85920700D01*
X126050000Y-81000000D02*
X127077700Y-79972300D01*
X104151700Y-80151700D02*
X110584400Y-86584400D01*
X117505000Y-59713300D02*
X117505000Y-60160200D01*
X110584400Y-86584400D02*
X110584400Y-99432700D01*
X112087500Y-86000000D02*
X111503100Y-86584400D01*
X136800900Y-80750900D02*
X136800900Y-78417900D01*
X116250000Y-59510000D02*
X117301700Y-59510000D01*
X122087500Y-86000000D02*
X119558700Y-83471200D01*
X131022300Y-79972300D02*
X132050000Y-81000000D01*
X122166800Y-85920700D02*
X122166800Y-81983200D01*
X117773400Y-77646400D02*
X113876400Y-77646400D01*
X144102300Y-88019800D02*
X144102300Y-93882300D01*
X137050000Y-81284000D02*
X141942300Y-86176300D01*
X137050000Y-81000000D02*
X136800900Y-80750900D01*
%TO.N,EPD_DC*%
X101432400Y-90132400D02*
X101432400Y-77854800D01*
X103000000Y-91700000D02*
X101432400Y-90132400D01*
X116250000Y-64590000D02*
X115198300Y-64590000D01*
X101432400Y-77854800D02*
X114697200Y-64590000D01*
X114697200Y-64590000D02*
X115198300Y-64590000D01*
%TO.N,PWR_HOLD*%
X135087500Y-86883000D02*
X135087500Y-91000000D01*
X133750000Y-67130000D02*
X134801700Y-67130000D01*
X134801700Y-67130000D02*
X135573300Y-67901600D01*
X135573300Y-67901600D02*
X135573300Y-83560800D01*
X135573300Y-83560800D02*
X137062500Y-85050000D01*
X136920500Y-85050000D02*
X135087500Y-86883000D01*
X137062500Y-85050000D02*
X136920500Y-85050000D01*
%TO.N,EPD_SCK*%
X124365000Y-77299500D02*
X124365000Y-76000000D01*
%TO.N,VBAT*%
X128937500Y-86000000D02*
X128937500Y-86452200D01*
X126771300Y-88618400D02*
X125929000Y-88618400D01*
X124203200Y-90344200D02*
X124203200Y-90843300D01*
X117087500Y-95716000D02*
X117087500Y-96000000D01*
X125929000Y-88618400D02*
X124203200Y-90344200D01*
X122084200Y-92962300D02*
X119841200Y-92962300D01*
X128937500Y-86452200D02*
X126771300Y-88618400D01*
X128937500Y-86000000D02*
X128937500Y-84373600D01*
X124203200Y-90843300D02*
X122084200Y-92962300D01*
X128937500Y-84373600D02*
X129291100Y-84020000D01*
X119841200Y-92962300D02*
X117087500Y-95716000D01*
%TO.N,EPD_CS*%
X113996400Y-65860100D02*
X115198300Y-65860100D01*
X103000000Y-89160000D02*
X101848300Y-88008300D01*
X115198300Y-65860100D02*
X115198300Y-65860000D01*
X101848300Y-88008300D02*
X101848300Y-78008200D01*
X116250000Y-65860000D02*
X115198300Y-65860000D01*
X101848300Y-78008200D02*
X113996400Y-65860100D01*
%TO.N,LATCH_GATE*%
X132835300Y-86285200D02*
X133134100Y-86584000D01*
X138937500Y-86000000D02*
X136586800Y-86000000D01*
X133134100Y-91315500D02*
X132422400Y-92027200D01*
X125902700Y-91726900D02*
X123797700Y-93831900D01*
X125902700Y-90515500D02*
X125902700Y-91726900D01*
X134507200Y-92047700D02*
X134237600Y-91778100D01*
X135021800Y-85647500D02*
X134699000Y-85324700D01*
X132835300Y-85324700D02*
X132835300Y-86285200D01*
X134237600Y-91778100D02*
X134237600Y-87077100D01*
X135962700Y-91683900D02*
X135598900Y-92047700D01*
X129056100Y-89968600D02*
X126449600Y-89968600D01*
X136586800Y-86000000D02*
X135962700Y-86624100D01*
X132337200Y-85324700D02*
X132835300Y-85324700D01*
X134237600Y-87077100D02*
X135021800Y-86292900D01*
X117614900Y-97023700D02*
X116587600Y-97023700D01*
X135962700Y-86624100D02*
X135962700Y-91683900D01*
X132062500Y-85050000D02*
X132337200Y-85324700D01*
X135598900Y-92047700D02*
X134507200Y-92047700D01*
X130087500Y-91000000D02*
X129056100Y-89968600D01*
X132422400Y-92027200D02*
X131114700Y-92027200D01*
X114650000Y-95086100D02*
X114650000Y-94931900D01*
X117937800Y-96700800D02*
X117614900Y-97023700D01*
X135021800Y-86292900D02*
X135021800Y-85647500D01*
X114650000Y-91000000D02*
X114650000Y-94931900D01*
X116587600Y-97023700D02*
X114650000Y-95086100D01*
X133134100Y-86584000D02*
X133134100Y-91315500D01*
X119572500Y-93831900D02*
X117937800Y-95466600D01*
X117937800Y-95466600D02*
X117937800Y-96700800D01*
X131114700Y-92027200D02*
X130087500Y-91000000D01*
X126449600Y-89968600D02*
X125902700Y-90515500D01*
X123797700Y-93831900D02*
X119572500Y-93831900D01*
X113118100Y-94931900D02*
X112050000Y-96000000D01*
X134699000Y-85324700D02*
X132835300Y-85324700D01*
X114650000Y-94931900D02*
X113118100Y-94931900D01*
%TO.N,SD_MOSI*%
X118160200Y-67983200D02*
X117307000Y-67130000D01*
X117307000Y-67130000D02*
X116250000Y-67130000D01*
%TO.N,EPD_RST*%
X101030700Y-92270700D02*
X103000000Y-94240000D01*
X115198300Y-63320000D02*
X101030700Y-77487600D01*
X116250000Y-63320000D02*
X115198300Y-63320000D01*
X101030700Y-77487600D02*
X101030700Y-92270700D01*
%TO.N,SD_SCK*%
X126905000Y-76000000D02*
X126905000Y-77809300D01*
X126905000Y-77809300D02*
X127849200Y-78753500D01*
X147000000Y-99320000D02*
X143432500Y-95752500D01*
X143432500Y-95752500D02*
X143432500Y-88201000D01*
%TO.N,BTN*%
X140087500Y-91000000D02*
X140087500Y-96760800D01*
X111350000Y-92536100D02*
X111350000Y-91000000D01*
%TO.N,SD_CS*%
X121825000Y-76000000D02*
X121825000Y-77051700D01*
X141000000Y-89452300D02*
X141000000Y-100940000D01*
X141000000Y-100940000D02*
X147000000Y-106940000D01*
X121565100Y-77311600D02*
X121565100Y-84577600D01*
X121825000Y-77051700D02*
X121565100Y-77311600D01*
%TO.N,USB_DP*%
X116250000Y-74750000D02*
X115198300Y-74750000D01*
X115198300Y-74750000D02*
X115198300Y-75712000D01*
%TO.N,CHRG*%
X142178100Y-85774600D02*
X138000000Y-81596500D01*
X147000000Y-109480000D02*
X148163600Y-108316400D01*
X128175000Y-77234900D02*
X128771400Y-77831300D01*
X148163600Y-96298600D02*
X147256700Y-95391700D01*
X145848300Y-94775400D02*
X145848300Y-89197800D01*
X128175000Y-76000000D02*
X128175000Y-77234900D01*
X142425100Y-85774600D02*
X142178100Y-85774600D01*
X145848300Y-89197800D02*
X142425100Y-85774600D01*
X147256700Y-95391700D02*
X146464600Y-95391700D01*
X148163600Y-108316400D02*
X148163600Y-96298600D01*
X138000000Y-81596500D02*
X138000000Y-78342900D01*
X146464600Y-95391700D02*
X145848300Y-94775400D01*
%TO.N,IO0*%
X104051700Y-108000000D02*
X105654500Y-109602800D01*
X103300000Y-108000000D02*
X104051700Y-108000000D01*
X134801700Y-81666100D02*
X134801700Y-74750000D01*
X127095900Y-82816600D02*
X133651200Y-82816600D01*
X133651200Y-82816600D02*
X134801700Y-81666100D01*
X133750000Y-74750000D02*
X134801700Y-74750000D01*
X123912500Y-86000000D02*
X127095900Y-82816600D01*
X123912500Y-86686100D02*
X123912500Y-86000000D01*
X117097200Y-109602800D02*
X124700000Y-102000000D01*
X105654500Y-109602800D02*
X117097200Y-109602800D01*
X123344800Y-87253800D02*
X123912500Y-86686100D01*
%TO.N,USB_DM*%
X117514800Y-73480000D02*
X116250000Y-73480000D01*
%TO.N,GND*%
X113950000Y-78449000D02*
X113950000Y-81000000D01*
X123500000Y-66660000D02*
X123500000Y-65960000D01*
X127950000Y-81000000D02*
X128986000Y-82036000D01*
X114725200Y-80901500D02*
X114048500Y-80901500D01*
X113345500Y-103194500D02*
X114540000Y-102000000D01*
X137062500Y-86950000D02*
X137062500Y-90850000D01*
X123571500Y-84847000D02*
X123097300Y-85321200D01*
X132540000Y-108000000D02*
X132540000Y-103159900D01*
X133750000Y-58240000D02*
X131920000Y-58240000D01*
X119994000Y-87044000D02*
X118950000Y-86000000D01*
X132540000Y-103159900D02*
X132540000Y-102000000D01*
X128950000Y-96000000D02*
X128950000Y-93037500D01*
X148216100Y-93023900D02*
X148216100Y-85296100D01*
X132914000Y-82036000D02*
X133950000Y-81000000D01*
X127950000Y-81000000D02*
X124103000Y-84847000D01*
X138950000Y-81000000D02*
X143920000Y-81000000D01*
X123912500Y-96000000D02*
X126912500Y-93000000D01*
X106700000Y-102000000D02*
X106700000Y-85240000D01*
X114725200Y-80824800D02*
X114725200Y-80901500D01*
X122562700Y-87044000D02*
X119994000Y-87044000D01*
X128848300Y-103037200D02*
X128848300Y-96101700D01*
X115975200Y-82151500D02*
X117672200Y-82151500D01*
X116850000Y-78700000D02*
X114725200Y-80824800D01*
X106700000Y-103194500D02*
X113345500Y-103194500D01*
X128848300Y-96101700D02*
X128950000Y-96000000D01*
X128950000Y-93037500D02*
X126912500Y-91000000D01*
X133750000Y-58240000D02*
X134801700Y-58240000D01*
X123097300Y-85321200D02*
X123097300Y-86509400D01*
X114048500Y-80901500D02*
X113950000Y-81000000D01*
X138950000Y-62388300D02*
X138950000Y-81000000D01*
X124103000Y-84847000D02*
X123571500Y-84847000D01*
X106700000Y-108000000D02*
X106700000Y-103194500D01*
X143920000Y-81000000D02*
X147000000Y-84080000D01*
X114540000Y-96590000D02*
X114540000Y-102000000D01*
X136912500Y-91000000D02*
X136912500Y-99372500D01*
X113950000Y-96000000D02*
X114540000Y-96590000D01*
X118950000Y-83429300D02*
X118950000Y-86000000D01*
X131920000Y-58240000D02*
X124900000Y-65260000D01*
X132540000Y-103159900D02*
X128971000Y-103159900D01*
X126912500Y-93000000D02*
X126912500Y-91000000D01*
X128971000Y-103159900D02*
X128848300Y-103037200D01*
X106700000Y-85240000D02*
X103000000Y-81540000D01*
X147000000Y-94240000D02*
X148216100Y-93023900D01*
X116250000Y-58240000D02*
X117301700Y-58240000D01*
X122100000Y-63038300D02*
X117301700Y-58240000D01*
X122100000Y-65260000D02*
X122100000Y-63038300D01*
X137062500Y-90850000D02*
X136912500Y-91000000D01*
X106700000Y-103194500D02*
X106700000Y-102000000D01*
X117672200Y-82151500D02*
X118950000Y-83429300D01*
X148216100Y-85296100D02*
X147000000Y-84080000D01*
X136912500Y-99372500D02*
X139540000Y-102000000D01*
X128986000Y-82036000D02*
X132914000Y-82036000D01*
X114725200Y-80901500D02*
X115975200Y-82151500D01*
X123097300Y-86509400D02*
X122562700Y-87044000D01*
X123500000Y-65960000D02*
X123500000Y-65260000D01*
X134801700Y-58240000D02*
X138950000Y-62388300D01*
%TO.N,PWR_SENSE*%
X136050100Y-81627200D02*
X136050100Y-67108400D01*
X141912500Y-91000000D02*
X141912500Y-87489600D01*
X141912500Y-87489600D02*
X136050100Y-81627200D01*
X136050100Y-67108400D02*
X134801700Y-65860000D01*
X133750000Y-65860000D02*
X134801700Y-65860000D01*
%TO.N,SD_MISO*%
X127564300Y-79368700D02*
X128380900Y-79368700D01*
X142730100Y-87498700D02*
X142730100Y-100130100D01*
X125635000Y-77439400D02*
X127564300Y-79368700D01*
X142730100Y-100130100D02*
X147000000Y-104400000D01*
X125635000Y-76000000D02*
X125635000Y-77439400D01*
%TO.N,V5*%
X116710800Y-83160800D02*
X114061600Y-83160800D01*
X116850000Y-83300000D02*
X116710800Y-83160800D01*
X114061600Y-83160800D02*
X113055800Y-84166600D01*
X114061600Y-83011600D02*
X112050000Y-81000000D01*
X113055800Y-84166600D02*
X113055800Y-86670100D01*
X113055800Y-86670100D02*
X115685900Y-89300200D01*
X115685900Y-89300200D02*
X121318200Y-89300200D01*
X114061600Y-83160800D02*
X114061600Y-83011600D01*
X121318200Y-89300200D02*
X121438500Y-89179900D01*
%TO.N,VBAT_SENSE*%
X133750000Y-59510000D02*
X133393300Y-59510000D01*
X131278900Y-63186600D02*
X131379000Y-63286700D01*
X122087500Y-96000000D02*
X118912500Y-96000000D01*
X123110200Y-97022700D02*
X126027300Y-97022700D01*
X122087500Y-96000000D02*
X123110200Y-97022700D01*
X118912500Y-96000000D02*
X118912500Y-96373800D01*
X131379000Y-63369300D02*
X129055100Y-65693200D01*
X117623700Y-97662600D02*
X116445000Y-97662600D01*
X126027300Y-97022700D02*
X127050000Y-96000000D01*
X133393300Y-59510000D02*
X131278900Y-61624400D01*
X131379000Y-63286700D02*
X131379000Y-63369300D01*
X129055100Y-65693200D02*
X129055100Y-74498700D01*
X118912500Y-96373800D02*
X117623700Y-97662600D01*
X131278900Y-61624400D02*
X131278900Y-63186600D01*
%TO.N,EPD_MOSI*%
X123095000Y-77051700D02*
X123095000Y-77263900D01*
X123095000Y-76000000D02*
X123095000Y-77051700D01*
%TO.N,UART_TX*%
X131822000Y-63161700D02*
X131704300Y-63044000D01*
X133750000Y-62050000D02*
X132698300Y-62050000D01*
X130142300Y-74722500D02*
X130142300Y-68178000D01*
X130544000Y-64772300D02*
X131822000Y-63494300D01*
X130143800Y-65372700D02*
X130544000Y-64972500D01*
X131704300Y-63044000D02*
X132698300Y-62050000D01*
X130143800Y-68176500D02*
X130143800Y-65372700D01*
X131822000Y-63494300D02*
X131822000Y-63161700D01*
X130544000Y-64972500D02*
X130544000Y-64772300D01*
X130142300Y-68178000D02*
X130143800Y-68176500D01*
%TO.N,EPD_BUSY*%
X100629000Y-94409000D02*
X103000000Y-96780000D01*
X115198300Y-62050000D02*
X100629000Y-76619300D01*
X100629000Y-76619300D02*
X100629000Y-94409000D01*
X116250000Y-62050000D02*
X115198300Y-62050000D01*
%TD*%
%TA.AperFunction,Conductor*%
%TO.N,GND*%
G36*
X100959191Y-50519407D02*
G01*
X100995155Y-50568907D01*
X101000000Y-50599500D01*
X101000000Y-56750000D01*
X101000001Y-56750000D01*
X148999999Y-56750000D01*
X149000000Y-56750000D01*
X149000000Y-50599500D01*
X149018907Y-50541309D01*
X149068407Y-50505345D01*
X149099000Y-50500500D01*
X149400500Y-50500500D01*
X149458691Y-50519407D01*
X149494655Y-50568907D01*
X149499500Y-50599500D01*
X149499500Y-119400500D01*
X149480593Y-119458691D01*
X149431093Y-119494655D01*
X149400500Y-119499500D01*
X100599500Y-119499500D01*
X100541309Y-119480593D01*
X100505345Y-119431093D01*
X100500500Y-119400500D01*
X100500500Y-116393709D01*
X102149500Y-116393709D01*
X102149500Y-116606290D01*
X102182752Y-116816238D01*
X102248443Y-117018412D01*
X102344948Y-117207815D01*
X102344950Y-117207819D01*
X102469891Y-117379786D01*
X102469893Y-117379788D01*
X102469896Y-117379792D01*
X102620208Y-117530104D01*
X102620211Y-117530106D01*
X102620213Y-117530108D01*
X102792180Y-117655049D01*
X102792184Y-117655051D01*
X102981588Y-117751557D01*
X103183757Y-117817246D01*
X103183758Y-117817246D01*
X103183761Y-117817247D01*
X103393710Y-117850500D01*
X103393713Y-117850500D01*
X103606290Y-117850500D01*
X103816238Y-117817247D01*
X103816239Y-117817246D01*
X103816243Y-117817246D01*
X104018412Y-117751557D01*
X104207816Y-117655051D01*
X104379792Y-117530104D01*
X104530104Y-117379792D01*
X104655051Y-117207816D01*
X104751557Y-117018412D01*
X104817246Y-116816243D01*
X104850500Y-116606287D01*
X104850500Y-116393713D01*
X104850500Y-116393709D01*
X145149500Y-116393709D01*
X145149500Y-116606290D01*
X145182752Y-116816238D01*
X145248443Y-117018412D01*
X145344948Y-117207815D01*
X145344950Y-117207819D01*
X145469891Y-117379786D01*
X145469893Y-117379788D01*
X145469896Y-117379792D01*
X145620208Y-117530104D01*
X145620211Y-117530106D01*
X145620213Y-117530108D01*
X145792180Y-117655049D01*
X145792184Y-117655051D01*
X145981588Y-117751557D01*
X146183757Y-117817246D01*
X146183758Y-117817246D01*
X146183761Y-117817247D01*
X146393710Y-117850500D01*
X146393713Y-117850500D01*
X146606290Y-117850500D01*
X146816238Y-117817247D01*
X146816239Y-117817246D01*
X146816243Y-117817246D01*
X147018412Y-117751557D01*
X147207816Y-117655051D01*
X147379792Y-117530104D01*
X147530104Y-117379792D01*
X147655051Y-117207816D01*
X147751557Y-117018412D01*
X147817246Y-116816243D01*
X147850500Y-116606287D01*
X147850500Y-116393713D01*
X147850500Y-116393709D01*
X147817247Y-116183761D01*
X147817246Y-116183757D01*
X147751557Y-115981588D01*
X147655051Y-115792184D01*
X147655049Y-115792180D01*
X147530108Y-115620213D01*
X147530106Y-115620211D01*
X147530104Y-115620208D01*
X147379792Y-115469896D01*
X147379788Y-115469893D01*
X147379786Y-115469891D01*
X147207819Y-115344950D01*
X147207815Y-115344948D01*
X147018412Y-115248443D01*
X146816238Y-115182752D01*
X146606290Y-115149500D01*
X146606287Y-115149500D01*
X146393713Y-115149500D01*
X146393710Y-115149500D01*
X146183761Y-115182752D01*
X145981587Y-115248443D01*
X145792184Y-115344948D01*
X145792180Y-115344950D01*
X145620213Y-115469891D01*
X145469891Y-115620213D01*
X145344950Y-115792180D01*
X145344948Y-115792184D01*
X145248443Y-115981587D01*
X145182752Y-116183761D01*
X145149500Y-116393709D01*
X104850500Y-116393709D01*
X104817247Y-116183761D01*
X104817246Y-116183757D01*
X104751557Y-115981588D01*
X104655051Y-115792184D01*
X104655049Y-115792180D01*
X104530108Y-115620213D01*
X104530106Y-115620211D01*
X104530104Y-115620208D01*
X104379792Y-115469896D01*
X104379788Y-115469893D01*
X104379786Y-115469891D01*
X104207819Y-115344950D01*
X104207815Y-115344948D01*
X104018412Y-115248443D01*
X103816238Y-115182752D01*
X103606290Y-115149500D01*
X103606287Y-115149500D01*
X103393713Y-115149500D01*
X103393710Y-115149500D01*
X103183761Y-115182752D01*
X102981587Y-115248443D01*
X102792184Y-115344948D01*
X102792180Y-115344950D01*
X102620213Y-115469891D01*
X102469891Y-115620213D01*
X102344950Y-115792180D01*
X102344948Y-115792184D01*
X102248443Y-115981587D01*
X102182752Y-116183761D01*
X102149500Y-116393709D01*
X100500500Y-116393709D01*
X100500500Y-101105130D01*
X102549500Y-101105130D01*
X102549500Y-102894860D01*
X102549501Y-102894863D01*
X102552414Y-102919990D01*
X102555161Y-102926211D01*
X102597794Y-103022765D01*
X102677235Y-103102206D01*
X102780009Y-103147585D01*
X102805135Y-103150500D01*
X103552200Y-103150499D01*
X103610391Y-103169406D01*
X103646355Y-103218906D01*
X103651200Y-103249499D01*
X103651200Y-106750500D01*
X103632293Y-106808691D01*
X103582793Y-106844655D01*
X103552200Y-106849500D01*
X102805139Y-106849500D01*
X102805136Y-106849501D01*
X102780009Y-106852414D01*
X102677235Y-106897794D01*
X102597794Y-106977235D01*
X102552414Y-107080011D01*
X102549500Y-107105130D01*
X102549500Y-108894860D01*
X102549501Y-108894863D01*
X102552414Y-108919990D01*
X102566349Y-108951549D01*
X102597794Y-109022765D01*
X102677235Y-109102206D01*
X102780009Y-109147585D01*
X102805135Y-109150500D01*
X103794864Y-109150499D01*
X103819991Y-109147585D01*
X103922765Y-109102206D01*
X104002206Y-109022765D01*
X104047585Y-108919991D01*
X104050500Y-108894865D01*
X104050499Y-108804198D01*
X104069406Y-108746010D01*
X104118905Y-108710046D01*
X104180091Y-108710045D01*
X104219503Y-108734196D01*
X105334020Y-109848713D01*
X105334019Y-109848713D01*
X105406944Y-109921637D01*
X105408587Y-109923280D01*
X105499913Y-109976007D01*
X105601773Y-110003300D01*
X105601775Y-110003300D01*
X117149925Y-110003300D01*
X117149927Y-110003300D01*
X117251788Y-109976007D01*
X117251790Y-109976005D01*
X117251792Y-109976005D01*
X117343108Y-109923283D01*
X117343108Y-109923282D01*
X117343113Y-109923280D01*
X120161262Y-107105130D01*
X128849500Y-107105130D01*
X128849500Y-108894860D01*
X128849501Y-108894863D01*
X128852414Y-108919990D01*
X128866349Y-108951549D01*
X128897794Y-109022765D01*
X128977235Y-109102206D01*
X129080009Y-109147585D01*
X129105135Y-109150500D01*
X130894864Y-109150499D01*
X130919991Y-109147585D01*
X131022765Y-109102206D01*
X131102206Y-109022765D01*
X131147585Y-108919991D01*
X131150500Y-108894865D01*
X131150499Y-108658943D01*
X131169406Y-108600756D01*
X131218906Y-108564792D01*
X131280091Y-108564791D01*
X131329591Y-108600755D01*
X131337709Y-108614001D01*
X131385376Y-108707553D01*
X131385380Y-108707559D01*
X131424728Y-108761716D01*
X131424729Y-108761716D01*
X132057037Y-108129407D01*
X132074075Y-108192993D01*
X132139901Y-108307007D01*
X132232993Y-108400099D01*
X132347007Y-108465925D01*
X132410589Y-108482962D01*
X131778282Y-109115269D01*
X131778282Y-109115270D01*
X131832440Y-109154619D01*
X131832446Y-109154623D01*
X132021784Y-109251095D01*
X132223878Y-109316759D01*
X132433750Y-109350000D01*
X132646250Y-109350000D01*
X132856121Y-109316759D01*
X133058215Y-109251095D01*
X133247556Y-109154620D01*
X133301716Y-109115270D01*
X132669408Y-108482962D01*
X132732993Y-108465925D01*
X132847007Y-108400099D01*
X132940099Y-108307007D01*
X133005925Y-108192993D01*
X133022962Y-108129408D01*
X133655270Y-108761716D01*
X133694620Y-108707556D01*
X133791095Y-108518215D01*
X133856759Y-108316121D01*
X133890000Y-108106250D01*
X133890000Y-107893749D01*
X133856759Y-107683878D01*
X133791095Y-107481784D01*
X133694623Y-107292446D01*
X133694619Y-107292440D01*
X133655270Y-107238282D01*
X133655269Y-107238282D01*
X133022962Y-107870589D01*
X133005925Y-107807007D01*
X132940099Y-107692993D01*
X132847007Y-107599901D01*
X132732993Y-107534075D01*
X132669407Y-107517037D01*
X133301716Y-106884729D01*
X133301716Y-106884728D01*
X133247559Y-106845380D01*
X133247553Y-106845376D01*
X133058215Y-106748904D01*
X132856121Y-106683240D01*
X132646250Y-106650000D01*
X132433750Y-106650000D01*
X132223878Y-106683240D01*
X132021784Y-106748904D01*
X131832446Y-106845376D01*
X131832442Y-106845378D01*
X131778282Y-106884728D01*
X132410591Y-107517037D01*
X132347007Y-107534075D01*
X132232993Y-107599901D01*
X132139901Y-107692993D01*
X132074075Y-107807007D01*
X132057037Y-107870591D01*
X131424728Y-107238282D01*
X131385378Y-107292442D01*
X131385376Y-107292446D01*
X131337709Y-107385999D01*
X131294444Y-107429264D01*
X131234012Y-107438835D01*
X131179495Y-107411057D01*
X131151718Y-107356541D01*
X131150499Y-107341054D01*
X131150499Y-107105139D01*
X131150499Y-107105136D01*
X131147585Y-107080009D01*
X131102206Y-106977235D01*
X131022765Y-106897794D01*
X130919991Y-106852415D01*
X130919990Y-106852414D01*
X130919988Y-106852414D01*
X130894868Y-106849500D01*
X129105139Y-106849500D01*
X129105136Y-106849501D01*
X129080009Y-106852414D01*
X128977235Y-106897794D01*
X128897794Y-106977235D01*
X128852414Y-107080011D01*
X128849500Y-107105130D01*
X120161262Y-107105130D01*
X124171552Y-103094839D01*
X124226067Y-103067064D01*
X124272146Y-103070690D01*
X124430591Y-103122171D01*
X124502136Y-103133502D01*
X124609451Y-103150500D01*
X124609454Y-103150500D01*
X124790549Y-103150500D01*
X124879977Y-103136335D01*
X124969409Y-103122171D01*
X125141639Y-103066211D01*
X125302994Y-102983996D01*
X125449501Y-102877553D01*
X125577553Y-102749501D01*
X125683996Y-102602994D01*
X125766211Y-102441639D01*
X125822171Y-102269409D01*
X125850500Y-102090546D01*
X125850500Y-101909454D01*
X125850500Y-101909450D01*
X125822171Y-101730593D01*
X125822171Y-101730591D01*
X125766211Y-101558361D01*
X125683996Y-101397006D01*
X125577553Y-101250499D01*
X125449501Y-101122447D01*
X125302994Y-101016004D01*
X125302993Y-101016003D01*
X125302991Y-101016002D01*
X125141637Y-100933788D01*
X124969406Y-100877828D01*
X124790549Y-100849500D01*
X124790546Y-100849500D01*
X124609454Y-100849500D01*
X124609451Y-100849500D01*
X124430593Y-100877828D01*
X124258362Y-100933788D01*
X124097008Y-101016002D01*
X124023752Y-101069225D01*
X123950499Y-101122447D01*
X123822447Y-101250499D01*
X123817718Y-101257008D01*
X123716002Y-101397008D01*
X123633788Y-101558362D01*
X123577828Y-101730593D01*
X123549500Y-101909450D01*
X123549500Y-102090549D01*
X123577828Y-102269406D01*
X123629309Y-102427851D01*
X123629308Y-102489036D01*
X123605158Y-102528447D01*
X116960303Y-109173304D01*
X116905786Y-109201081D01*
X116890299Y-109202300D01*
X115763101Y-109202300D01*
X115704910Y-109183393D01*
X115668946Y-109133893D01*
X115668946Y-109072707D01*
X115693097Y-109033296D01*
X117126492Y-107599901D01*
X121631552Y-103094839D01*
X121686067Y-103067064D01*
X121732146Y-103070690D01*
X121890591Y-103122171D01*
X121962136Y-103133502D01*
X122069451Y-103150500D01*
X122069454Y-103150500D01*
X122250549Y-103150500D01*
X122339977Y-103136335D01*
X122429409Y-103122171D01*
X122601639Y-103066211D01*
X122762994Y-102983996D01*
X122909501Y-102877553D01*
X123037553Y-102749501D01*
X123143996Y-102602994D01*
X123226211Y-102441639D01*
X123282171Y-102269409D01*
X123310500Y-102090546D01*
X123310500Y-101909454D01*
X123310500Y-101909450D01*
X123282171Y-101730593D01*
X123282171Y-101730591D01*
X123226211Y-101558361D01*
X123143996Y-101397006D01*
X123037553Y-101250499D01*
X122909501Y-101122447D01*
X122762994Y-101016004D01*
X122762993Y-101016003D01*
X122762991Y-101016002D01*
X122601637Y-100933788D01*
X122429406Y-100877828D01*
X122250549Y-100849500D01*
X122250546Y-100849500D01*
X122069454Y-100849500D01*
X122069451Y-100849500D01*
X121890593Y-100877828D01*
X121718362Y-100933788D01*
X121557008Y-101016002D01*
X121483752Y-101069225D01*
X121410499Y-101122447D01*
X121282447Y-101250499D01*
X121277718Y-101257008D01*
X121176002Y-101397008D01*
X121093788Y-101558362D01*
X121037828Y-101730593D01*
X121009500Y-101909450D01*
X121009500Y-102090549D01*
X121037828Y-102269406D01*
X121089309Y-102427851D01*
X121089308Y-102489036D01*
X121065158Y-102528447D01*
X114822003Y-108771604D01*
X114767486Y-108799381D01*
X114751999Y-108800600D01*
X107749000Y-108800600D01*
X107690809Y-108781693D01*
X107654845Y-108732193D01*
X107650000Y-108701600D01*
X107650000Y-108250001D01*
X107649999Y-108250000D01*
X105827401Y-108250000D01*
X105769210Y-108231093D01*
X105757397Y-108221004D01*
X104638568Y-107102175D01*
X105750000Y-107102175D01*
X105750000Y-107749999D01*
X105750001Y-107750000D01*
X106449999Y-107750000D01*
X106450000Y-107749999D01*
X106450000Y-106650001D01*
X106950000Y-106650001D01*
X106950000Y-107749999D01*
X106950001Y-107750000D01*
X107649999Y-107750000D01*
X107650000Y-107749999D01*
X107650000Y-107102175D01*
X107643598Y-107042629D01*
X107643596Y-107042618D01*
X107593353Y-106907911D01*
X107593352Y-106907909D01*
X107507192Y-106792815D01*
X107507184Y-106792807D01*
X107392090Y-106706647D01*
X107392088Y-106706646D01*
X107257381Y-106656403D01*
X107257370Y-106656401D01*
X107197824Y-106650000D01*
X106950001Y-106650000D01*
X106950000Y-106650001D01*
X106450000Y-106650001D01*
X106449999Y-106650000D01*
X106202176Y-106650000D01*
X106142629Y-106656401D01*
X106142618Y-106656403D01*
X106007911Y-106706646D01*
X106007909Y-106706647D01*
X105892815Y-106792807D01*
X105892807Y-106792815D01*
X105806647Y-106907909D01*
X105806646Y-106907911D01*
X105756403Y-107042618D01*
X105756401Y-107042629D01*
X105750000Y-107102175D01*
X104638568Y-107102175D01*
X104481196Y-106944803D01*
X104453419Y-106890286D01*
X104452200Y-106874799D01*
X104452200Y-102897824D01*
X105749999Y-102897824D01*
X105756401Y-102957370D01*
X105756403Y-102957381D01*
X105806646Y-103092088D01*
X105806647Y-103092090D01*
X105892807Y-103207184D01*
X105892815Y-103207192D01*
X106007909Y-103293352D01*
X106007911Y-103293353D01*
X106142618Y-103343596D01*
X106142629Y-103343598D01*
X106202176Y-103350000D01*
X106449999Y-103350000D01*
X106450000Y-103349999D01*
X106450000Y-102250001D01*
X106950000Y-102250001D01*
X106950000Y-103349999D01*
X106950001Y-103350000D01*
X107197824Y-103350000D01*
X107257370Y-103343598D01*
X107257381Y-103343596D01*
X107392088Y-103293353D01*
X107392090Y-103293352D01*
X107507184Y-103207192D01*
X107507192Y-103207184D01*
X107593352Y-103092090D01*
X107593353Y-103092088D01*
X107643596Y-102957381D01*
X107643598Y-102957370D01*
X107650000Y-102897824D01*
X107650000Y-102250001D01*
X107649999Y-102250000D01*
X106950001Y-102250000D01*
X106950000Y-102250001D01*
X106450000Y-102250001D01*
X106449999Y-102250000D01*
X105750001Y-102250000D01*
X105750000Y-102250001D01*
X105750000Y-102897824D01*
X105749999Y-102897824D01*
X104452200Y-102897824D01*
X104452200Y-101947274D01*
X104448690Y-101934174D01*
X104424907Y-101845413D01*
X104372180Y-101754087D01*
X104297613Y-101679520D01*
X104297610Y-101679518D01*
X104206290Y-101626794D01*
X104206287Y-101626793D01*
X104123875Y-101604711D01*
X104072561Y-101571386D01*
X104050635Y-101514265D01*
X104050499Y-101509084D01*
X104050499Y-101105137D01*
X104050156Y-101102175D01*
X105750000Y-101102175D01*
X105750000Y-101749999D01*
X105750001Y-101750000D01*
X106449999Y-101750000D01*
X106450000Y-101749999D01*
X106450000Y-100650001D01*
X106950000Y-100650001D01*
X106950000Y-101749999D01*
X106950001Y-101750000D01*
X107649999Y-101750000D01*
X107650000Y-101749999D01*
X107650000Y-101102175D01*
X107643598Y-101042629D01*
X107643596Y-101042618D01*
X107593353Y-100907911D01*
X107593352Y-100907909D01*
X107507192Y-100792815D01*
X107507184Y-100792807D01*
X107392090Y-100706647D01*
X107392088Y-100706646D01*
X107257381Y-100656403D01*
X107257370Y-100656401D01*
X107197824Y-100650000D01*
X106950001Y-100650000D01*
X106950000Y-100650001D01*
X106450000Y-100650001D01*
X106449999Y-100650000D01*
X106202176Y-100650000D01*
X106142629Y-100656401D01*
X106142618Y-100656403D01*
X106007911Y-100706646D01*
X106007909Y-100706647D01*
X105892815Y-100792807D01*
X105892807Y-100792815D01*
X105806647Y-100907909D01*
X105806646Y-100907911D01*
X105756403Y-101042618D01*
X105756401Y-101042629D01*
X105750000Y-101102175D01*
X104050156Y-101102175D01*
X104047585Y-101080009D01*
X104019323Y-101016002D01*
X104002206Y-100977235D01*
X103922765Y-100897794D01*
X103819991Y-100852415D01*
X103819990Y-100852414D01*
X103819988Y-100852414D01*
X103794868Y-100849500D01*
X102805139Y-100849500D01*
X102805136Y-100849501D01*
X102780009Y-100852414D01*
X102677235Y-100897794D01*
X102597794Y-100977235D01*
X102552414Y-101080011D01*
X102549500Y-101105130D01*
X100500500Y-101105130D01*
X100500500Y-95085901D01*
X100519407Y-95027710D01*
X100568907Y-94991746D01*
X100630093Y-94991746D01*
X100669504Y-95015897D01*
X101905158Y-96251551D01*
X101932935Y-96306068D01*
X101929309Y-96352147D01*
X101877828Y-96510593D01*
X101849500Y-96689450D01*
X101849500Y-96870549D01*
X101877828Y-97049406D01*
X101933788Y-97221637D01*
X101995717Y-97343180D01*
X102016004Y-97382994D01*
X102122447Y-97529501D01*
X102250499Y-97657553D01*
X102397006Y-97763996D01*
X102558361Y-97846211D01*
X102730591Y-97902171D01*
X102802136Y-97913502D01*
X102909451Y-97930500D01*
X102909454Y-97930500D01*
X103090549Y-97930500D01*
X103179977Y-97916335D01*
X103269409Y-97902171D01*
X103441639Y-97846211D01*
X103602994Y-97763996D01*
X103749501Y-97657553D01*
X103877553Y-97529501D01*
X103983996Y-97382994D01*
X104066211Y-97221639D01*
X104122171Y-97049409D01*
X104150500Y-96870546D01*
X104150500Y-96689454D01*
X104150500Y-96689450D01*
X104123361Y-96518106D01*
X104122171Y-96510591D01*
X104066211Y-96338361D01*
X103983996Y-96177006D01*
X103877553Y-96030499D01*
X103749501Y-95902447D01*
X103602994Y-95796004D01*
X103602993Y-95796003D01*
X103602991Y-95796002D01*
X103441637Y-95713788D01*
X103269406Y-95657828D01*
X103090549Y-95629500D01*
X103090546Y-95629500D01*
X102909454Y-95629500D01*
X102909451Y-95629500D01*
X102730593Y-95657828D01*
X102572147Y-95709309D01*
X102510962Y-95709308D01*
X102471551Y-95685158D01*
X101058496Y-94272103D01*
X101030719Y-94217586D01*
X101029500Y-94202099D01*
X101029500Y-93074900D01*
X101048407Y-93016709D01*
X101097907Y-92980745D01*
X101159093Y-92980745D01*
X101198504Y-93004896D01*
X101905158Y-93711550D01*
X101932935Y-93766067D01*
X101929309Y-93812146D01*
X101877828Y-93970593D01*
X101849500Y-94149450D01*
X101849500Y-94330549D01*
X101877828Y-94509406D01*
X101933788Y-94681637D01*
X102009635Y-94830496D01*
X102016004Y-94842994D01*
X102122447Y-94989501D01*
X102250499Y-95117553D01*
X102397006Y-95223996D01*
X102558361Y-95306211D01*
X102730591Y-95362171D01*
X102794543Y-95372300D01*
X102909451Y-95390500D01*
X102909454Y-95390500D01*
X103090549Y-95390500D01*
X103179977Y-95376335D01*
X103269409Y-95362171D01*
X103441639Y-95306211D01*
X103602994Y-95223996D01*
X103749501Y-95117553D01*
X103877553Y-94989501D01*
X103983996Y-94842994D01*
X104066211Y-94681639D01*
X104122171Y-94509409D01*
X104150500Y-94330546D01*
X104150500Y-94149454D01*
X104150500Y-94149450D01*
X104122171Y-93970593D01*
X104122171Y-93970591D01*
X104066211Y-93798361D01*
X103983996Y-93637006D01*
X103877553Y-93490499D01*
X103749501Y-93362447D01*
X103602994Y-93256004D01*
X103602993Y-93256003D01*
X103602991Y-93256002D01*
X103441637Y-93173788D01*
X103269406Y-93117828D01*
X103090549Y-93089500D01*
X103090546Y-93089500D01*
X102909454Y-93089500D01*
X102909451Y-93089500D01*
X102730593Y-93117828D01*
X102572146Y-93169309D01*
X102510960Y-93169308D01*
X102471550Y-93145158D01*
X101460196Y-92133803D01*
X101432419Y-92079286D01*
X101431200Y-92063799D01*
X101431200Y-90936601D01*
X101450107Y-90878410D01*
X101499607Y-90842446D01*
X101560793Y-90842446D01*
X101600204Y-90866597D01*
X101905158Y-91171551D01*
X101932935Y-91226068D01*
X101929309Y-91272147D01*
X101877828Y-91430593D01*
X101849500Y-91609450D01*
X101849500Y-91790549D01*
X101877828Y-91969406D01*
X101933788Y-92141637D01*
X102005408Y-92282200D01*
X102016004Y-92302994D01*
X102122447Y-92449501D01*
X102250499Y-92577553D01*
X102397006Y-92683996D01*
X102558361Y-92766211D01*
X102730591Y-92822171D01*
X102781310Y-92830204D01*
X102909451Y-92850500D01*
X102909454Y-92850500D01*
X103090549Y-92850500D01*
X103182778Y-92835892D01*
X103269409Y-92822171D01*
X103441639Y-92766211D01*
X103602994Y-92683996D01*
X103749501Y-92577553D01*
X103877553Y-92449501D01*
X103983996Y-92302994D01*
X104066211Y-92141639D01*
X104122171Y-91969409D01*
X104142204Y-91842924D01*
X104150500Y-91790549D01*
X104150500Y-91609450D01*
X104122171Y-91430593D01*
X104122171Y-91430591D01*
X104066211Y-91258361D01*
X103983996Y-91097006D01*
X103877553Y-90950499D01*
X103749501Y-90822447D01*
X103602994Y-90716004D01*
X103602993Y-90716003D01*
X103602991Y-90716002D01*
X103441637Y-90633788D01*
X103269406Y-90577828D01*
X103090549Y-90549500D01*
X103090546Y-90549500D01*
X102909454Y-90549500D01*
X102909451Y-90549500D01*
X102730593Y-90577828D01*
X102572147Y-90629309D01*
X102510962Y-90629308D01*
X102471551Y-90605158D01*
X101861896Y-89995503D01*
X101834119Y-89940986D01*
X101832900Y-89925499D01*
X101832900Y-89815223D01*
X101851807Y-89757032D01*
X101901307Y-89721068D01*
X101962493Y-89721068D01*
X102011993Y-89757032D01*
X102015657Y-89762516D01*
X102016002Y-89762991D01*
X102016004Y-89762994D01*
X102122447Y-89909501D01*
X102250499Y-90037553D01*
X102397006Y-90143996D01*
X102558361Y-90226211D01*
X102730591Y-90282171D01*
X102802136Y-90293502D01*
X102909451Y-90310500D01*
X102909454Y-90310500D01*
X103090549Y-90310500D01*
X103179977Y-90296335D01*
X103269409Y-90282171D01*
X103441639Y-90226211D01*
X103602994Y-90143996D01*
X103749501Y-90037553D01*
X103877553Y-89909501D01*
X103983996Y-89762994D01*
X104066211Y-89601639D01*
X104122171Y-89429409D01*
X104149168Y-89258957D01*
X104150500Y-89250549D01*
X104150500Y-89069450D01*
X104130190Y-88941223D01*
X104122171Y-88890591D01*
X104066211Y-88718361D01*
X103983996Y-88557006D01*
X103877553Y-88410499D01*
X103749501Y-88282447D01*
X103602994Y-88176004D01*
X103602993Y-88176003D01*
X103602991Y-88176002D01*
X103441637Y-88093788D01*
X103269406Y-88037828D01*
X103090549Y-88009500D01*
X103090546Y-88009500D01*
X102909454Y-88009500D01*
X102909451Y-88009500D01*
X102730593Y-88037828D01*
X102572147Y-88089309D01*
X102510962Y-88089308D01*
X102471551Y-88065158D01*
X102277796Y-87871403D01*
X102274169Y-87864285D01*
X102267707Y-87859590D01*
X102260543Y-87837541D01*
X102250019Y-87816886D01*
X102248800Y-87801399D01*
X102248800Y-87689952D01*
X102267707Y-87631761D01*
X102317207Y-87595797D01*
X102378393Y-87595797D01*
X102393310Y-87602681D01*
X102393540Y-87602230D01*
X102397006Y-87603996D01*
X102558361Y-87686211D01*
X102730591Y-87742171D01*
X102780022Y-87750000D01*
X102909451Y-87770500D01*
X102909454Y-87770500D01*
X103090549Y-87770500D01*
X103189388Y-87754845D01*
X103269409Y-87742171D01*
X103441639Y-87686211D01*
X103602994Y-87603996D01*
X103749501Y-87497553D01*
X103877553Y-87369501D01*
X103983996Y-87222994D01*
X104066211Y-87061639D01*
X104122171Y-86889409D01*
X104144927Y-86745734D01*
X104150500Y-86710549D01*
X104150500Y-86529450D01*
X104124118Y-86362885D01*
X104122171Y-86350591D01*
X104066211Y-86178361D01*
X103983996Y-86017006D01*
X103877553Y-85870499D01*
X103749501Y-85742447D01*
X103602994Y-85636004D01*
X103602993Y-85636003D01*
X103602991Y-85636002D01*
X103441637Y-85553788D01*
X103269406Y-85497828D01*
X103090549Y-85469500D01*
X103090546Y-85469500D01*
X102909454Y-85469500D01*
X102909451Y-85469500D01*
X102730593Y-85497828D01*
X102558362Y-85553788D01*
X102393540Y-85637770D01*
X102392691Y-85636103D01*
X102340017Y-85648741D01*
X102283492Y-85625317D01*
X102251532Y-85573143D01*
X102248800Y-85550047D01*
X102248800Y-85149952D01*
X102267707Y-85091761D01*
X102317207Y-85055797D01*
X102378393Y-85055797D01*
X102393310Y-85062681D01*
X102393540Y-85062230D01*
X102397006Y-85063996D01*
X102558361Y-85146211D01*
X102730591Y-85202171D01*
X102802136Y-85213502D01*
X102909451Y-85230500D01*
X102909454Y-85230500D01*
X103090549Y-85230500D01*
X103179977Y-85216335D01*
X103269409Y-85202171D01*
X103441639Y-85146211D01*
X103602994Y-85063996D01*
X103749501Y-84957553D01*
X103877553Y-84829501D01*
X103983996Y-84682994D01*
X104066211Y-84521639D01*
X104122171Y-84349409D01*
X104137561Y-84252243D01*
X104150500Y-84170549D01*
X104150500Y-83989450D01*
X104127460Y-83843986D01*
X104122171Y-83810591D01*
X104066211Y-83638361D01*
X103983996Y-83477006D01*
X103877553Y-83330499D01*
X103749501Y-83202447D01*
X103602994Y-83096004D01*
X103602993Y-83096003D01*
X103602991Y-83096002D01*
X103441637Y-83013788D01*
X103427013Y-83009036D01*
X103377514Y-82973071D01*
X103358608Y-82914880D01*
X103377517Y-82856689D01*
X103427016Y-82820727D01*
X103518213Y-82791096D01*
X103707556Y-82694620D01*
X103761716Y-82655270D01*
X103129408Y-82022962D01*
X103192993Y-82005925D01*
X103307007Y-81940099D01*
X103400099Y-81847007D01*
X103465925Y-81732993D01*
X103482962Y-81669408D01*
X104115270Y-82301716D01*
X104154620Y-82247556D01*
X104251095Y-82058215D01*
X104316759Y-81856121D01*
X104350000Y-81646250D01*
X104350000Y-81433749D01*
X104316759Y-81223878D01*
X104280194Y-81111342D01*
X104280194Y-81050156D01*
X104316158Y-81000656D01*
X104374349Y-80981749D01*
X104432540Y-81000656D01*
X104444346Y-81010739D01*
X107010880Y-83577272D01*
X110154904Y-86721296D01*
X110182681Y-86775813D01*
X110183900Y-86791300D01*
X110183900Y-99379973D01*
X110183900Y-99485427D01*
X110207970Y-99575259D01*
X110211194Y-99587292D01*
X110263916Y-99678608D01*
X110263918Y-99678610D01*
X110263920Y-99678613D01*
X110868278Y-100282970D01*
X111265804Y-100680496D01*
X111293581Y-100735013D01*
X111284010Y-100795445D01*
X111240745Y-100838710D01*
X111195801Y-100849500D01*
X111105140Y-100849500D01*
X111105135Y-100849501D01*
X111080009Y-100852414D01*
X110977235Y-100897794D01*
X110897794Y-100977235D01*
X110852414Y-101080011D01*
X110849500Y-101105130D01*
X110849500Y-102894860D01*
X110849501Y-102894863D01*
X110852414Y-102919990D01*
X110855161Y-102926211D01*
X110897794Y-103022765D01*
X110977235Y-103102206D01*
X111080009Y-103147585D01*
X111105135Y-103150500D01*
X112894864Y-103150499D01*
X112919991Y-103147585D01*
X113022765Y-103102206D01*
X113102206Y-103022765D01*
X113147585Y-102919991D01*
X113150500Y-102894865D01*
X113150499Y-102658943D01*
X113169406Y-102600756D01*
X113218906Y-102564792D01*
X113280091Y-102564791D01*
X113329591Y-102600755D01*
X113337709Y-102614001D01*
X113385376Y-102707553D01*
X113385380Y-102707559D01*
X113424728Y-102761716D01*
X113424729Y-102761716D01*
X114057037Y-102129407D01*
X114074075Y-102192993D01*
X114139901Y-102307007D01*
X114232993Y-102400099D01*
X114347007Y-102465925D01*
X114410589Y-102482962D01*
X113778282Y-103115269D01*
X113778282Y-103115270D01*
X113832440Y-103154619D01*
X113832446Y-103154623D01*
X114021784Y-103251095D01*
X114223878Y-103316759D01*
X114433750Y-103350000D01*
X114646250Y-103350000D01*
X114856121Y-103316759D01*
X115058215Y-103251095D01*
X115247556Y-103154620D01*
X115301716Y-103115270D01*
X114669408Y-102482962D01*
X114732993Y-102465925D01*
X114847007Y-102400099D01*
X114940099Y-102307007D01*
X115005925Y-102192993D01*
X115022962Y-102129408D01*
X115655270Y-102761716D01*
X115694620Y-102707556D01*
X115791096Y-102518213D01*
X115820727Y-102427016D01*
X115856690Y-102377516D01*
X115914881Y-102358608D01*
X115973072Y-102377515D01*
X116009036Y-102427013D01*
X116013788Y-102441637D01*
X116094863Y-102600756D01*
X116096004Y-102602994D01*
X116202447Y-102749501D01*
X116330499Y-102877553D01*
X116477006Y-102983996D01*
X116638361Y-103066211D01*
X116810591Y-103122171D01*
X116882136Y-103133502D01*
X116989451Y-103150500D01*
X116989454Y-103150500D01*
X117170549Y-103150500D01*
X117259977Y-103136335D01*
X117349409Y-103122171D01*
X117521639Y-103066211D01*
X117682994Y-102983996D01*
X117829501Y-102877553D01*
X117957553Y-102749501D01*
X118063996Y-102602994D01*
X118146211Y-102441639D01*
X118202171Y-102269409D01*
X118230500Y-102090546D01*
X118230500Y-101909454D01*
X118230500Y-101909450D01*
X118469500Y-101909450D01*
X118469500Y-102090549D01*
X118497828Y-102269406D01*
X118553788Y-102441637D01*
X118634863Y-102600756D01*
X118636004Y-102602994D01*
X118742447Y-102749501D01*
X118870499Y-102877553D01*
X119017006Y-102983996D01*
X119178361Y-103066211D01*
X119350591Y-103122171D01*
X119422136Y-103133502D01*
X119529451Y-103150500D01*
X119529454Y-103150500D01*
X119710549Y-103150500D01*
X119799977Y-103136335D01*
X119889409Y-103122171D01*
X120061639Y-103066211D01*
X120222994Y-102983996D01*
X120369501Y-102877553D01*
X120497553Y-102749501D01*
X120603996Y-102602994D01*
X120686211Y-102441639D01*
X120742171Y-102269409D01*
X120770500Y-102090546D01*
X120770500Y-101909454D01*
X120770500Y-101909450D01*
X120742171Y-101730593D01*
X120742171Y-101730591D01*
X120686211Y-101558361D01*
X120603996Y-101397006D01*
X120497553Y-101250499D01*
X120369501Y-101122447D01*
X120222994Y-101016004D01*
X120222993Y-101016003D01*
X120222991Y-101016002D01*
X120061637Y-100933788D01*
X119889406Y-100877828D01*
X119710549Y-100849500D01*
X119710546Y-100849500D01*
X119529454Y-100849500D01*
X119529451Y-100849500D01*
X119350593Y-100877828D01*
X119178362Y-100933788D01*
X119017008Y-101016002D01*
X118943752Y-101069225D01*
X118870499Y-101122447D01*
X118742447Y-101250499D01*
X118737718Y-101257008D01*
X118636002Y-101397008D01*
X118553788Y-101558362D01*
X118497828Y-101730593D01*
X118469500Y-101909450D01*
X118230500Y-101909450D01*
X118202171Y-101730593D01*
X118202171Y-101730591D01*
X118146211Y-101558361D01*
X118063996Y-101397006D01*
X117957553Y-101250499D01*
X117829501Y-101122447D01*
X117682994Y-101016004D01*
X117682993Y-101016003D01*
X117682991Y-101016002D01*
X117521637Y-100933788D01*
X117349406Y-100877828D01*
X117170549Y-100849500D01*
X117170546Y-100849500D01*
X116989454Y-100849500D01*
X116989451Y-100849500D01*
X116810593Y-100877828D01*
X116638362Y-100933788D01*
X116477008Y-101016002D01*
X116403752Y-101069225D01*
X116330499Y-101122447D01*
X116202447Y-101250499D01*
X116197718Y-101257008D01*
X116096002Y-101397008D01*
X116013787Y-101558364D01*
X116013786Y-101558366D01*
X116009035Y-101572988D01*
X115973069Y-101622486D01*
X115914878Y-101641391D01*
X115856688Y-101622481D01*
X115820727Y-101572983D01*
X115791096Y-101481786D01*
X115694623Y-101292446D01*
X115694619Y-101292440D01*
X115655270Y-101238282D01*
X115655269Y-101238282D01*
X115022962Y-101870589D01*
X115005925Y-101807007D01*
X114940099Y-101692993D01*
X114847007Y-101599901D01*
X114732993Y-101534075D01*
X114669407Y-101517037D01*
X115301716Y-100884729D01*
X115301716Y-100884728D01*
X115247559Y-100845380D01*
X115247553Y-100845376D01*
X115058215Y-100748904D01*
X114856121Y-100683240D01*
X114646250Y-100650000D01*
X114433750Y-100650000D01*
X114223878Y-100683240D01*
X114021784Y-100748904D01*
X113832446Y-100845376D01*
X113832442Y-100845378D01*
X113778282Y-100884728D01*
X114410591Y-101517037D01*
X114347007Y-101534075D01*
X114232993Y-101599901D01*
X114139901Y-101692993D01*
X114074075Y-101807007D01*
X114057037Y-101870591D01*
X113424728Y-101238282D01*
X113385378Y-101292442D01*
X113385376Y-101292446D01*
X113337709Y-101385999D01*
X113294444Y-101429264D01*
X113234012Y-101438835D01*
X113179495Y-101411057D01*
X113151718Y-101356541D01*
X113150499Y-101341054D01*
X113150499Y-101105139D01*
X113150499Y-101105136D01*
X113147585Y-101080009D01*
X113102206Y-100977235D01*
X113022765Y-100897794D01*
X112919991Y-100852415D01*
X112919990Y-100852414D01*
X112919988Y-100852414D01*
X112894869Y-100849500D01*
X112894865Y-100849500D01*
X112490916Y-100849500D01*
X112461814Y-100840044D01*
X112432903Y-100830721D01*
X112432840Y-100830630D01*
X112432725Y-100830593D01*
X112396829Y-100781301D01*
X112395990Y-100778738D01*
X112373207Y-100693713D01*
X112373206Y-100693712D01*
X112320480Y-100602387D01*
X112245913Y-100527820D01*
X112245910Y-100527818D01*
X111013896Y-99295803D01*
X110986119Y-99241286D01*
X110984900Y-99225799D01*
X110984900Y-93188619D01*
X111003807Y-93130428D01*
X111053307Y-93094464D01*
X111111823Y-93094464D01*
X111111948Y-93093997D01*
X111113691Y-93094464D01*
X111114493Y-93094464D01*
X111116618Y-93095248D01*
X111118213Y-93095675D01*
X111118216Y-93095677D01*
X111270943Y-93136600D01*
X111270945Y-93136600D01*
X111429055Y-93136600D01*
X111429057Y-93136600D01*
X111581784Y-93095677D01*
X111718716Y-93016620D01*
X111830520Y-92904816D01*
X111909577Y-92767884D01*
X111950500Y-92615157D01*
X111950500Y-92457043D01*
X111909577Y-92304316D01*
X111830520Y-92167384D01*
X111830517Y-92167381D01*
X111779496Y-92116359D01*
X111775870Y-92109242D01*
X111769407Y-92104547D01*
X111762242Y-92082495D01*
X111751719Y-92061842D01*
X111750500Y-92046356D01*
X111750500Y-91938055D01*
X111769407Y-91879864D01*
X111813181Y-91845957D01*
X111834975Y-91837364D01*
X111950078Y-91750078D01*
X112037364Y-91634975D01*
X112090359Y-91500590D01*
X112100500Y-91416144D01*
X112100500Y-90583856D01*
X112090359Y-90499410D01*
X112050406Y-90398096D01*
X112037365Y-90365027D01*
X112037364Y-90365026D01*
X112037364Y-90365025D01*
X111950078Y-90249922D01*
X111834975Y-90162636D01*
X111834974Y-90162635D01*
X111834972Y-90162634D01*
X111700591Y-90109641D01*
X111616148Y-90099500D01*
X111616144Y-90099500D01*
X111083900Y-90099500D01*
X111025709Y-90080593D01*
X110989745Y-90031093D01*
X110984900Y-90000500D01*
X110984900Y-87083900D01*
X111003807Y-87025709D01*
X111053307Y-86989745D01*
X111083900Y-86984900D01*
X111555825Y-86984900D01*
X111555827Y-86984900D01*
X111598696Y-86973413D01*
X111659796Y-86976616D01*
X111660637Y-86976943D01*
X111693436Y-86989877D01*
X111781898Y-87000500D01*
X111781900Y-87000500D01*
X112393100Y-87000500D01*
X112393102Y-87000500D01*
X112481564Y-86989877D01*
X112622342Y-86934361D01*
X112628246Y-86929883D01*
X112686033Y-86909787D01*
X112744599Y-86927495D01*
X112758063Y-86938756D01*
X115439987Y-89620680D01*
X115439989Y-89620681D01*
X115439991Y-89620683D01*
X115531308Y-89673405D01*
X115531306Y-89673405D01*
X115531310Y-89673406D01*
X115531312Y-89673407D01*
X115633173Y-89700700D01*
X115650769Y-89700700D01*
X115708960Y-89719607D01*
X115744924Y-89769107D01*
X115744924Y-89830293D01*
X115710588Y-89878583D01*
X115680980Y-89901036D01*
X115607081Y-89957075D01*
X115607075Y-89957081D01*
X115515640Y-90077656D01*
X115515637Y-90077660D01*
X115460123Y-90218433D01*
X115457343Y-90241585D01*
X115431631Y-90297105D01*
X115378196Y-90326910D01*
X115317447Y-90319614D01*
X115280165Y-90289598D01*
X115271112Y-90277660D01*
X115250078Y-90249922D01*
X115134975Y-90162636D01*
X115134974Y-90162635D01*
X115134972Y-90162634D01*
X115000591Y-90109641D01*
X114916148Y-90099500D01*
X114916144Y-90099500D01*
X114383856Y-90099500D01*
X114383851Y-90099500D01*
X114299408Y-90109641D01*
X114165027Y-90162634D01*
X114049922Y-90249922D01*
X113962634Y-90365027D01*
X113909641Y-90499408D01*
X113899500Y-90583851D01*
X113899500Y-91416148D01*
X113909641Y-91500591D01*
X113962634Y-91634972D01*
X113962635Y-91634974D01*
X113962636Y-91634975D01*
X114049922Y-91750078D01*
X114165025Y-91837364D01*
X114186818Y-91845957D01*
X114234015Y-91884893D01*
X114249500Y-91938055D01*
X114249500Y-94432400D01*
X114230593Y-94490591D01*
X114181093Y-94526555D01*
X114150500Y-94531400D01*
X113176906Y-94531400D01*
X113176890Y-94531399D01*
X113170827Y-94531399D01*
X113065374Y-94531399D01*
X112963513Y-94558693D01*
X112963511Y-94558693D01*
X112963507Y-94558695D01*
X112872187Y-94611419D01*
X112797619Y-94685986D01*
X112797620Y-94685987D01*
X112797618Y-94685989D01*
X112797617Y-94685989D01*
X112524736Y-94958869D01*
X112470220Y-94986646D01*
X112437949Y-94985187D01*
X112437866Y-94985880D01*
X112431564Y-94985123D01*
X112407966Y-94982289D01*
X112343106Y-94974500D01*
X112343102Y-94974500D01*
X111756898Y-94974500D01*
X111756893Y-94974500D01*
X111668434Y-94985123D01*
X111527660Y-95040637D01*
X111527656Y-95040640D01*
X111407081Y-95132075D01*
X111407075Y-95132081D01*
X111315640Y-95252656D01*
X111315637Y-95252660D01*
X111260123Y-95393434D01*
X111249500Y-95481893D01*
X111249500Y-96518106D01*
X111260123Y-96606565D01*
X111315637Y-96747339D01*
X111315638Y-96747341D01*
X111315639Y-96747342D01*
X111407078Y-96867922D01*
X111527658Y-96959361D01*
X111527659Y-96959361D01*
X111527660Y-96959362D01*
X111583940Y-96981556D01*
X111668436Y-97014877D01*
X111756898Y-97025500D01*
X111756900Y-97025500D01*
X112343100Y-97025500D01*
X112343102Y-97025500D01*
X112431564Y-97014877D01*
X112572342Y-96959361D01*
X112692922Y-96867922D01*
X112784361Y-96747342D01*
X112839877Y-96606564D01*
X112850500Y-96518102D01*
X112850500Y-95806900D01*
X112869407Y-95748709D01*
X112879496Y-95736896D01*
X113254996Y-95361396D01*
X113309513Y-95333619D01*
X113325000Y-95332400D01*
X114288899Y-95332400D01*
X114347090Y-95351307D01*
X114358903Y-95361396D01*
X116057932Y-97060425D01*
X116085709Y-97114942D01*
X116076138Y-97175374D01*
X116057934Y-97200429D01*
X115964480Y-97293884D01*
X115885423Y-97430816D01*
X115844500Y-97583543D01*
X115844500Y-97741657D01*
X115885423Y-97894384D01*
X115964480Y-98031316D01*
X116076284Y-98143120D01*
X116213216Y-98222177D01*
X116365943Y-98263100D01*
X116365945Y-98263100D01*
X116524055Y-98263100D01*
X116524057Y-98263100D01*
X116676784Y-98222177D01*
X116813716Y-98143120D01*
X116839229Y-98117606D01*
X116864741Y-98092096D01*
X116919258Y-98064319D01*
X116934744Y-98063100D01*
X117676425Y-98063100D01*
X117676427Y-98063100D01*
X117778288Y-98035807D01*
X117778290Y-98035805D01*
X117778292Y-98035805D01*
X117869608Y-97983083D01*
X117869608Y-97983082D01*
X117869613Y-97983080D01*
X118823197Y-97029496D01*
X118877714Y-97001719D01*
X118893201Y-97000500D01*
X119218100Y-97000500D01*
X119218102Y-97000500D01*
X119306564Y-96989877D01*
X119447342Y-96934361D01*
X119567922Y-96842922D01*
X119659361Y-96722342D01*
X119714877Y-96581564D01*
X119725500Y-96493102D01*
X119725853Y-96490164D01*
X119726778Y-96490275D01*
X119747803Y-96436650D01*
X119799354Y-96403693D01*
X119824294Y-96400500D01*
X121175706Y-96400500D01*
X121233897Y-96419407D01*
X121269861Y-96468907D01*
X121273884Y-96490195D01*
X121274147Y-96490164D01*
X121285123Y-96581565D01*
X121340637Y-96722339D01*
X121340638Y-96722341D01*
X121340639Y-96722342D01*
X121432078Y-96842922D01*
X121552658Y-96934361D01*
X121552659Y-96934361D01*
X121552660Y-96934362D01*
X121575427Y-96943340D01*
X121693436Y-96989877D01*
X121781898Y-97000500D01*
X121781900Y-97000500D01*
X122393100Y-97000500D01*
X122393102Y-97000500D01*
X122460050Y-96992460D01*
X122520078Y-97004294D01*
X122541856Y-97020750D01*
X122864286Y-97343179D01*
X122864291Y-97343183D01*
X122955608Y-97395905D01*
X122955606Y-97395905D01*
X122955610Y-97395906D01*
X122955612Y-97395907D01*
X123057473Y-97423200D01*
X123057475Y-97423200D01*
X126080025Y-97423200D01*
X126080027Y-97423200D01*
X126181888Y-97395907D01*
X126181890Y-97395905D01*
X126181892Y-97395905D01*
X126273208Y-97343183D01*
X126273208Y-97343182D01*
X126273213Y-97343180D01*
X126575263Y-97041128D01*
X126629778Y-97013352D01*
X126662050Y-97014815D01*
X126662134Y-97014120D01*
X126668435Y-97014876D01*
X126668436Y-97014877D01*
X126756898Y-97025500D01*
X126756900Y-97025500D01*
X127343100Y-97025500D01*
X127343102Y-97025500D01*
X127431564Y-97014877D01*
X127572342Y-96959361D01*
X127692922Y-96867922D01*
X127784361Y-96747342D01*
X127801436Y-96704040D01*
X127840371Y-96656845D01*
X127899613Y-96641547D01*
X127956533Y-96663992D01*
X127987508Y-96709219D01*
X128015643Y-96794125D01*
X128107680Y-96943340D01*
X128231659Y-97067319D01*
X128380875Y-97159356D01*
X128547306Y-97214506D01*
X128650013Y-97224999D01*
X128700000Y-97224998D01*
X128700000Y-96250001D01*
X129200000Y-96250001D01*
X129200000Y-97224998D01*
X129200001Y-97224999D01*
X129249986Y-97224999D01*
X129352687Y-97214507D01*
X129352699Y-97214504D01*
X129519124Y-97159356D01*
X129668340Y-97067319D01*
X129792319Y-96943340D01*
X129884356Y-96794124D01*
X129939506Y-96627693D01*
X129950000Y-96524987D01*
X129950000Y-96250001D01*
X129949999Y-96250000D01*
X129200001Y-96250000D01*
X129200000Y-96250001D01*
X128700000Y-96250001D01*
X128700000Y-94775001D01*
X129200000Y-94775001D01*
X129200000Y-95749999D01*
X129200001Y-95750000D01*
X129949998Y-95750000D01*
X129949999Y-95749999D01*
X129949999Y-95475013D01*
X129939507Y-95372312D01*
X129939504Y-95372300D01*
X129884356Y-95205875D01*
X129792319Y-95056659D01*
X129668340Y-94932680D01*
X129519124Y-94840643D01*
X129352693Y-94785493D01*
X129249987Y-94775000D01*
X129200001Y-94775000D01*
X129200000Y-94775001D01*
X128700000Y-94775001D01*
X128700000Y-94774999D01*
X128650015Y-94775000D01*
X128650012Y-94775001D01*
X128547312Y-94785492D01*
X128547300Y-94785495D01*
X128380875Y-94840643D01*
X128231659Y-94932680D01*
X128107680Y-95056659D01*
X128015643Y-95205874D01*
X127987508Y-95290780D01*
X127951256Y-95340070D01*
X127892956Y-95358637D01*
X127834876Y-95339391D01*
X127801437Y-95295959D01*
X127784361Y-95252658D01*
X127692922Y-95132078D01*
X127572342Y-95040639D01*
X127572341Y-95040638D01*
X127572339Y-95040637D01*
X127431565Y-94985123D01*
X127343106Y-94974500D01*
X127343102Y-94974500D01*
X126756898Y-94974500D01*
X126756893Y-94974500D01*
X126668434Y-94985123D01*
X126527660Y-95040637D01*
X126527656Y-95040640D01*
X126407081Y-95132075D01*
X126407075Y-95132081D01*
X126315640Y-95252656D01*
X126315637Y-95252660D01*
X126260123Y-95393434D01*
X126249500Y-95481893D01*
X126249500Y-96193099D01*
X126230593Y-96251290D01*
X126220504Y-96263103D01*
X125890403Y-96593204D01*
X125835886Y-96620981D01*
X125820399Y-96622200D01*
X125022143Y-96622200D01*
X124963952Y-96603293D01*
X124927988Y-96553793D01*
X124923656Y-96513135D01*
X124925000Y-96499983D01*
X124925000Y-96250001D01*
X124924999Y-96250000D01*
X124011500Y-96250000D01*
X123953309Y-96231093D01*
X123917345Y-96181593D01*
X123912500Y-96151000D01*
X123912500Y-96000001D01*
X123912499Y-96000000D01*
X123761500Y-96000000D01*
X123703309Y-95981093D01*
X123667345Y-95931593D01*
X123662500Y-95901000D01*
X123662500Y-94800001D01*
X124162500Y-94800001D01*
X124162500Y-95749999D01*
X124162501Y-95750000D01*
X124924998Y-95750000D01*
X124924999Y-95749999D01*
X124924999Y-95500013D01*
X124914507Y-95397312D01*
X124914504Y-95397300D01*
X124859356Y-95230875D01*
X124767319Y-95081659D01*
X124643340Y-94957680D01*
X124494124Y-94865643D01*
X124327693Y-94810493D01*
X124224987Y-94800000D01*
X124162501Y-94800000D01*
X124162500Y-94800001D01*
X123662500Y-94800001D01*
X123662500Y-94799999D01*
X123600014Y-94800000D01*
X123600013Y-94800001D01*
X123497312Y-94810492D01*
X123497300Y-94810495D01*
X123330875Y-94865643D01*
X123181659Y-94957680D01*
X123057682Y-95081657D01*
X122966691Y-95229177D01*
X122920049Y-95268778D01*
X122859039Y-95273401D01*
X122806963Y-95241280D01*
X122803546Y-95237023D01*
X122797596Y-95229177D01*
X122742922Y-95157078D01*
X122622342Y-95065639D01*
X122622341Y-95065638D01*
X122622339Y-95065637D01*
X122481565Y-95010123D01*
X122393106Y-94999500D01*
X122393102Y-94999500D01*
X121781898Y-94999500D01*
X121781893Y-94999500D01*
X121693434Y-95010123D01*
X121552660Y-95065637D01*
X121552656Y-95065640D01*
X121432081Y-95157075D01*
X121432075Y-95157081D01*
X121340640Y-95277656D01*
X121340637Y-95277660D01*
X121285123Y-95418434D01*
X121274147Y-95509836D01*
X121273221Y-95509724D01*
X121252197Y-95563350D01*
X121200646Y-95596307D01*
X121175706Y-95599500D01*
X119824294Y-95599500D01*
X119766103Y-95580593D01*
X119730139Y-95531093D01*
X119726115Y-95509804D01*
X119725853Y-95509836D01*
X119721671Y-95475013D01*
X119714877Y-95418436D01*
X119683973Y-95340070D01*
X119659362Y-95277660D01*
X119659361Y-95277659D01*
X119659361Y-95277658D01*
X119567922Y-95157078D01*
X119447342Y-95065639D01*
X119447341Y-95065638D01*
X119447339Y-95065637D01*
X119306565Y-95010123D01*
X119218106Y-94999500D01*
X119218102Y-94999500D01*
X119210301Y-94999500D01*
X119152110Y-94980593D01*
X119116146Y-94931093D01*
X119116146Y-94869907D01*
X119140297Y-94830496D01*
X119709397Y-94261396D01*
X119763914Y-94233619D01*
X119779401Y-94232400D01*
X123850425Y-94232400D01*
X123850427Y-94232400D01*
X123952288Y-94205107D01*
X123952290Y-94205105D01*
X123952292Y-94205105D01*
X124043608Y-94152383D01*
X124043608Y-94152382D01*
X124043613Y-94152380D01*
X126108999Y-92086991D01*
X126163514Y-92059216D01*
X126223946Y-92068787D01*
X126230974Y-92072736D01*
X126330877Y-92134357D01*
X126497306Y-92189506D01*
X126600013Y-92199999D01*
X126662499Y-92199998D01*
X126662500Y-92199998D01*
X126662500Y-91250001D01*
X127162500Y-91250001D01*
X127162500Y-92199998D01*
X127162501Y-92199999D01*
X127224986Y-92199999D01*
X127327687Y-92189507D01*
X127327699Y-92189504D01*
X127494124Y-92134356D01*
X127643340Y-92042319D01*
X127767319Y-91918340D01*
X127859356Y-91769124D01*
X127914506Y-91602693D01*
X127925000Y-91499987D01*
X127925000Y-91250001D01*
X127924999Y-91250000D01*
X127162501Y-91250000D01*
X127162500Y-91250001D01*
X126662500Y-91250001D01*
X126662500Y-91099000D01*
X126681407Y-91040809D01*
X126730907Y-91004845D01*
X126761500Y-91000000D01*
X126912499Y-91000000D01*
X126912500Y-90999999D01*
X126912500Y-90849000D01*
X126931407Y-90790809D01*
X126980907Y-90754845D01*
X127011500Y-90750000D01*
X127924998Y-90750000D01*
X127924999Y-90749999D01*
X127924999Y-90500021D01*
X127922766Y-90478160D01*
X127935663Y-90418349D01*
X127981252Y-90377541D01*
X128021254Y-90369100D01*
X128849199Y-90369100D01*
X128907390Y-90388007D01*
X128919203Y-90398096D01*
X129245504Y-90724397D01*
X129273281Y-90778914D01*
X129274500Y-90794401D01*
X129274500Y-91493106D01*
X129285123Y-91581565D01*
X129340637Y-91722339D01*
X129340638Y-91722341D01*
X129340639Y-91722342D01*
X129432078Y-91842922D01*
X129552658Y-91934361D01*
X129552659Y-91934361D01*
X129552660Y-91934362D01*
X129562025Y-91938055D01*
X129693436Y-91989877D01*
X129781898Y-92000500D01*
X129781900Y-92000500D01*
X130393100Y-92000500D01*
X130393102Y-92000500D01*
X130460050Y-91992460D01*
X130520078Y-92004294D01*
X130541856Y-92020750D01*
X130868786Y-92347679D01*
X130868791Y-92347683D01*
X130960108Y-92400405D01*
X130960106Y-92400405D01*
X130960110Y-92400406D01*
X130960112Y-92400407D01*
X131061973Y-92427700D01*
X131061975Y-92427700D01*
X132475125Y-92427700D01*
X132475127Y-92427700D01*
X132576988Y-92400407D01*
X132576990Y-92400405D01*
X132576992Y-92400405D01*
X132668308Y-92347683D01*
X132668308Y-92347682D01*
X132668313Y-92347680D01*
X132966296Y-92049695D01*
X133020813Y-92021918D01*
X133081245Y-92031489D01*
X133124510Y-92074754D01*
X133135300Y-92119699D01*
X133135300Y-97105599D01*
X133116393Y-97163790D01*
X133106304Y-97175603D01*
X129679516Y-100602391D01*
X129626793Y-100693711D01*
X129626792Y-100693712D01*
X129626793Y-100693713D01*
X129604711Y-100776123D01*
X129571386Y-100827438D01*
X129514265Y-100849364D01*
X129509084Y-100849500D01*
X129105139Y-100849500D01*
X129105136Y-100849501D01*
X129080009Y-100852414D01*
X128977235Y-100897794D01*
X128897794Y-100977235D01*
X128852414Y-101080011D01*
X128849500Y-101105130D01*
X128849500Y-102894860D01*
X128849501Y-102894863D01*
X128852414Y-102919990D01*
X128855161Y-102926211D01*
X128897794Y-103022765D01*
X128977235Y-103102206D01*
X129080009Y-103147585D01*
X129105135Y-103150500D01*
X130894864Y-103150499D01*
X130919991Y-103147585D01*
X131022765Y-103102206D01*
X131102206Y-103022765D01*
X131147585Y-102919991D01*
X131150500Y-102894865D01*
X131150499Y-102658943D01*
X131169406Y-102600756D01*
X131218906Y-102564792D01*
X131280091Y-102564791D01*
X131329591Y-102600755D01*
X131337709Y-102614001D01*
X131385376Y-102707553D01*
X131385380Y-102707559D01*
X131424728Y-102761716D01*
X131424729Y-102761716D01*
X132057037Y-102129407D01*
X132074075Y-102192993D01*
X132139901Y-102307007D01*
X132232993Y-102400099D01*
X132347007Y-102465925D01*
X132410589Y-102482962D01*
X131778282Y-103115269D01*
X131778282Y-103115270D01*
X131832440Y-103154619D01*
X131832446Y-103154623D01*
X132021784Y-103251095D01*
X132223878Y-103316759D01*
X132433750Y-103350000D01*
X132646250Y-103350000D01*
X132856121Y-103316759D01*
X133058215Y-103251095D01*
X133247556Y-103154620D01*
X133301716Y-103115270D01*
X132669408Y-102482962D01*
X132732993Y-102465925D01*
X132847007Y-102400099D01*
X132940099Y-102307007D01*
X133005925Y-102192993D01*
X133022962Y-102129408D01*
X133655270Y-102761716D01*
X133694620Y-102707556D01*
X133791095Y-102518215D01*
X133856759Y-102316121D01*
X133890000Y-102106250D01*
X133890000Y-101893749D01*
X133856759Y-101683878D01*
X133791095Y-101481784D01*
X133694623Y-101292446D01*
X133694619Y-101292440D01*
X133655270Y-101238282D01*
X133655269Y-101238282D01*
X133022962Y-101870589D01*
X133005925Y-101807007D01*
X132940099Y-101692993D01*
X132847007Y-101599901D01*
X132732993Y-101534075D01*
X132669408Y-101517037D01*
X133154174Y-101032272D01*
X133301716Y-100884729D01*
X133301716Y-100884728D01*
X133247559Y-100845380D01*
X133247553Y-100845376D01*
X133058215Y-100748904D01*
X132856121Y-100683240D01*
X132646250Y-100650000D01*
X132433750Y-100650000D01*
X132223878Y-100683240D01*
X132021784Y-100748904D01*
X131832446Y-100845376D01*
X131832442Y-100845378D01*
X131778282Y-100884728D01*
X132410591Y-101517037D01*
X132347007Y-101534075D01*
X132232993Y-101599901D01*
X132139901Y-101692993D01*
X132074075Y-101807007D01*
X132057037Y-101870591D01*
X131424728Y-101238282D01*
X131385378Y-101292442D01*
X131385376Y-101292446D01*
X131337709Y-101385999D01*
X131294444Y-101429264D01*
X131234012Y-101438835D01*
X131179495Y-101411057D01*
X131151718Y-101356541D01*
X131150499Y-101341054D01*
X131150499Y-101105139D01*
X131150499Y-101105136D01*
X131147585Y-101080009D01*
X131102206Y-100977235D01*
X131022765Y-100897794D01*
X130919991Y-100852415D01*
X130919990Y-100852414D01*
X130919988Y-100852414D01*
X130894869Y-100849500D01*
X130894865Y-100849500D01*
X130804200Y-100849500D01*
X130746009Y-100830593D01*
X130710045Y-100781093D01*
X130710045Y-100719907D01*
X130734196Y-100680496D01*
X132188893Y-99225799D01*
X133856280Y-97558413D01*
X133896128Y-97489394D01*
X133909007Y-97467087D01*
X133936300Y-97365227D01*
X133936300Y-92282200D01*
X133955207Y-92224009D01*
X134004707Y-92188045D01*
X134065893Y-92188045D01*
X134105301Y-92212194D01*
X134261287Y-92368180D01*
X134261289Y-92368181D01*
X134261291Y-92368183D01*
X134352608Y-92420905D01*
X134352606Y-92420905D01*
X134352610Y-92420906D01*
X134352612Y-92420907D01*
X134454473Y-92448200D01*
X134454475Y-92448200D01*
X135651625Y-92448200D01*
X135651627Y-92448200D01*
X135753488Y-92420907D01*
X135753490Y-92420905D01*
X135753492Y-92420905D01*
X135844808Y-92368183D01*
X135844808Y-92368182D01*
X135844813Y-92368180D01*
X136119515Y-92093477D01*
X136174030Y-92065702D01*
X136234462Y-92075273D01*
X136241490Y-92079223D01*
X136330874Y-92134356D01*
X136497306Y-92189506D01*
X136600013Y-92199999D01*
X136662499Y-92199998D01*
X136662500Y-92199998D01*
X136662500Y-91250001D01*
X137162500Y-91250001D01*
X137162500Y-92199998D01*
X137162501Y-92199999D01*
X137224986Y-92199999D01*
X137327687Y-92189507D01*
X137327699Y-92189504D01*
X137494124Y-92134356D01*
X137643340Y-92042319D01*
X137767319Y-91918340D01*
X137859356Y-91769124D01*
X137914506Y-91602693D01*
X137925000Y-91499987D01*
X137925000Y-91250001D01*
X137924999Y-91250000D01*
X137162501Y-91250000D01*
X137162500Y-91250001D01*
X136662500Y-91250001D01*
X136662500Y-89800001D01*
X137162500Y-89800001D01*
X137162500Y-90749999D01*
X137162501Y-90750000D01*
X137924998Y-90750000D01*
X137924999Y-90749999D01*
X137924999Y-90500013D01*
X137914507Y-90397312D01*
X137914504Y-90397300D01*
X137859356Y-90230875D01*
X137767319Y-90081659D01*
X137643340Y-89957680D01*
X137494124Y-89865643D01*
X137327693Y-89810493D01*
X137224987Y-89800000D01*
X137162501Y-89800000D01*
X137162500Y-89800001D01*
X136662500Y-89800001D01*
X136662500Y-89799999D01*
X136600014Y-89800000D01*
X136600013Y-89800001D01*
X136497312Y-89810492D01*
X136497294Y-89810496D01*
X136493333Y-89811809D01*
X136432149Y-89812161D01*
X136382443Y-89776482D01*
X136363202Y-89718401D01*
X136363200Y-89717832D01*
X136363200Y-87849000D01*
X136382107Y-87790809D01*
X136431607Y-87754845D01*
X136462200Y-87750000D01*
X136812499Y-87750000D01*
X136812500Y-87749999D01*
X136812500Y-87200001D01*
X137312500Y-87200001D01*
X137312500Y-87749999D01*
X137312501Y-87750000D01*
X137715637Y-87750000D01*
X137752489Y-87747100D01*
X137910200Y-87701280D01*
X137910201Y-87701280D01*
X138051552Y-87617685D01*
X138167685Y-87501552D01*
X138251280Y-87360201D01*
X138251280Y-87360200D01*
X138297098Y-87202493D01*
X138297100Y-87202486D01*
X138297296Y-87200000D01*
X137312501Y-87200000D01*
X137312500Y-87200001D01*
X136812500Y-87200001D01*
X136812500Y-87049000D01*
X136831407Y-86990809D01*
X136880907Y-86954845D01*
X136911500Y-86950000D01*
X137062499Y-86950000D01*
X137062500Y-86949999D01*
X137062500Y-86799000D01*
X137081407Y-86740809D01*
X137130907Y-86704845D01*
X137161500Y-86700000D01*
X138297296Y-86700000D01*
X138300425Y-86696615D01*
X138312153Y-86647771D01*
X138358679Y-86608035D01*
X138396563Y-86600500D01*
X139579273Y-86600500D01*
X139579273Y-86600499D01*
X139609699Y-86597646D01*
X139737882Y-86552793D01*
X139847150Y-86472150D01*
X139927793Y-86362882D01*
X139951341Y-86295583D01*
X139988404Y-86246906D01*
X140047004Y-86229309D01*
X140104756Y-86249516D01*
X140114788Y-86258280D01*
X141483004Y-87626496D01*
X141510781Y-87681013D01*
X141512000Y-87696500D01*
X141512000Y-88883032D01*
X141493093Y-88941223D01*
X141443593Y-88977187D01*
X141382407Y-88977187D01*
X141363503Y-88968770D01*
X141231784Y-88892723D01*
X141079057Y-88851800D01*
X140920943Y-88851800D01*
X140768216Y-88892723D01*
X140631284Y-88971780D01*
X140519480Y-89083584D01*
X140440423Y-89220516D01*
X140399500Y-89373243D01*
X140399500Y-89531357D01*
X140440423Y-89684084D01*
X140519480Y-89821016D01*
X140537140Y-89838676D01*
X140564916Y-89893191D01*
X140555345Y-89953623D01*
X140512080Y-89996888D01*
X140455332Y-90006972D01*
X140393109Y-89999500D01*
X140393102Y-89999500D01*
X139781898Y-89999500D01*
X139781893Y-89999500D01*
X139693434Y-90010123D01*
X139552660Y-90065637D01*
X139552656Y-90065640D01*
X139432081Y-90157075D01*
X139432075Y-90157081D01*
X139340640Y-90277656D01*
X139340637Y-90277660D01*
X139285123Y-90418434D01*
X139274500Y-90506893D01*
X139274500Y-91493106D01*
X139285123Y-91581565D01*
X139340637Y-91722339D01*
X139340638Y-91722341D01*
X139340639Y-91722342D01*
X139432078Y-91842922D01*
X139552658Y-91934361D01*
X139624319Y-91962620D01*
X139671516Y-92001556D01*
X139687000Y-92054717D01*
X139687000Y-96271056D01*
X139668093Y-96329247D01*
X139658004Y-96341059D01*
X139606982Y-96392081D01*
X139606980Y-96392083D01*
X139606980Y-96392084D01*
X139527923Y-96529016D01*
X139487000Y-96681743D01*
X139487000Y-96839857D01*
X139527923Y-96992584D01*
X139606980Y-97129516D01*
X139718784Y-97241320D01*
X139855716Y-97320377D01*
X140008443Y-97361300D01*
X140008445Y-97361300D01*
X140166555Y-97361300D01*
X140166557Y-97361300D01*
X140319284Y-97320377D01*
X140451003Y-97244329D01*
X140510848Y-97231609D01*
X140566744Y-97256496D01*
X140597337Y-97309484D01*
X140599500Y-97330067D01*
X140599500Y-100887273D01*
X140599500Y-100992727D01*
X140605737Y-101016004D01*
X140626794Y-101094592D01*
X140651828Y-101137951D01*
X140664550Y-101197799D01*
X140639664Y-101253695D01*
X140636096Y-101257454D01*
X140022962Y-101870589D01*
X140005925Y-101807007D01*
X139940099Y-101692993D01*
X139847007Y-101599901D01*
X139732993Y-101534075D01*
X139669407Y-101517037D01*
X140301716Y-100884729D01*
X140301716Y-100884728D01*
X140247559Y-100845380D01*
X140247553Y-100845376D01*
X140058215Y-100748904D01*
X139856121Y-100683240D01*
X139646250Y-100650000D01*
X139433750Y-100650000D01*
X139223878Y-100683240D01*
X139021784Y-100748904D01*
X138832446Y-100845376D01*
X138832442Y-100845378D01*
X138778282Y-100884728D01*
X139410591Y-101517037D01*
X139347007Y-101534075D01*
X139232993Y-101599901D01*
X139139901Y-101692993D01*
X139074075Y-101807007D01*
X139057037Y-101870591D01*
X138424728Y-101238282D01*
X138385378Y-101292442D01*
X138385376Y-101292446D01*
X138337709Y-101385999D01*
X138294444Y-101429264D01*
X138234012Y-101438835D01*
X138179495Y-101411057D01*
X138151718Y-101356541D01*
X138150499Y-101341054D01*
X138150499Y-101105139D01*
X138150499Y-101105136D01*
X138147585Y-101080009D01*
X138102206Y-100977235D01*
X138022765Y-100897794D01*
X137919991Y-100852415D01*
X137919990Y-100852414D01*
X137919988Y-100852414D01*
X137894868Y-100849500D01*
X136105139Y-100849500D01*
X136105136Y-100849501D01*
X136080009Y-100852414D01*
X135977235Y-100897794D01*
X135897794Y-100977235D01*
X135852414Y-101080011D01*
X135849500Y-101105130D01*
X135849500Y-102894860D01*
X135849501Y-102894863D01*
X135852414Y-102919990D01*
X135855161Y-102926211D01*
X135897794Y-103022765D01*
X135977235Y-103102206D01*
X136080009Y-103147585D01*
X136105135Y-103150500D01*
X137894864Y-103150499D01*
X137919991Y-103147585D01*
X138022765Y-103102206D01*
X138102206Y-103022765D01*
X138147585Y-102919991D01*
X138150500Y-102894865D01*
X138150499Y-102658943D01*
X138169406Y-102600756D01*
X138218906Y-102564792D01*
X138280091Y-102564791D01*
X138329591Y-102600755D01*
X138337709Y-102614001D01*
X138385376Y-102707553D01*
X138385380Y-102707559D01*
X138424728Y-102761716D01*
X138424729Y-102761716D01*
X139057037Y-102129407D01*
X139074075Y-102192993D01*
X139139901Y-102307007D01*
X139232993Y-102400099D01*
X139347007Y-102465925D01*
X139410589Y-102482962D01*
X138778282Y-103115269D01*
X138778282Y-103115270D01*
X138832440Y-103154619D01*
X138832446Y-103154623D01*
X139021784Y-103251095D01*
X139223878Y-103316759D01*
X139433750Y-103350000D01*
X139646250Y-103350000D01*
X139856121Y-103316759D01*
X140058215Y-103251095D01*
X140247556Y-103154620D01*
X140301716Y-103115270D01*
X139669408Y-102482962D01*
X139732993Y-102465925D01*
X139847007Y-102400099D01*
X139940099Y-102307007D01*
X140005925Y-102192993D01*
X140022962Y-102129408D01*
X140655270Y-102761716D01*
X140694620Y-102707556D01*
X140791095Y-102518215D01*
X140856759Y-102316121D01*
X140890000Y-102106250D01*
X140890000Y-101893749D01*
X140856759Y-101683878D01*
X140829820Y-101600968D01*
X140829820Y-101539782D01*
X140865784Y-101490282D01*
X140923975Y-101471375D01*
X140982166Y-101490282D01*
X140993972Y-101500365D01*
X143451968Y-103958361D01*
X145905158Y-106411551D01*
X145932935Y-106466068D01*
X145929309Y-106512147D01*
X145877828Y-106670593D01*
X145849500Y-106849450D01*
X145849500Y-107030549D01*
X145877828Y-107209406D01*
X145933788Y-107381637D01*
X146011459Y-107534075D01*
X146016004Y-107542994D01*
X146122447Y-107689501D01*
X146250499Y-107817553D01*
X146397006Y-107923996D01*
X146558361Y-108006211D01*
X146730591Y-108062171D01*
X146802136Y-108073502D01*
X146909451Y-108090500D01*
X146909454Y-108090500D01*
X147090549Y-108090500D01*
X147179977Y-108076335D01*
X147269409Y-108062171D01*
X147441639Y-108006211D01*
X147602994Y-107923996D01*
X147605904Y-107921881D01*
X147620816Y-107917034D01*
X147633507Y-107907815D01*
X147649186Y-107907815D01*
X147664093Y-107902970D01*
X147679008Y-107907815D01*
X147694693Y-107907815D01*
X147707376Y-107917030D01*
X147722285Y-107921873D01*
X147731503Y-107934559D01*
X147744193Y-107943779D01*
X147749037Y-107958689D01*
X147758252Y-107971370D01*
X147763100Y-108001970D01*
X147763100Y-108109499D01*
X147744193Y-108167690D01*
X147734103Y-108179503D01*
X147528447Y-108385158D01*
X147473931Y-108412935D01*
X147427852Y-108409309D01*
X147269406Y-108357828D01*
X147090549Y-108329500D01*
X147090546Y-108329500D01*
X146909454Y-108329500D01*
X146909451Y-108329500D01*
X146730593Y-108357828D01*
X146558362Y-108413788D01*
X146397008Y-108496002D01*
X146366435Y-108518215D01*
X146250499Y-108602447D01*
X146122447Y-108730499D01*
X146111178Y-108746010D01*
X146016002Y-108877008D01*
X145933788Y-109038362D01*
X145877828Y-109210593D01*
X145849500Y-109389450D01*
X145849500Y-109570549D01*
X145877828Y-109749406D01*
X145933788Y-109921637D01*
X145975397Y-110003300D01*
X146016004Y-110082994D01*
X146122447Y-110229501D01*
X146250499Y-110357553D01*
X146397006Y-110463996D01*
X146558361Y-110546211D01*
X146569483Y-110549824D01*
X146572983Y-110550962D01*
X146622483Y-110586926D01*
X146641391Y-110645116D01*
X146622484Y-110703307D01*
X146572985Y-110739271D01*
X146572984Y-110739272D01*
X146481784Y-110768904D01*
X146292446Y-110865376D01*
X146292442Y-110865378D01*
X146238282Y-110904728D01*
X146870591Y-111537037D01*
X146807007Y-111554075D01*
X146692993Y-111619901D01*
X146599901Y-111712993D01*
X146534075Y-111827007D01*
X146517037Y-111890591D01*
X145884728Y-111258282D01*
X145845378Y-111312442D01*
X145845376Y-111312446D01*
X145748904Y-111501784D01*
X145683240Y-111703878D01*
X145650000Y-111913749D01*
X145650000Y-112126250D01*
X145683240Y-112336121D01*
X145748904Y-112538215D01*
X145845376Y-112727553D01*
X145845380Y-112727559D01*
X145884728Y-112781716D01*
X145884729Y-112781716D01*
X146517037Y-112149407D01*
X146534075Y-112212993D01*
X146599901Y-112327007D01*
X146692993Y-112420099D01*
X146807007Y-112485925D01*
X146870589Y-112502962D01*
X146238282Y-113135269D01*
X146238282Y-113135270D01*
X146292440Y-113174619D01*
X146292446Y-113174623D01*
X146481784Y-113271095D01*
X146683878Y-113336759D01*
X146893750Y-113370000D01*
X147106250Y-113370000D01*
X147316121Y-113336759D01*
X147518215Y-113271095D01*
X147707556Y-113174620D01*
X147761716Y-113135270D01*
X147129408Y-112502962D01*
X147192993Y-112485925D01*
X147307007Y-112420099D01*
X147400099Y-112327007D01*
X147465925Y-112212993D01*
X147482962Y-112149408D01*
X148115270Y-112781716D01*
X148154620Y-112727556D01*
X148251095Y-112538215D01*
X148316759Y-112336121D01*
X148350000Y-112126250D01*
X148350000Y-111913749D01*
X148316759Y-111703878D01*
X148251095Y-111501784D01*
X148154623Y-111312446D01*
X148154619Y-111312440D01*
X148115270Y-111258282D01*
X148115269Y-111258282D01*
X147482962Y-111890589D01*
X147465925Y-111827007D01*
X147400099Y-111712993D01*
X147307007Y-111619901D01*
X147192993Y-111554075D01*
X147129407Y-111537037D01*
X147761716Y-110904729D01*
X147761716Y-110904728D01*
X147707559Y-110865380D01*
X147707553Y-110865376D01*
X147518215Y-110768904D01*
X147427015Y-110739272D01*
X147377515Y-110703308D01*
X147358608Y-110645117D01*
X147377515Y-110586926D01*
X147427013Y-110550962D01*
X147427017Y-110550962D01*
X147427018Y-110550962D01*
X147441633Y-110546213D01*
X147441633Y-110546212D01*
X147441639Y-110546211D01*
X147602994Y-110463996D01*
X147749501Y-110357553D01*
X147877553Y-110229501D01*
X147983996Y-110082994D01*
X148066211Y-109921639D01*
X148122171Y-109749409D01*
X148150500Y-109570546D01*
X148150500Y-109389454D01*
X148150500Y-109389450D01*
X148122171Y-109210593D01*
X148122171Y-109210591D01*
X148070690Y-109052145D01*
X148070691Y-108990960D01*
X148094840Y-108951551D01*
X148484080Y-108562313D01*
X148536807Y-108470988D01*
X148564100Y-108369127D01*
X148564100Y-108263673D01*
X148564100Y-96245873D01*
X148552136Y-96201223D01*
X148536807Y-96144012D01*
X148536804Y-96144006D01*
X148484083Y-96052691D01*
X148484081Y-96052689D01*
X148484080Y-96052687D01*
X147502613Y-95071220D01*
X147502610Y-95071218D01*
X147454876Y-95043658D01*
X147434373Y-95027926D01*
X147129409Y-94722962D01*
X147192993Y-94705925D01*
X147307007Y-94640099D01*
X147400099Y-94547007D01*
X147465925Y-94432993D01*
X147482962Y-94369408D01*
X148115270Y-95001716D01*
X148154620Y-94947556D01*
X148251095Y-94758215D01*
X148316759Y-94556121D01*
X148350000Y-94346250D01*
X148350000Y-94133749D01*
X148316759Y-93923878D01*
X148251095Y-93721784D01*
X148154623Y-93532446D01*
X148154619Y-93532440D01*
X148115270Y-93478282D01*
X148115269Y-93478282D01*
X147482962Y-94110589D01*
X147465925Y-94047007D01*
X147400099Y-93932993D01*
X147307007Y-93839901D01*
X147192993Y-93774075D01*
X147129407Y-93757037D01*
X147761716Y-93124729D01*
X147761716Y-93124728D01*
X147707559Y-93085380D01*
X147707553Y-93085376D01*
X147518215Y-92988904D01*
X147427015Y-92959272D01*
X147377515Y-92923308D01*
X147358608Y-92865117D01*
X147377515Y-92806926D01*
X147427013Y-92770962D01*
X147427017Y-92770962D01*
X147427018Y-92770962D01*
X147441633Y-92766213D01*
X147441633Y-92766212D01*
X147441639Y-92766211D01*
X147602994Y-92683996D01*
X147749501Y-92577553D01*
X147877553Y-92449501D01*
X147983996Y-92302994D01*
X148066211Y-92141639D01*
X148122171Y-91969409D01*
X148142204Y-91842924D01*
X148150500Y-91790549D01*
X148150500Y-91609450D01*
X148122171Y-91430593D01*
X148122171Y-91430591D01*
X148066211Y-91258361D01*
X147983996Y-91097006D01*
X147877553Y-90950499D01*
X147749501Y-90822447D01*
X147602994Y-90716004D01*
X147602993Y-90716003D01*
X147602991Y-90716002D01*
X147441637Y-90633788D01*
X147269406Y-90577828D01*
X147090549Y-90549500D01*
X147090546Y-90549500D01*
X146909454Y-90549500D01*
X146909451Y-90549500D01*
X146730593Y-90577828D01*
X146558362Y-90633788D01*
X146393540Y-90717770D01*
X146392691Y-90716103D01*
X146340017Y-90728741D01*
X146283492Y-90705317D01*
X146251532Y-90653143D01*
X146248800Y-90630047D01*
X146248800Y-90229952D01*
X146267707Y-90171761D01*
X146317207Y-90135797D01*
X146378393Y-90135797D01*
X146393310Y-90142681D01*
X146393540Y-90142230D01*
X146397006Y-90143996D01*
X146558361Y-90226211D01*
X146730591Y-90282171D01*
X146802136Y-90293502D01*
X146909451Y-90310500D01*
X146909454Y-90310500D01*
X147090549Y-90310500D01*
X147179977Y-90296335D01*
X147269409Y-90282171D01*
X147441639Y-90226211D01*
X147602994Y-90143996D01*
X147749501Y-90037553D01*
X147877553Y-89909501D01*
X147983996Y-89762994D01*
X148066211Y-89601639D01*
X148122171Y-89429409D01*
X148149168Y-89258957D01*
X148150500Y-89250549D01*
X148150500Y-89069450D01*
X148130190Y-88941223D01*
X148122171Y-88890591D01*
X148066211Y-88718361D01*
X147983996Y-88557006D01*
X147877553Y-88410499D01*
X147749501Y-88282447D01*
X147602994Y-88176004D01*
X147602993Y-88176003D01*
X147602991Y-88176002D01*
X147441637Y-88093788D01*
X147269406Y-88037828D01*
X147090549Y-88009500D01*
X147090546Y-88009500D01*
X146909454Y-88009500D01*
X146909451Y-88009500D01*
X146730593Y-88037828D01*
X146558362Y-88093788D01*
X146397008Y-88176002D01*
X146339341Y-88217900D01*
X146250499Y-88282447D01*
X146122447Y-88410499D01*
X146116494Y-88418693D01*
X146016002Y-88557008D01*
X145996144Y-88595981D01*
X145952878Y-88639245D01*
X145892446Y-88648815D01*
X145837931Y-88621038D01*
X144834578Y-87617685D01*
X142671013Y-85454120D01*
X142671010Y-85454118D01*
X142671008Y-85454116D01*
X142579691Y-85401394D01*
X142579693Y-85401394D01*
X142532353Y-85388710D01*
X142477827Y-85374100D01*
X142477825Y-85374100D01*
X142385000Y-85374100D01*
X142326809Y-85355193D01*
X142314996Y-85345104D01*
X140943641Y-83973749D01*
X145650000Y-83973749D01*
X145650000Y-84186250D01*
X145683240Y-84396121D01*
X145748904Y-84598215D01*
X145845376Y-84787553D01*
X145845380Y-84787559D01*
X145884728Y-84841716D01*
X145884729Y-84841716D01*
X146517037Y-84209407D01*
X146534075Y-84272993D01*
X146599901Y-84387007D01*
X146692993Y-84480099D01*
X146807007Y-84545925D01*
X146870589Y-84562962D01*
X146238282Y-85195269D01*
X146238282Y-85195270D01*
X146292440Y-85234619D01*
X146292446Y-85234623D01*
X146481786Y-85331096D01*
X146572983Y-85360727D01*
X146622483Y-85396691D01*
X146641391Y-85454881D01*
X146622484Y-85513072D01*
X146572988Y-85549035D01*
X146558366Y-85553786D01*
X146558364Y-85553787D01*
X146397008Y-85636002D01*
X146360891Y-85662243D01*
X146250499Y-85742447D01*
X146122447Y-85870499D01*
X146106312Y-85892707D01*
X146016002Y-86017008D01*
X145933788Y-86178362D01*
X145877828Y-86350593D01*
X145849500Y-86529450D01*
X145849500Y-86710549D01*
X145877828Y-86889406D01*
X145933788Y-87061637D01*
X146011769Y-87214684D01*
X146016004Y-87222994D01*
X146122447Y-87369501D01*
X146250499Y-87497553D01*
X146397006Y-87603996D01*
X146558361Y-87686211D01*
X146730591Y-87742171D01*
X146780022Y-87750000D01*
X146909451Y-87770500D01*
X146909454Y-87770500D01*
X147090549Y-87770500D01*
X147189388Y-87754845D01*
X147269409Y-87742171D01*
X147441639Y-87686211D01*
X147602994Y-87603996D01*
X147749501Y-87497553D01*
X147877553Y-87369501D01*
X147983996Y-87222994D01*
X148066211Y-87061639D01*
X148122171Y-86889409D01*
X148144927Y-86745734D01*
X148150500Y-86710549D01*
X148150500Y-86529450D01*
X148124118Y-86362885D01*
X148122171Y-86350591D01*
X148066211Y-86178361D01*
X147983996Y-86017006D01*
X147877553Y-85870499D01*
X147749501Y-85742447D01*
X147602994Y-85636004D01*
X147602993Y-85636003D01*
X147602991Y-85636002D01*
X147441637Y-85553788D01*
X147427013Y-85549036D01*
X147377514Y-85513071D01*
X147358608Y-85454880D01*
X147377517Y-85396689D01*
X147427016Y-85360727D01*
X147518213Y-85331096D01*
X147707556Y-85234620D01*
X147761716Y-85195270D01*
X147129408Y-84562962D01*
X147192993Y-84545925D01*
X147307007Y-84480099D01*
X147400099Y-84387007D01*
X147465925Y-84272993D01*
X147482962Y-84209408D01*
X148115270Y-84841716D01*
X148154620Y-84787556D01*
X148251095Y-84598215D01*
X148316759Y-84396121D01*
X148350000Y-84186250D01*
X148350000Y-83973749D01*
X148316759Y-83763878D01*
X148251095Y-83561784D01*
X148154623Y-83372446D01*
X148154619Y-83372440D01*
X148115270Y-83318282D01*
X148115269Y-83318282D01*
X147482962Y-83950589D01*
X147465925Y-83887007D01*
X147400099Y-83772993D01*
X147307007Y-83679901D01*
X147192993Y-83614075D01*
X147129407Y-83597037D01*
X147761716Y-82964729D01*
X147761716Y-82964728D01*
X147707559Y-82925380D01*
X147707553Y-82925376D01*
X147518215Y-82828904D01*
X147427015Y-82799272D01*
X147377515Y-82763308D01*
X147358608Y-82705117D01*
X147377515Y-82646926D01*
X147427013Y-82610962D01*
X147427017Y-82610962D01*
X147427018Y-82610962D01*
X147441633Y-82606213D01*
X147441633Y-82606212D01*
X147441639Y-82606211D01*
X147602994Y-82523996D01*
X147749501Y-82417553D01*
X147877553Y-82289501D01*
X147983996Y-82142994D01*
X148066211Y-81981639D01*
X148122171Y-81809409D01*
X148136335Y-81719977D01*
X148150500Y-81630549D01*
X148150500Y-81449450D01*
X148122171Y-81270593D01*
X148122171Y-81270591D01*
X148066211Y-81098361D01*
X147983996Y-80937006D01*
X147877553Y-80790499D01*
X147749501Y-80662447D01*
X147602994Y-80556004D01*
X147602993Y-80556003D01*
X147602991Y-80556002D01*
X147441637Y-80473788D01*
X147269406Y-80417828D01*
X147090549Y-80389500D01*
X147090546Y-80389500D01*
X146909454Y-80389500D01*
X146909451Y-80389500D01*
X146730593Y-80417828D01*
X146558362Y-80473788D01*
X146397008Y-80556002D01*
X146323752Y-80609225D01*
X146250499Y-80662447D01*
X146122447Y-80790499D01*
X146090764Y-80834107D01*
X146016002Y-80937008D01*
X145933788Y-81098362D01*
X145877828Y-81270593D01*
X145849500Y-81449450D01*
X145849500Y-81630549D01*
X145877828Y-81809406D01*
X145933788Y-81981637D01*
X146006043Y-82123446D01*
X146016004Y-82142994D01*
X146122447Y-82289501D01*
X146250499Y-82417553D01*
X146397006Y-82523996D01*
X146558361Y-82606211D01*
X146569099Y-82609700D01*
X146572983Y-82610962D01*
X146622483Y-82646926D01*
X146641391Y-82705116D01*
X146622484Y-82763307D01*
X146572985Y-82799271D01*
X146572984Y-82799272D01*
X146481784Y-82828904D01*
X146292446Y-82925376D01*
X146292442Y-82925378D01*
X146238282Y-82964728D01*
X146870591Y-83597037D01*
X146807007Y-83614075D01*
X146692993Y-83679901D01*
X146599901Y-83772993D01*
X146534075Y-83887007D01*
X146517037Y-83950591D01*
X145884728Y-83318282D01*
X145845378Y-83372442D01*
X145845376Y-83372446D01*
X145748904Y-83561784D01*
X145683240Y-83763878D01*
X145650000Y-83973749D01*
X140943641Y-83973749D01*
X140388365Y-83418473D01*
X139339777Y-82369884D01*
X139312001Y-82315369D01*
X139321572Y-82254937D01*
X139364837Y-82211672D01*
X139378642Y-82205907D01*
X139519124Y-82159356D01*
X139668340Y-82067319D01*
X139792319Y-81943340D01*
X139884356Y-81794124D01*
X139939506Y-81627693D01*
X139950000Y-81524987D01*
X139950000Y-81250001D01*
X139949999Y-81250000D01*
X139049000Y-81250000D01*
X138990809Y-81231093D01*
X138954845Y-81181593D01*
X138950000Y-81151000D01*
X138950000Y-81000001D01*
X138949999Y-81000000D01*
X138799000Y-81000000D01*
X138740809Y-80981093D01*
X138704845Y-80931593D01*
X138700000Y-80901000D01*
X138700000Y-79775001D01*
X139200000Y-79775001D01*
X139200000Y-80749999D01*
X139200001Y-80750000D01*
X139949998Y-80750000D01*
X139949999Y-80749999D01*
X139949999Y-80475013D01*
X139939507Y-80372312D01*
X139939504Y-80372300D01*
X139884356Y-80205875D01*
X139792319Y-80056659D01*
X139668340Y-79932680D01*
X139519124Y-79840643D01*
X139352693Y-79785493D01*
X139249987Y-79775000D01*
X139200001Y-79775000D01*
X139200000Y-79775001D01*
X138700000Y-79775001D01*
X138700000Y-79774999D01*
X138650015Y-79775000D01*
X138650012Y-79775001D01*
X138547312Y-79785492D01*
X138547295Y-79785496D01*
X138530636Y-79791016D01*
X138469451Y-79791370D01*
X138419745Y-79755692D01*
X138400502Y-79697612D01*
X138400500Y-79697040D01*
X138400500Y-78832643D01*
X138419407Y-78774452D01*
X138429490Y-78762645D01*
X138480520Y-78711616D01*
X138559577Y-78574684D01*
X138600500Y-78421957D01*
X138600500Y-78263843D01*
X138559577Y-78111116D01*
X138556122Y-78105132D01*
X145849500Y-78105132D01*
X145849500Y-79894860D01*
X145849501Y-79894863D01*
X145852414Y-79919990D01*
X145865039Y-79948582D01*
X145897794Y-80022765D01*
X145977235Y-80102206D01*
X146080009Y-80147585D01*
X146105135Y-80150500D01*
X147894864Y-80150499D01*
X147919991Y-80147585D01*
X148022765Y-80102206D01*
X148102206Y-80022765D01*
X148147585Y-79919991D01*
X148150500Y-79894865D01*
X148150499Y-78105136D01*
X148147585Y-78080009D01*
X148102206Y-77977235D01*
X148022765Y-77897794D01*
X147919991Y-77852415D01*
X147919990Y-77852414D01*
X147919988Y-77852414D01*
X147894868Y-77849500D01*
X146105139Y-77849500D01*
X146105136Y-77849501D01*
X146080009Y-77852414D01*
X145977235Y-77897794D01*
X145897794Y-77977235D01*
X145852414Y-78080011D01*
X145849501Y-78105122D01*
X145849500Y-78105132D01*
X138556122Y-78105132D01*
X138480520Y-77974184D01*
X138368716Y-77862380D01*
X138231784Y-77783323D01*
X138079057Y-77742400D01*
X137920943Y-77742400D01*
X137769470Y-77782987D01*
X137768216Y-77783323D01*
X137631284Y-77862380D01*
X137519478Y-77974186D01*
X137464535Y-78069351D01*
X137419066Y-78110292D01*
X137358216Y-78116688D01*
X137305228Y-78086095D01*
X137293065Y-78069354D01*
X137281420Y-78049184D01*
X137169616Y-77937380D01*
X137032684Y-77858323D01*
X136879957Y-77817400D01*
X136721843Y-77817400D01*
X136575221Y-77856686D01*
X136514121Y-77853484D01*
X136466572Y-77814979D01*
X136450600Y-77761060D01*
X136450600Y-67055674D01*
X136450600Y-67055673D01*
X136429095Y-66975413D01*
X136429095Y-66975412D01*
X136429095Y-66975411D01*
X136423306Y-66953810D01*
X136423305Y-66953808D01*
X136370583Y-66862491D01*
X136370581Y-66862489D01*
X136370580Y-66862487D01*
X135047613Y-65539520D01*
X135047610Y-65539518D01*
X135047608Y-65539516D01*
X134956291Y-65486794D01*
X134956292Y-65486794D01*
X134873876Y-65464711D01*
X134822561Y-65431387D01*
X134804903Y-65398283D01*
X134800499Y-65384015D01*
X134800499Y-65365136D01*
X134797585Y-65340009D01*
X134762128Y-65259708D01*
X134760428Y-65254198D01*
X134760798Y-65229092D01*
X134758251Y-65204118D01*
X134761305Y-65194716D01*
X134761331Y-65193019D01*
X134762260Y-65191778D01*
X134764457Y-65185018D01*
X134797585Y-65109991D01*
X134800500Y-65084865D01*
X134800499Y-64095136D01*
X134797585Y-64070009D01*
X134764460Y-63994987D01*
X134758251Y-63934118D01*
X134764457Y-63915018D01*
X134797585Y-63839991D01*
X134800500Y-63814865D01*
X134800499Y-62825136D01*
X134797585Y-62800009D01*
X134764460Y-62724987D01*
X134758251Y-62664118D01*
X134764457Y-62645018D01*
X134797585Y-62569991D01*
X134800500Y-62544865D01*
X134800499Y-61555136D01*
X134797585Y-61530009D01*
X134790603Y-61514196D01*
X134764460Y-61454987D01*
X134758251Y-61394118D01*
X134764457Y-61375018D01*
X134797585Y-61299991D01*
X134800500Y-61274865D01*
X134800499Y-60285136D01*
X134797585Y-60260009D01*
X134764460Y-60184987D01*
X134758251Y-60124118D01*
X134764457Y-60105018D01*
X134797585Y-60029991D01*
X134800500Y-60004865D01*
X134800499Y-59139181D01*
X134819406Y-59080991D01*
X134840171Y-59059928D01*
X134857186Y-59047190D01*
X134857192Y-59047184D01*
X134943352Y-58932090D01*
X134943353Y-58932088D01*
X134993596Y-58797381D01*
X134993598Y-58797370D01*
X135000000Y-58737824D01*
X135000000Y-58490001D01*
X134999999Y-58490000D01*
X132500001Y-58490000D01*
X132500000Y-58490001D01*
X132500000Y-58737824D01*
X132499999Y-58737824D01*
X132506401Y-58797370D01*
X132506403Y-58797381D01*
X132556646Y-58932088D01*
X132556647Y-58932090D01*
X132642807Y-59047184D01*
X132642816Y-59047193D01*
X132659827Y-59059927D01*
X132695081Y-59109935D01*
X132699500Y-59139181D01*
X132699500Y-59596398D01*
X132680593Y-59654589D01*
X132670504Y-59666402D01*
X130958417Y-61378490D01*
X130958416Y-61378491D01*
X130905693Y-61469811D01*
X130905692Y-61469811D01*
X130905693Y-61469812D01*
X130878400Y-61571673D01*
X130878400Y-63239325D01*
X130879247Y-63245758D01*
X130876577Y-63246109D01*
X130873956Y-63295862D01*
X130851546Y-63330359D01*
X128734617Y-65447290D01*
X128734616Y-65447291D01*
X128681893Y-65538611D01*
X128681892Y-65538611D01*
X128681893Y-65538612D01*
X128654600Y-65640473D01*
X128654600Y-74008956D01*
X128635693Y-74067147D01*
X128625604Y-74078959D01*
X128574582Y-74129981D01*
X128574580Y-74129983D01*
X128574580Y-74129984D01*
X128495523Y-74266916D01*
X128454600Y-74419643D01*
X128454600Y-74577757D01*
X128472388Y-74644143D01*
X128495523Y-74730485D01*
X128536235Y-74801001D01*
X128548956Y-74860849D01*
X128524069Y-74916745D01*
X128471080Y-74947337D01*
X128450498Y-74949500D01*
X127680139Y-74949500D01*
X127680136Y-74949501D01*
X127655009Y-74952414D01*
X127579987Y-74985540D01*
X127519117Y-74991748D01*
X127500015Y-74985541D01*
X127424991Y-74952415D01*
X127424990Y-74952414D01*
X127424988Y-74952414D01*
X127399868Y-74949500D01*
X126410139Y-74949500D01*
X126410136Y-74949501D01*
X126385009Y-74952414D01*
X126309987Y-74985540D01*
X126249117Y-74991748D01*
X126230015Y-74985541D01*
X126154991Y-74952415D01*
X126154990Y-74952414D01*
X126154988Y-74952414D01*
X126129868Y-74949500D01*
X125140139Y-74949500D01*
X125140136Y-74949501D01*
X125115009Y-74952414D01*
X125039987Y-74985540D01*
X124979117Y-74991748D01*
X124960015Y-74985541D01*
X124884991Y-74952415D01*
X124884990Y-74952414D01*
X124884988Y-74952414D01*
X124859868Y-74949500D01*
X123870139Y-74949500D01*
X123870136Y-74949501D01*
X123845009Y-74952414D01*
X123769987Y-74985540D01*
X123709117Y-74991748D01*
X123690015Y-74985541D01*
X123614991Y-74952415D01*
X123614990Y-74952414D01*
X123614988Y-74952414D01*
X123589868Y-74949500D01*
X122600139Y-74949500D01*
X122600136Y-74949501D01*
X122575009Y-74952414D01*
X122499987Y-74985540D01*
X122439117Y-74991748D01*
X122420015Y-74985541D01*
X122344991Y-74952415D01*
X122344990Y-74952414D01*
X122344988Y-74952414D01*
X122319868Y-74949500D01*
X121330139Y-74949500D01*
X121330136Y-74949501D01*
X121305009Y-74952414D01*
X121229987Y-74985540D01*
X121169117Y-74991748D01*
X121150015Y-74985541D01*
X121074991Y-74952415D01*
X121074990Y-74952414D01*
X121074988Y-74952414D01*
X121049868Y-74949500D01*
X120060139Y-74949500D01*
X120060136Y-74949501D01*
X120035009Y-74952414D01*
X119959987Y-74985540D01*
X119899117Y-74991748D01*
X119880015Y-74985541D01*
X119804991Y-74952415D01*
X119804990Y-74952414D01*
X119804988Y-74952414D01*
X119779869Y-74949500D01*
X119779865Y-74949500D01*
X119693966Y-74949500D01*
X119635775Y-74930593D01*
X119599811Y-74881093D01*
X119598339Y-74824878D01*
X119604400Y-74802257D01*
X119604400Y-74644144D01*
X119604212Y-74643443D01*
X119563477Y-74491416D01*
X119484420Y-74354484D01*
X119459757Y-74329821D01*
X119433396Y-74303459D01*
X119405619Y-74248942D01*
X119404400Y-74233456D01*
X119404400Y-62429474D01*
X119404400Y-62429473D01*
X119377107Y-62327613D01*
X119324380Y-62236287D01*
X119249813Y-62161719D01*
X119249813Y-62161720D01*
X117871268Y-60783175D01*
X117843491Y-60728658D01*
X117853062Y-60668226D01*
X117871268Y-60643167D01*
X117873713Y-60640721D01*
X117873716Y-60640720D01*
X117985520Y-60528916D01*
X118064577Y-60391984D01*
X118105500Y-60239257D01*
X118105500Y-60081143D01*
X118064577Y-59928416D01*
X117985520Y-59791484D01*
X117985517Y-59791481D01*
X117934497Y-59740460D01*
X117906720Y-59685943D01*
X117905501Y-59670457D01*
X117905501Y-59660572D01*
X117905500Y-59660570D01*
X117903897Y-59654589D01*
X117878207Y-59558713D01*
X117825480Y-59467387D01*
X117750913Y-59392820D01*
X117750911Y-59392819D01*
X117745269Y-59387176D01*
X117745265Y-59387173D01*
X117547613Y-59189519D01*
X117456291Y-59136794D01*
X117450296Y-59134311D01*
X117451113Y-59132336D01*
X117407848Y-59104237D01*
X117385923Y-59047115D01*
X117401760Y-58988015D01*
X117405535Y-58982607D01*
X117443352Y-58932091D01*
X117443353Y-58932088D01*
X117493596Y-58797381D01*
X117493598Y-58797370D01*
X117500000Y-58737824D01*
X117500000Y-58490001D01*
X117499999Y-58490000D01*
X115000001Y-58490000D01*
X115000000Y-58490001D01*
X115000000Y-58737824D01*
X114999999Y-58737824D01*
X115006401Y-58797370D01*
X115006403Y-58797381D01*
X115056646Y-58932088D01*
X115056647Y-58932090D01*
X115142807Y-59047184D01*
X115142816Y-59047193D01*
X115159827Y-59059927D01*
X115195081Y-59109935D01*
X115199500Y-59139181D01*
X115199500Y-60004860D01*
X115199501Y-60004863D01*
X115202414Y-60029990D01*
X115235540Y-60105012D01*
X115241748Y-60165882D01*
X115235540Y-60184987D01*
X115202415Y-60260009D01*
X115202414Y-60260011D01*
X115199500Y-60285130D01*
X115199500Y-61274860D01*
X115199501Y-61274863D01*
X115202414Y-61299990D01*
X115235540Y-61375012D01*
X115235992Y-61379450D01*
X115238668Y-61383021D01*
X115237977Y-61398910D01*
X115241748Y-61435882D01*
X115239571Y-61444199D01*
X115237868Y-61449713D01*
X115202415Y-61530009D01*
X115199500Y-61555135D01*
X115199500Y-61574015D01*
X115195096Y-61588283D01*
X115185658Y-61601684D01*
X115180593Y-61617275D01*
X115168483Y-61626072D01*
X115159867Y-61638309D01*
X115144355Y-61643603D01*
X115131093Y-61653239D01*
X115126124Y-61654710D01*
X115043713Y-61676792D01*
X115043709Y-61676794D01*
X114952387Y-61729519D01*
X114877819Y-61804086D01*
X114877820Y-61804087D01*
X100669504Y-76012403D01*
X100614987Y-76040180D01*
X100554555Y-76030609D01*
X100511290Y-75987344D01*
X100500500Y-75942399D01*
X100500500Y-57742175D01*
X115000000Y-57742175D01*
X115000000Y-57989999D01*
X115000001Y-57990000D01*
X115999999Y-57990000D01*
X116000000Y-57989999D01*
X116000000Y-57290001D01*
X116500000Y-57290001D01*
X116500000Y-57989999D01*
X116500001Y-57990000D01*
X117499999Y-57990000D01*
X117500000Y-57989999D01*
X117500000Y-57742175D01*
X132500000Y-57742175D01*
X132500000Y-57989999D01*
X132500001Y-57990000D01*
X133499999Y-57990000D01*
X133500000Y-57989999D01*
X133500000Y-57290001D01*
X134000000Y-57290001D01*
X134000000Y-57989999D01*
X134000001Y-57990000D01*
X134999999Y-57990000D01*
X135000000Y-57989999D01*
X135000000Y-57742175D01*
X134993598Y-57682629D01*
X134993596Y-57682618D01*
X134943353Y-57547911D01*
X134943352Y-57547909D01*
X134857192Y-57432815D01*
X134857184Y-57432807D01*
X134742090Y-57346647D01*
X134742088Y-57346646D01*
X134607381Y-57296403D01*
X134607370Y-57296401D01*
X134547824Y-57290000D01*
X134000001Y-57290000D01*
X134000000Y-57290001D01*
X133500000Y-57290001D01*
X133499999Y-57290000D01*
X132952176Y-57290000D01*
X132892629Y-57296401D01*
X132892618Y-57296403D01*
X132757911Y-57346646D01*
X132757909Y-57346647D01*
X132642815Y-57432807D01*
X132642807Y-57432815D01*
X132556647Y-57547909D01*
X132556646Y-57547911D01*
X132506403Y-57682618D01*
X132506401Y-57682629D01*
X132500000Y-57742175D01*
X117500000Y-57742175D01*
X117493598Y-57682629D01*
X117493596Y-57682618D01*
X117443353Y-57547911D01*
X117443352Y-57547909D01*
X117357192Y-57432815D01*
X117357184Y-57432807D01*
X117242090Y-57346647D01*
X117242088Y-57346646D01*
X117107381Y-57296403D01*
X117107370Y-57296401D01*
X117047824Y-57290000D01*
X116500001Y-57290000D01*
X116500000Y-57290001D01*
X116000000Y-57290001D01*
X115999999Y-57290000D01*
X115452176Y-57290000D01*
X115392629Y-57296401D01*
X115392618Y-57296403D01*
X115257911Y-57346646D01*
X115257909Y-57346647D01*
X115142815Y-57432807D01*
X115142807Y-57432815D01*
X115056647Y-57547909D01*
X115056646Y-57547911D01*
X115006403Y-57682618D01*
X115006401Y-57682629D01*
X115000000Y-57742175D01*
X100500500Y-57742175D01*
X100500500Y-50599500D01*
X100519407Y-50541309D01*
X100568907Y-50505345D01*
X100599500Y-50500500D01*
X100901000Y-50500500D01*
X100959191Y-50519407D01*
G37*
%TD.AperFunction*%
%TA.AperFunction,Conductor*%
G36*
X115324063Y-78065807D02*
G01*
X115360027Y-78115307D01*
X115361946Y-78169793D01*
X115352897Y-78206178D01*
X115350000Y-78248884D01*
X115350000Y-78449999D01*
X115350001Y-78450000D01*
X116751000Y-78450000D01*
X116809191Y-78468907D01*
X116845155Y-78518407D01*
X116850000Y-78549000D01*
X116850000Y-78851000D01*
X116831093Y-78909191D01*
X116781593Y-78945155D01*
X116751000Y-78950000D01*
X115350001Y-78950000D01*
X115350000Y-78950001D01*
X115350000Y-79151115D01*
X115352897Y-79193821D01*
X115352896Y-79193821D01*
X115398831Y-79378522D01*
X115483391Y-79549023D01*
X115483393Y-79549026D01*
X115602631Y-79697364D01*
X115602635Y-79697368D01*
X115750973Y-79816606D01*
X115750976Y-79816608D01*
X115867134Y-79874217D01*
X115910865Y-79917010D01*
X115921090Y-79977335D01*
X115893905Y-80032149D01*
X115874364Y-80047630D01*
X115805348Y-80089351D01*
X115689349Y-80205350D01*
X115604490Y-80345724D01*
X115604485Y-80345736D01*
X115555686Y-80502337D01*
X115555684Y-80502343D01*
X115549500Y-80570400D01*
X115549500Y-81429599D01*
X115555684Y-81497656D01*
X115555686Y-81497662D01*
X115604485Y-81654263D01*
X115604490Y-81654275D01*
X115689349Y-81794649D01*
X115689350Y-81794650D01*
X115689352Y-81794653D01*
X115805347Y-81910648D01*
X115805349Y-81910649D01*
X115805350Y-81910650D01*
X115945724Y-81995509D01*
X115945727Y-81995510D01*
X115945730Y-81995512D01*
X115945734Y-81995513D01*
X115945736Y-81995514D01*
X115975937Y-82004925D01*
X116102343Y-82044315D01*
X116170406Y-82050500D01*
X116170412Y-82050500D01*
X117529588Y-82050500D01*
X117529594Y-82050500D01*
X117597657Y-82044315D01*
X117754270Y-81995512D01*
X117894653Y-81910648D01*
X118010648Y-81794653D01*
X118086002Y-81670001D01*
X118132283Y-81629988D01*
X118193249Y-81624818D01*
X118240725Y-81651217D01*
X119129204Y-82539696D01*
X119156981Y-82594213D01*
X119158200Y-82609700D01*
X119158200Y-83418473D01*
X119158200Y-83523927D01*
X119173280Y-83580207D01*
X119185494Y-83625792D01*
X119238216Y-83717108D01*
X119238218Y-83717110D01*
X119238220Y-83717113D01*
X121245505Y-85724398D01*
X121273281Y-85778913D01*
X121274500Y-85794400D01*
X121274500Y-86493106D01*
X121285123Y-86581565D01*
X121340637Y-86722339D01*
X121340638Y-86722341D01*
X121340639Y-86722342D01*
X121432078Y-86842922D01*
X121552658Y-86934361D01*
X121552659Y-86934361D01*
X121552660Y-86934362D01*
X121604723Y-86954893D01*
X121693436Y-86989877D01*
X121781898Y-87000500D01*
X121781900Y-87000500D01*
X122393100Y-87000500D01*
X122393102Y-87000500D01*
X122481564Y-86989877D01*
X122622342Y-86934361D01*
X122626001Y-86931585D01*
X122683787Y-86911486D01*
X122742355Y-86929192D01*
X122779330Y-86977941D01*
X122781452Y-87036087D01*
X122757593Y-87125132D01*
X122744300Y-87174743D01*
X122744300Y-87332857D01*
X122785223Y-87485584D01*
X122864280Y-87622516D01*
X122976084Y-87734320D01*
X123113016Y-87813377D01*
X123265743Y-87854300D01*
X123265745Y-87854300D01*
X123340299Y-87854300D01*
X123398490Y-87873207D01*
X123434454Y-87922707D01*
X123434454Y-87983893D01*
X123410303Y-88023304D01*
X122208004Y-89225603D01*
X122153487Y-89253380D01*
X122093055Y-89243809D01*
X122049790Y-89200544D01*
X122039000Y-89155599D01*
X122039000Y-89100844D01*
X122017043Y-89018900D01*
X121998077Y-88948116D01*
X121919020Y-88811184D01*
X121807216Y-88699380D01*
X121670284Y-88620323D01*
X121517557Y-88579400D01*
X121359443Y-88579400D01*
X121206716Y-88620323D01*
X121069784Y-88699380D01*
X120957980Y-88811184D01*
X120935453Y-88850201D01*
X120920074Y-88864048D01*
X120907909Y-88880793D01*
X120897846Y-88884062D01*
X120889985Y-88891141D01*
X120849718Y-88899700D01*
X120770842Y-88899700D01*
X120712651Y-88880793D01*
X120676687Y-88831293D01*
X120675215Y-88775079D01*
X120677899Y-88765059D01*
X120677900Y-88765056D01*
X120677900Y-88606944D01*
X120675908Y-88599510D01*
X120636977Y-88454216D01*
X120557920Y-88317284D01*
X120446116Y-88205480D01*
X120309184Y-88126423D01*
X120156457Y-88085500D01*
X120156455Y-88085500D01*
X120084300Y-88085500D01*
X120026109Y-88066593D01*
X120014296Y-88056504D01*
X119330690Y-87372898D01*
X119302913Y-87318381D01*
X119312484Y-87257949D01*
X119355749Y-87214684D01*
X119369554Y-87208919D01*
X119519124Y-87159356D01*
X119668340Y-87067319D01*
X119792319Y-86943340D01*
X119884356Y-86794124D01*
X119939506Y-86627693D01*
X119950000Y-86524987D01*
X119950000Y-86250001D01*
X119949999Y-86250000D01*
X119049000Y-86250000D01*
X118990809Y-86231093D01*
X118954845Y-86181593D01*
X118950000Y-86151000D01*
X118950000Y-86000001D01*
X118949999Y-86000000D01*
X118799000Y-86000000D01*
X118740809Y-85981093D01*
X118704845Y-85931593D01*
X118700000Y-85901000D01*
X118700000Y-84775001D01*
X119200000Y-84775001D01*
X119200000Y-85749999D01*
X119200001Y-85750000D01*
X119949998Y-85750000D01*
X119949999Y-85749999D01*
X119949999Y-85475013D01*
X119939507Y-85372312D01*
X119939504Y-85372300D01*
X119884356Y-85205875D01*
X119792319Y-85056659D01*
X119668340Y-84932680D01*
X119519124Y-84840643D01*
X119352693Y-84785493D01*
X119249987Y-84775000D01*
X119200001Y-84775000D01*
X119200000Y-84775001D01*
X118700000Y-84775001D01*
X118700000Y-84774999D01*
X118650015Y-84775000D01*
X118650012Y-84775001D01*
X118547312Y-84785492D01*
X118547300Y-84785495D01*
X118380875Y-84840643D01*
X118231659Y-84932680D01*
X118107680Y-85056659D01*
X118015643Y-85205874D01*
X117987508Y-85290780D01*
X117951256Y-85340070D01*
X117892956Y-85358637D01*
X117834876Y-85339391D01*
X117801437Y-85295959D01*
X117784361Y-85252658D01*
X117692922Y-85132078D01*
X117572342Y-85040639D01*
X117572341Y-85040638D01*
X117572339Y-85040637D01*
X117431565Y-84985123D01*
X117343106Y-84974500D01*
X117343102Y-84974500D01*
X116756898Y-84974500D01*
X116756893Y-84974500D01*
X116668434Y-84985123D01*
X116527660Y-85040637D01*
X116527656Y-85040640D01*
X116407081Y-85132075D01*
X116407075Y-85132081D01*
X116315640Y-85252656D01*
X116315637Y-85252660D01*
X116260123Y-85393434D01*
X116249500Y-85481893D01*
X116249500Y-85500500D01*
X116230593Y-85558691D01*
X116181093Y-85594655D01*
X116150500Y-85599500D01*
X114824294Y-85599500D01*
X114815356Y-85596596D01*
X114806036Y-85597802D01*
X114786870Y-85587340D01*
X114766103Y-85580593D01*
X114760578Y-85572989D01*
X114752330Y-85568487D01*
X114745007Y-85551557D01*
X114730139Y-85531093D01*
X114726112Y-85513203D01*
X114725500Y-85508472D01*
X114725500Y-85506898D01*
X114714877Y-85418436D01*
X114713349Y-85414561D01*
X114712018Y-85404272D01*
X114712476Y-85401829D01*
X114711200Y-85391569D01*
X114711200Y-84252243D01*
X114730107Y-84194052D01*
X114740190Y-84182245D01*
X114791220Y-84131216D01*
X114870277Y-83994284D01*
X114911200Y-83841557D01*
X114911200Y-83683443D01*
X114911199Y-83683442D01*
X114910353Y-83677011D01*
X114912344Y-83676748D01*
X114915066Y-83624822D01*
X114953572Y-83577272D01*
X115007491Y-83561300D01*
X115450500Y-83561300D01*
X115508691Y-83580207D01*
X115544655Y-83629707D01*
X115549500Y-83660300D01*
X115549500Y-83729599D01*
X115555684Y-83797656D01*
X115555686Y-83797662D01*
X115604485Y-83954263D01*
X115604490Y-83954275D01*
X115689349Y-84094649D01*
X115689350Y-84094650D01*
X115689352Y-84094653D01*
X115805347Y-84210648D01*
X115805349Y-84210649D01*
X115805350Y-84210650D01*
X115945724Y-84295509D01*
X115945727Y-84295510D01*
X115945730Y-84295512D01*
X115945734Y-84295513D01*
X115945736Y-84295514D01*
X115978286Y-84305657D01*
X116102343Y-84344315D01*
X116170406Y-84350500D01*
X116170412Y-84350500D01*
X117529588Y-84350500D01*
X117529594Y-84350500D01*
X117597657Y-84344315D01*
X117754270Y-84295512D01*
X117894653Y-84210648D01*
X118010648Y-84094653D01*
X118095512Y-83954270D01*
X118144315Y-83797657D01*
X118150500Y-83729594D01*
X118150500Y-82870406D01*
X118144315Y-82802343D01*
X118095885Y-82646926D01*
X118095514Y-82645736D01*
X118095509Y-82645724D01*
X118010650Y-82505350D01*
X118010649Y-82505349D01*
X118010648Y-82505347D01*
X117894653Y-82389352D01*
X117894650Y-82389350D01*
X117894649Y-82389349D01*
X117754275Y-82304490D01*
X117754263Y-82304485D01*
X117597662Y-82255686D01*
X117597656Y-82255684D01*
X117529599Y-82249500D01*
X117529594Y-82249500D01*
X116170406Y-82249500D01*
X116170400Y-82249500D01*
X116102343Y-82255684D01*
X116102337Y-82255686D01*
X115945736Y-82304485D01*
X115945724Y-82304490D01*
X115805350Y-82389349D01*
X115689349Y-82505350D01*
X115604490Y-82645724D01*
X115604484Y-82645738D01*
X115590458Y-82690752D01*
X115555096Y-82740683D01*
X115497138Y-82760293D01*
X115495941Y-82760300D01*
X114417701Y-82760300D01*
X114359510Y-82741393D01*
X114347697Y-82731304D01*
X114010396Y-82394003D01*
X113982619Y-82339486D01*
X113992190Y-82279054D01*
X114035455Y-82235789D01*
X114080400Y-82224999D01*
X114249986Y-82224999D01*
X114352687Y-82214507D01*
X114352699Y-82214504D01*
X114519124Y-82159356D01*
X114668340Y-82067319D01*
X114792319Y-81943340D01*
X114884356Y-81794124D01*
X114939506Y-81627693D01*
X114950000Y-81524987D01*
X114950000Y-81250001D01*
X114949999Y-81250000D01*
X114049000Y-81250000D01*
X113990809Y-81231093D01*
X113954845Y-81181593D01*
X113950000Y-81151000D01*
X113950000Y-81000001D01*
X113949999Y-81000000D01*
X113799000Y-81000000D01*
X113740809Y-80981093D01*
X113704845Y-80931593D01*
X113700000Y-80901000D01*
X113700000Y-79775001D01*
X114200000Y-79775001D01*
X114200000Y-80749999D01*
X114200001Y-80750000D01*
X114949998Y-80750000D01*
X114949999Y-80749999D01*
X114949999Y-80475013D01*
X114939507Y-80372312D01*
X114939504Y-80372300D01*
X114884356Y-80205875D01*
X114792319Y-80056659D01*
X114668340Y-79932680D01*
X114519124Y-79840643D01*
X114352693Y-79785493D01*
X114249987Y-79775000D01*
X114200001Y-79775000D01*
X114200000Y-79775001D01*
X113700000Y-79775001D01*
X113700000Y-79774999D01*
X113650015Y-79775000D01*
X113650012Y-79775001D01*
X113547312Y-79785492D01*
X113547300Y-79785495D01*
X113380875Y-79840643D01*
X113231659Y-79932680D01*
X113107680Y-80056659D01*
X113015643Y-80205874D01*
X112987508Y-80290780D01*
X112951256Y-80340070D01*
X112892956Y-80358637D01*
X112834876Y-80339391D01*
X112801437Y-80295959D01*
X112784361Y-80252658D01*
X112692922Y-80132078D01*
X112572342Y-80040639D01*
X112572341Y-80040638D01*
X112572339Y-80040637D01*
X112431566Y-79985123D01*
X112341395Y-79974294D01*
X112285874Y-79948582D01*
X112256069Y-79895147D01*
X112263365Y-79834398D01*
X112283193Y-79805999D01*
X114013297Y-78075896D01*
X114067814Y-78048119D01*
X114083301Y-78046900D01*
X115265872Y-78046900D01*
X115324063Y-78065807D01*
G37*
%TD.AperFunction*%
%TA.AperFunction,Conductor*%
G36*
X125208691Y-81419407D02*
G01*
X125244655Y-81468907D01*
X125249500Y-81499500D01*
X125249500Y-81518106D01*
X125260123Y-81606565D01*
X125315637Y-81747339D01*
X125315638Y-81747341D01*
X125315639Y-81747342D01*
X125407078Y-81867922D01*
X125527658Y-81959361D01*
X125527659Y-81959361D01*
X125527660Y-81959362D01*
X125584146Y-81981637D01*
X125668436Y-82014877D01*
X125756898Y-82025500D01*
X125756900Y-82025500D01*
X126343100Y-82025500D01*
X126343102Y-82025500D01*
X126431564Y-82014877D01*
X126572342Y-81959361D01*
X126692922Y-81867922D01*
X126784361Y-81747342D01*
X126801436Y-81704040D01*
X126840371Y-81656845D01*
X126899613Y-81641547D01*
X126956533Y-81663992D01*
X126987508Y-81709219D01*
X127015643Y-81794125D01*
X127107680Y-81943340D01*
X127231659Y-82067319D01*
X127380875Y-82159356D01*
X127547306Y-82214506D01*
X127587499Y-82218613D01*
X127643467Y-82243337D01*
X127674213Y-82296236D01*
X127667995Y-82357104D01*
X127627186Y-82402692D01*
X127577437Y-82416100D01*
X127043173Y-82416100D01*
X126941313Y-82443393D01*
X126941312Y-82443393D01*
X126941310Y-82443394D01*
X126941309Y-82443394D01*
X126849989Y-82496118D01*
X124366856Y-84979249D01*
X124312339Y-85007026D01*
X124285048Y-85007539D01*
X124218107Y-84999500D01*
X124218102Y-84999500D01*
X123606898Y-84999500D01*
X123606893Y-84999500D01*
X123518434Y-85010123D01*
X123377660Y-85065637D01*
X123377656Y-85065640D01*
X123257081Y-85157075D01*
X123257075Y-85157081D01*
X123165640Y-85277656D01*
X123165637Y-85277660D01*
X123110123Y-85418434D01*
X123099500Y-85506893D01*
X123099500Y-86493106D01*
X123110122Y-86581562D01*
X123115542Y-86595305D01*
X123116060Y-86603729D01*
X123120280Y-86611038D01*
X123117901Y-86633667D01*
X123119298Y-86656375D01*
X123114766Y-86663494D01*
X123113884Y-86671888D01*
X123098660Y-86688794D01*
X123086442Y-86707990D01*
X123072943Y-86717357D01*
X123012233Y-86752408D01*
X122952385Y-86765130D01*
X122896489Y-86740243D01*
X122865896Y-86687255D01*
X122870635Y-86630356D01*
X122889877Y-86581564D01*
X122900500Y-86493102D01*
X122900500Y-85506898D01*
X122889877Y-85418436D01*
X122858973Y-85340070D01*
X122834362Y-85277660D01*
X122834361Y-85277659D01*
X122834361Y-85277658D01*
X122742922Y-85157078D01*
X122622342Y-85065639D01*
X122622341Y-85065638D01*
X122622339Y-85065637D01*
X122617771Y-85063068D01*
X122576319Y-85018064D01*
X122567300Y-84976778D01*
X122567300Y-83299500D01*
X122586207Y-83241309D01*
X122635707Y-83205345D01*
X122666300Y-83200500D01*
X123694953Y-83200500D01*
X123694954Y-83200500D01*
X123694955Y-83200499D01*
X123694970Y-83200499D01*
X123829249Y-83185369D01*
X123829251Y-83185368D01*
X123829255Y-83185368D01*
X123999522Y-83125789D01*
X124152262Y-83029816D01*
X124279816Y-82902262D01*
X124375789Y-82749522D01*
X124435368Y-82579255D01*
X124435369Y-82579249D01*
X124450499Y-82444970D01*
X124450500Y-82444953D01*
X124450500Y-81499500D01*
X124469407Y-81441309D01*
X124518907Y-81405345D01*
X124549500Y-81400500D01*
X125150500Y-81400500D01*
X125208691Y-81419407D01*
G37*
%TD.AperFunction*%
%TA.AperFunction,Conductor*%
G36*
X115129716Y-66270056D02*
G01*
X115158602Y-66279364D01*
X115158677Y-66279466D01*
X115158801Y-66279507D01*
X115176819Y-66304307D01*
X115194689Y-66328774D01*
X115199501Y-66343460D01*
X115199501Y-66354864D01*
X115202415Y-66379991D01*
X115237525Y-66459508D01*
X115239054Y-66464174D01*
X115239117Y-66490094D01*
X115241748Y-66515882D01*
X115239192Y-66520276D01*
X115239205Y-66525360D01*
X115235540Y-66534987D01*
X115202415Y-66610009D01*
X115202414Y-66610011D01*
X115199500Y-66635130D01*
X115199500Y-67624860D01*
X115199501Y-67624863D01*
X115202414Y-67649990D01*
X115235540Y-67725012D01*
X115241748Y-67785882D01*
X115235540Y-67804987D01*
X115202415Y-67880009D01*
X115202414Y-67880011D01*
X115199500Y-67905130D01*
X115199500Y-68894860D01*
X115199501Y-68894863D01*
X115202414Y-68919990D01*
X115235540Y-68995012D01*
X115241748Y-69055882D01*
X115235540Y-69074987D01*
X115202415Y-69150009D01*
X115202414Y-69150011D01*
X115199500Y-69175130D01*
X115199500Y-70164860D01*
X115199501Y-70164863D01*
X115202414Y-70189990D01*
X115235540Y-70265012D01*
X115241748Y-70325882D01*
X115235540Y-70344987D01*
X115202415Y-70420009D01*
X115202414Y-70420011D01*
X115199500Y-70445130D01*
X115199500Y-71434860D01*
X115199501Y-71434863D01*
X115202414Y-71459990D01*
X115235540Y-71535012D01*
X115241748Y-71595882D01*
X115235540Y-71614987D01*
X115202415Y-71690009D01*
X115202414Y-71690011D01*
X115199500Y-71715130D01*
X115199500Y-72704860D01*
X115199501Y-72704863D01*
X115202414Y-72729990D01*
X115235540Y-72805012D01*
X115241748Y-72865882D01*
X115235540Y-72884987D01*
X115202415Y-72960009D01*
X115202414Y-72960011D01*
X115199500Y-72985130D01*
X115199500Y-73974860D01*
X115199501Y-73974863D01*
X115202414Y-73999990D01*
X115219893Y-74039576D01*
X115234191Y-74071958D01*
X115235540Y-74075012D01*
X115235992Y-74079449D01*
X115238668Y-74083020D01*
X115237977Y-74098910D01*
X115241748Y-74135882D01*
X115239571Y-74144199D01*
X115237868Y-74149713D01*
X115202415Y-74230009D01*
X115199500Y-74255135D01*
X115199500Y-74274016D01*
X115195096Y-74288284D01*
X115185658Y-74301685D01*
X115180593Y-74317276D01*
X115168483Y-74326073D01*
X115159867Y-74338310D01*
X115144355Y-74343604D01*
X115131093Y-74353240D01*
X115126138Y-74354707D01*
X115043713Y-74376793D01*
X115043712Y-74376793D01*
X115043710Y-74376794D01*
X115043709Y-74376794D01*
X114952389Y-74429518D01*
X114877818Y-74504089D01*
X114825094Y-74595409D01*
X114825094Y-74595410D01*
X114825093Y-74595412D01*
X114825093Y-74595413D01*
X114824673Y-74596983D01*
X114797800Y-74697274D01*
X114797800Y-75222256D01*
X114778893Y-75280447D01*
X114768804Y-75292259D01*
X114717782Y-75343281D01*
X114717780Y-75343283D01*
X114717780Y-75343284D01*
X114638723Y-75480216D01*
X114597800Y-75632943D01*
X114597800Y-75791057D01*
X114638723Y-75943784D01*
X114717780Y-76080716D01*
X114829584Y-76192520D01*
X114966516Y-76271577D01*
X115119243Y-76312500D01*
X115119245Y-76312500D01*
X115277355Y-76312500D01*
X115277357Y-76312500D01*
X115430084Y-76271577D01*
X115567016Y-76192520D01*
X115678820Y-76080716D01*
X115757877Y-75943784D01*
X115798800Y-75791057D01*
X115798800Y-75632943D01*
X115796704Y-75625120D01*
X115799907Y-75564020D01*
X115838412Y-75516470D01*
X115892331Y-75500499D01*
X117044861Y-75500499D01*
X117044864Y-75500499D01*
X117069991Y-75497585D01*
X117125512Y-75473069D01*
X117186380Y-75466861D01*
X117239274Y-75497616D01*
X117263989Y-75553588D01*
X117264500Y-75563634D01*
X117264500Y-76794860D01*
X117264501Y-76794863D01*
X117267414Y-76819990D01*
X117292756Y-76877385D01*
X117312794Y-76922765D01*
X117392235Y-77002206D01*
X117495009Y-77047585D01*
X117499143Y-77048064D01*
X117503411Y-77048560D01*
X117559035Y-77074048D01*
X117589054Y-77127363D01*
X117582002Y-77188141D01*
X117540573Y-77233166D01*
X117492001Y-77245900D01*
X113929127Y-77245900D01*
X113823673Y-77245900D01*
X113761329Y-77262604D01*
X113721807Y-77273194D01*
X113630491Y-77325916D01*
X110922216Y-80034191D01*
X110869495Y-80125507D01*
X110869492Y-80125515D01*
X110867733Y-80132076D01*
X110867734Y-80132077D01*
X110867734Y-80132078D01*
X110842200Y-80227373D01*
X110842200Y-85102473D01*
X110842200Y-85207927D01*
X110862770Y-85284698D01*
X110869494Y-85309792D01*
X110922216Y-85401108D01*
X110922220Y-85401113D01*
X111094250Y-85573143D01*
X111245503Y-85724395D01*
X111273281Y-85778912D01*
X111274500Y-85794399D01*
X111274500Y-86084900D01*
X111255593Y-86143091D01*
X111206093Y-86179055D01*
X111175500Y-86183900D01*
X110791300Y-86183900D01*
X110733109Y-86164993D01*
X110721296Y-86154904D01*
X104581196Y-80014803D01*
X104553419Y-79960286D01*
X104552200Y-79944799D01*
X104552200Y-78947274D01*
X104543101Y-78913315D01*
X104524907Y-78845413D01*
X104513019Y-78824823D01*
X104472181Y-78754089D01*
X104472180Y-78754087D01*
X104397613Y-78679520D01*
X104397610Y-78679518D01*
X104306290Y-78626794D01*
X104306287Y-78626793D01*
X104223875Y-78604711D01*
X104172561Y-78571386D01*
X104150635Y-78514265D01*
X104150499Y-78509084D01*
X104150499Y-78105139D01*
X104150499Y-78105136D01*
X104147585Y-78080009D01*
X104102206Y-77977235D01*
X104022765Y-77897794D01*
X103919991Y-77852415D01*
X103919990Y-77852414D01*
X103919988Y-77852414D01*
X103894869Y-77849500D01*
X103894865Y-77849500D01*
X102812400Y-77849500D01*
X102754209Y-77830593D01*
X102718245Y-77781093D01*
X102718245Y-77719907D01*
X102742396Y-77680496D01*
X114133296Y-66289596D01*
X114187813Y-66261819D01*
X114203300Y-66260600D01*
X115100610Y-66260600D01*
X115129716Y-66270056D01*
G37*
%TD.AperFunction*%
%TA.AperFunction,Conductor*%
G36*
X130018547Y-80391707D02*
G01*
X130030359Y-80401796D01*
X130062749Y-80434185D01*
X130081384Y-80452820D01*
X130218316Y-80531877D01*
X130371043Y-80572800D01*
X130371045Y-80572800D01*
X130529155Y-80572800D01*
X130529157Y-80572800D01*
X130681884Y-80531877D01*
X130818816Y-80452820D01*
X130818818Y-80452817D01*
X130824435Y-80449575D01*
X130825500Y-80451420D01*
X130874137Y-80434185D01*
X130932806Y-80451550D01*
X130946754Y-80463147D01*
X131220504Y-80736897D01*
X131248281Y-80791414D01*
X131249500Y-80806901D01*
X131249500Y-81518106D01*
X131260123Y-81606565D01*
X131315637Y-81747339D01*
X131315638Y-81747341D01*
X131315639Y-81747342D01*
X131407078Y-81867922D01*
X131527658Y-81959361D01*
X131527659Y-81959361D01*
X131527660Y-81959362D01*
X131584146Y-81981637D01*
X131668436Y-82014877D01*
X131756898Y-82025500D01*
X131756900Y-82025500D01*
X132343100Y-82025500D01*
X132343102Y-82025500D01*
X132431564Y-82014877D01*
X132572342Y-81959361D01*
X132692922Y-81867922D01*
X132784361Y-81747342D01*
X132801436Y-81704040D01*
X132840371Y-81656845D01*
X132899613Y-81641547D01*
X132956533Y-81663992D01*
X132987508Y-81709219D01*
X133015643Y-81794125D01*
X133107680Y-81943340D01*
X133231659Y-82067319D01*
X133380875Y-82159356D01*
X133499800Y-82198764D01*
X133506000Y-82203324D01*
X133513603Y-82204528D01*
X133530191Y-82221116D01*
X133549090Y-82235015D01*
X133551425Y-82242349D01*
X133556869Y-82247792D01*
X133560539Y-82270963D01*
X133567658Y-82293315D01*
X133565236Y-82300621D01*
X133566441Y-82308224D01*
X133555792Y-82329124D01*
X133548413Y-82351395D01*
X133538665Y-82362741D01*
X133514305Y-82387102D01*
X133459789Y-82414881D01*
X133444300Y-82416100D01*
X128322558Y-82416100D01*
X128264367Y-82397193D01*
X128228403Y-82347693D01*
X128228403Y-82286507D01*
X128264367Y-82237007D01*
X128312497Y-82218613D01*
X128352687Y-82214507D01*
X128352699Y-82214504D01*
X128519124Y-82159356D01*
X128668340Y-82067319D01*
X128792319Y-81943340D01*
X128884356Y-81794124D01*
X128939506Y-81627693D01*
X128950000Y-81524987D01*
X128950000Y-81250001D01*
X128949999Y-81250000D01*
X128049000Y-81250000D01*
X127990809Y-81231093D01*
X127954845Y-81181593D01*
X127950000Y-81151000D01*
X127950000Y-80849000D01*
X127968907Y-80790809D01*
X128018407Y-80754845D01*
X128049000Y-80750000D01*
X128949998Y-80750000D01*
X128949999Y-80749999D01*
X128949999Y-80472502D01*
X128951269Y-80472502D01*
X128965995Y-80417788D01*
X129013588Y-80379336D01*
X129048963Y-80372800D01*
X129960356Y-80372800D01*
X130018547Y-80391707D01*
G37*
%TD.AperFunction*%
%TA.AperFunction,Conductor*%
G36*
X132839287Y-75469479D02*
G01*
X132865092Y-75469479D01*
X132874474Y-75473064D01*
X132930009Y-75497585D01*
X132955135Y-75500500D01*
X134302200Y-75500499D01*
X134360391Y-75519406D01*
X134396355Y-75568906D01*
X134401200Y-75599499D01*
X134401200Y-79680819D01*
X134382293Y-79739010D01*
X134332793Y-79774974D01*
X134292139Y-79779306D01*
X134249989Y-79775000D01*
X134200001Y-79775000D01*
X134200000Y-79775001D01*
X134200000Y-80901000D01*
X134181093Y-80959191D01*
X134131593Y-80995155D01*
X134101000Y-81000000D01*
X133799000Y-81000000D01*
X133740809Y-80981093D01*
X133704845Y-80931593D01*
X133700000Y-80901000D01*
X133700000Y-79774999D01*
X133650015Y-79775000D01*
X133650012Y-79775001D01*
X133547312Y-79785492D01*
X133547300Y-79785495D01*
X133380875Y-79840643D01*
X133231659Y-79932680D01*
X133107680Y-80056659D01*
X133015643Y-80205874D01*
X132987508Y-80290780D01*
X132951256Y-80340070D01*
X132892956Y-80358637D01*
X132834876Y-80339391D01*
X132801437Y-80295959D01*
X132784361Y-80252658D01*
X132692922Y-80132078D01*
X132572342Y-80040639D01*
X132572341Y-80040638D01*
X132572339Y-80040637D01*
X132431565Y-79985123D01*
X132343106Y-79974500D01*
X132343102Y-79974500D01*
X131756898Y-79974500D01*
X131756893Y-79974500D01*
X131687664Y-79982813D01*
X131668436Y-79985123D01*
X131668435Y-79985123D01*
X131662134Y-79985880D01*
X131661949Y-79984345D01*
X131608460Y-79980769D01*
X131575263Y-79958869D01*
X131268213Y-79651820D01*
X131268208Y-79651816D01*
X131176891Y-79599094D01*
X131176893Y-79599094D01*
X131137370Y-79588504D01*
X131075027Y-79571800D01*
X131075025Y-79571800D01*
X130939844Y-79571800D01*
X130881653Y-79552893D01*
X130869841Y-79542804D01*
X130818818Y-79491782D01*
X130818816Y-79491780D01*
X130681884Y-79412723D01*
X130529157Y-79371800D01*
X130371043Y-79371800D01*
X130218316Y-79412723D01*
X130204434Y-79420738D01*
X130081381Y-79491782D01*
X130030359Y-79542804D01*
X129975842Y-79570581D01*
X129960356Y-79571800D01*
X129077182Y-79571800D01*
X129018991Y-79552893D01*
X128983027Y-79503393D01*
X128981742Y-79454345D01*
X128980553Y-79454189D01*
X128981400Y-79447756D01*
X128981400Y-79289644D01*
X128981400Y-79289643D01*
X128940477Y-79136916D01*
X128861420Y-78999984D01*
X128749616Y-78888180D01*
X128612684Y-78809123D01*
X128523076Y-78785112D01*
X128471762Y-78751788D01*
X128449836Y-78694667D01*
X128449700Y-78689486D01*
X128449700Y-78674444D01*
X128443286Y-78650507D01*
X128408777Y-78521716D01*
X128408774Y-78521711D01*
X128407725Y-78519177D01*
X128407570Y-78517215D01*
X128407097Y-78515448D01*
X128407424Y-78515360D01*
X128402921Y-78458180D01*
X128434888Y-78406010D01*
X128491415Y-78382593D01*
X128533338Y-78389232D01*
X128533348Y-78389197D01*
X128533689Y-78389288D01*
X128537077Y-78389825D01*
X128539611Y-78390874D01*
X128539616Y-78390877D01*
X128692343Y-78431800D01*
X128692345Y-78431800D01*
X128850455Y-78431800D01*
X128850457Y-78431800D01*
X129003184Y-78390877D01*
X129140116Y-78311820D01*
X129251920Y-78200016D01*
X129330977Y-78063084D01*
X129371900Y-77910357D01*
X129371900Y-77752243D01*
X129330977Y-77599516D01*
X129251920Y-77462584D01*
X129140116Y-77350780D01*
X129003184Y-77271723D01*
X128892572Y-77242084D01*
X128841258Y-77208760D01*
X128819332Y-77151639D01*
X128835168Y-77092538D01*
X128882718Y-77054033D01*
X128929605Y-77048118D01*
X128950135Y-77050500D01*
X129939864Y-77050499D01*
X129964991Y-77047585D01*
X130040012Y-77014459D01*
X130100881Y-77008251D01*
X130119978Y-77014455D01*
X130195009Y-77047585D01*
X130220135Y-77050500D01*
X131209864Y-77050499D01*
X131234991Y-77047585D01*
X131310012Y-77014459D01*
X131370881Y-77008251D01*
X131389978Y-77014455D01*
X131465009Y-77047585D01*
X131490135Y-77050500D01*
X132479864Y-77050499D01*
X132504991Y-77047585D01*
X132607765Y-77002206D01*
X132687206Y-76922765D01*
X132732585Y-76819991D01*
X132735500Y-76794865D01*
X132735499Y-75563633D01*
X132737108Y-75558680D01*
X132736010Y-75553589D01*
X132746431Y-75529986D01*
X132754406Y-75505443D01*
X132758620Y-75502380D01*
X132760724Y-75497617D01*
X132783028Y-75484647D01*
X132803906Y-75469479D01*
X132809115Y-75469479D01*
X132813617Y-75466861D01*
X132839287Y-75469479D01*
G37*
%TD.AperFunction*%
%TD*%
M02*
