%TF.GenerationSoftware,KiCad,Pcbnew,9.0.3-9.0.3-0~ubuntu22.04.1*%
%TF.CreationDate,2026-08-04T22:10:24+00:00*%
%TF.ProjectId,typoena-mainboard,7479706f-656e-4612-9d6d-61696e626f61,rev?*%
%TF.SameCoordinates,Original*%
%TF.FileFunction,Soldermask,Top*%
%TF.FilePolarity,Negative*%
%FSLAX46Y46*%
G04 Gerber Fmt 4.6, Leading zero omitted, Abs format (unit mm)*
G04 Created by KiCad (PCBNEW 9.0.3-9.0.3-0~ubuntu22.04.1) date 2026-08-04 22:10:24*
%MOMM*%
%LPD*%
G01*
G04 APERTURE LIST*
G04 Aperture macros list*
%AMRoundRect*
0 Rectangle with rounded corners*
0 $1 Rounding radius*
0 $2 $3 $4 $5 $6 $7 $8 $9 X,Y pos of 4 corners*
0 Add a 4 corners polygon primitive as box body*
4,1,4,$2,$3,$4,$5,$6,$7,$8,$9,$2,$3,0*
0 Add four circle primitives for the rounded corners*
1,1,$1+$1,$2,$3*
1,1,$1+$1,$4,$5*
1,1,$1+$1,$6,$7*
1,1,$1+$1,$8,$9*
0 Add four rect primitives between the rounded corners*
20,1,$1+$1,$2,$3,$4,$5,0*
20,1,$1+$1,$4,$5,$6,$7,0*
20,1,$1+$1,$6,$7,$8,$9,0*
20,1,$1+$1,$8,$9,$2,$3,0*%
G04 Aperture macros list end*
%ADD10R,1.700000X1.700000*%
%ADD11C,1.700000*%
%ADD12R,0.900000X1.700000*%
%ADD13RoundRect,0.250000X-0.250000X-0.475000X0.250000X-0.475000X0.250000X0.475000X-0.250000X0.475000X0*%
%ADD14RoundRect,0.150000X-0.587500X-0.150000X0.587500X-0.150000X0.587500X0.150000X-0.587500X0.150000X0*%
%ADD15RoundRect,0.250000X-0.262500X-0.450000X0.262500X-0.450000X0.262500X0.450000X-0.262500X0.450000X0*%
%ADD16RoundRect,0.225000X-0.225000X-0.375000X0.225000X-0.375000X0.225000X0.375000X-0.225000X0.375000X0*%
%ADD17R,1.500000X0.900000*%
%ADD18R,0.900000X1.500000*%
%ADD19C,0.600000*%
%ADD20R,3.900000X3.900000*%
%ADD21RoundRect,0.250000X-1.000000X-0.650000X1.000000X-0.650000X1.000000X0.650000X-1.000000X0.650000X0*%
%ADD22C,3.200000*%
%ADD23RoundRect,0.375000X-0.625000X-0.375000X0.625000X-0.375000X0.625000X0.375000X-0.625000X0.375000X0*%
%ADD24RoundRect,0.500000X-0.500000X-1.400000X0.500000X-1.400000X0.500000X1.400000X-0.500000X1.400000X0*%
G04 APERTURE END LIST*
D10*
%TO.C,J1*%
X103000000Y-79000000D03*
D11*
X103000000Y-81540000D03*
X103000000Y-84080000D03*
X103000000Y-86620000D03*
X103000000Y-89160000D03*
X103000000Y-91700000D03*
X103000000Y-94240000D03*
X103000000Y-96780000D03*
%TD*%
D12*
%TO.C,SW1*%
X103300000Y-102000000D03*
X106700000Y-102000000D03*
%TD*%
D13*
%TO.C,C1*%
X132050000Y-81000000D03*
X133950000Y-81000000D03*
%TD*%
D12*
%TO.C,SW2*%
X103300000Y-108000000D03*
X106700000Y-108000000D03*
%TD*%
D14*
%TO.C,Q2*%
X132062500Y-85050000D03*
X132062500Y-86950000D03*
X133937500Y-86000000D03*
%TD*%
D13*
%TO.C,C3*%
X117050000Y-86000000D03*
X118950000Y-86000000D03*
%TD*%
D15*
%TO.C,R6*%
X140087500Y-91000000D03*
X141912500Y-91000000D03*
%TD*%
%TO.C,R7*%
X117087500Y-96000000D03*
X118912500Y-96000000D03*
%TD*%
D10*
%TO.C,J3*%
X130000000Y-102000000D03*
D11*
X132540000Y-102000000D03*
%TD*%
D15*
%TO.C,R5*%
X135087500Y-91000000D03*
X136912500Y-91000000D03*
%TD*%
D14*
%TO.C,Q1*%
X127062500Y-85050000D03*
X127062500Y-86950000D03*
X128937500Y-86000000D03*
%TD*%
D15*
%TO.C,R1*%
X112087500Y-86000000D03*
X113912500Y-86000000D03*
%TD*%
D13*
%TO.C,C4*%
X112050000Y-81000000D03*
X113950000Y-81000000D03*
%TD*%
D16*
%TO.C,D1*%
X111350000Y-91000000D03*
X114650000Y-91000000D03*
%TD*%
D17*
%TO.C,U1*%
X116250000Y-58240000D03*
X116250000Y-59510000D03*
X116250000Y-60780000D03*
X116250000Y-62050000D03*
X116250000Y-63320000D03*
X116250000Y-64590000D03*
X116250000Y-65860000D03*
X116250000Y-67130000D03*
X116250000Y-68400000D03*
X116250000Y-69670000D03*
X116250000Y-70940000D03*
X116250000Y-72210000D03*
X116250000Y-73480000D03*
X116250000Y-74750000D03*
D18*
X118015000Y-76000000D03*
X119285000Y-76000000D03*
X120555000Y-76000000D03*
X121825000Y-76000000D03*
X123095000Y-76000000D03*
X124365000Y-76000000D03*
X125635000Y-76000000D03*
X126905000Y-76000000D03*
X128175000Y-76000000D03*
X129445000Y-76000000D03*
X130715000Y-76000000D03*
X131985000Y-76000000D03*
D17*
X133750000Y-74750000D03*
X133750000Y-73480000D03*
X133750000Y-72210000D03*
X133750000Y-70940000D03*
X133750000Y-69670000D03*
X133750000Y-68400000D03*
X133750000Y-67130000D03*
X133750000Y-65860000D03*
X133750000Y-64590000D03*
X133750000Y-63320000D03*
X133750000Y-62050000D03*
X133750000Y-60780000D03*
X133750000Y-59510000D03*
X133750000Y-58240000D03*
D19*
X122100000Y-65260000D03*
X122100000Y-66660000D03*
X122800000Y-64560000D03*
X122800000Y-65960000D03*
X122800000Y-67360000D03*
X123500000Y-65260000D03*
D20*
X123500000Y-65960000D03*
D19*
X123500000Y-66660000D03*
X124200000Y-64560000D03*
X124200000Y-65960000D03*
X124200000Y-67360000D03*
X124900000Y-65260000D03*
X124900000Y-66660000D03*
%TD*%
D21*
%TO.C,D2*%
X117000000Y-91000000D03*
X121000000Y-91000000D03*
%TD*%
D22*
%TO.C,MH1*%
X103500000Y-53500000D03*
%TD*%
D10*
%TO.C,J4*%
X137000000Y-102000000D03*
D11*
X139540000Y-102000000D03*
%TD*%
D13*
%TO.C,C7*%
X127050000Y-96000000D03*
X128950000Y-96000000D03*
%TD*%
%TO.C,C5*%
X126050000Y-81000000D03*
X127950000Y-81000000D03*
%TD*%
D14*
%TO.C,Q3*%
X137062500Y-85050000D03*
X137062500Y-86950000D03*
X138937500Y-86000000D03*
%TD*%
D15*
%TO.C,R2*%
X122087500Y-86000000D03*
X123912500Y-86000000D03*
%TD*%
D13*
%TO.C,C2*%
X137050000Y-81000000D03*
X138950000Y-81000000D03*
%TD*%
D15*
%TO.C,R4*%
X130087500Y-91000000D03*
X131912500Y-91000000D03*
%TD*%
D10*
%TO.C,J5*%
X130000000Y-108000000D03*
D11*
X132540000Y-108000000D03*
%TD*%
D15*
%TO.C,R8*%
X122087500Y-96000000D03*
X123912500Y-96000000D03*
%TD*%
D22*
%TO.C,MH2*%
X146500000Y-53500000D03*
%TD*%
D10*
%TO.C,J2*%
X112000000Y-102000000D03*
D11*
X114540000Y-102000000D03*
X117080000Y-102000000D03*
X119620000Y-102000000D03*
X122160000Y-102000000D03*
X124700000Y-102000000D03*
%TD*%
D15*
%TO.C,R3*%
X125087500Y-91000000D03*
X126912500Y-91000000D03*
%TD*%
D13*
%TO.C,C6*%
X112050000Y-96000000D03*
X113950000Y-96000000D03*
%TD*%
D22*
%TO.C,MH3*%
X103500000Y-116500000D03*
%TD*%
D23*
%TO.C,U2*%
X116850000Y-78700000D03*
X116850000Y-81000000D03*
D24*
X123150000Y-81000000D03*
D23*
X116850000Y-83300000D03*
%TD*%
D22*
%TO.C,MH4*%
X146500000Y-116500000D03*
%TD*%
D10*
%TO.C,J6*%
X147000000Y-79000000D03*
D11*
X147000000Y-81540000D03*
X147000000Y-84080000D03*
X147000000Y-86620000D03*
X147000000Y-89160000D03*
X147000000Y-91700000D03*
X147000000Y-94240000D03*
X147000000Y-96780000D03*
X147000000Y-99320000D03*
X147000000Y-101860000D03*
X147000000Y-104400000D03*
X147000000Y-106940000D03*
X147000000Y-109480000D03*
X147000000Y-112020000D03*
%TD*%
M02*
