%TF.GenerationSoftware,KiCad,Pcbnew,9.0.3-9.0.3-0~ubuntu22.04.1*%
%TF.CreationDate,2026-08-04T22:10:24+00:00*%
%TF.ProjectId,typoena-mainboard,7479706f-656e-4612-9d6d-61696e626f61,rev?*%
%TF.SameCoordinates,Original*%
%TF.FileFunction,Legend,Top*%
%TF.FilePolarity,Positive*%
%FSLAX46Y46*%
G04 Gerber Fmt 4.6, Leading zero omitted, Abs format (unit mm)*
G04 Created by KiCad (PCBNEW 9.0.3-9.0.3-0~ubuntu22.04.1) date 2026-08-04 22:10:24*
%MOMM*%
%LPD*%
G01*
G04 APERTURE LIST*
G04 Aperture macros list*
%AMRoundRect*
0 Rectangle with rounded corners*
0 $1 Rounding radius*
0 $2 $3 $4 $5 $6 $7 $8 $9 X,Y pos of 4 corners*
0 Add a 4 corners polygon primitive as box body*
4,1,4,$2,$3,$4,$5,$6,$7,$8,$9,$2,$3,0*
0 Add four circle primitives for the rounded corners*
1,1,$1+$1,$2,$3*
1,1,$1+$1,$4,$5*
1,1,$1+$1,$6,$7*
1,1,$1+$1,$8,$9*
0 Add four rect primitives between the rounded corners*
20,1,$1+$1,$2,$3,$4,$5,0*
20,1,$1+$1,$4,$5,$6,$7,0*
20,1,$1+$1,$6,$7,$8,$9,0*
20,1,$1+$1,$8,$9,$2,$3,0*%
G04 Aperture macros list end*
%ADD10C,0.150000*%
%ADD11C,0.120000*%
%ADD12R,1.700000X1.700000*%
%ADD13C,1.700000*%
%ADD14R,0.900000X1.700000*%
%ADD15RoundRect,0.250000X-0.250000X-0.475000X0.250000X-0.475000X0.250000X0.475000X-0.250000X0.475000X0*%
%ADD16RoundRect,0.150000X-0.587500X-0.150000X0.587500X-0.150000X0.587500X0.150000X-0.587500X0.150000X0*%
%ADD17RoundRect,0.250000X-0.262500X-0.450000X0.262500X-0.450000X0.262500X0.450000X-0.262500X0.450000X0*%
%ADD18RoundRect,0.225000X-0.225000X-0.375000X0.225000X-0.375000X0.225000X0.375000X-0.225000X0.375000X0*%
%ADD19R,1.500000X0.900000*%
%ADD20R,0.900000X1.500000*%
%ADD21C,0.600000*%
%ADD22R,3.900000X3.900000*%
%ADD23RoundRect,0.250000X-1.000000X-0.650000X1.000000X-0.650000X1.000000X0.650000X-1.000000X0.650000X0*%
%ADD24C,3.200000*%
%ADD25RoundRect,0.375000X-0.625000X-0.375000X0.625000X-0.375000X0.625000X0.375000X-0.625000X0.375000X0*%
%ADD26RoundRect,0.500000X-0.500000X-1.400000X0.500000X-1.400000X0.500000X1.400000X-0.500000X1.400000X0*%
G04 APERTURE END LIST*
D10*
X102666666Y-76074819D02*
X102666666Y-76789104D01*
X102666666Y-76789104D02*
X102619047Y-76931961D01*
X102619047Y-76931961D02*
X102523809Y-77027200D01*
X102523809Y-77027200D02*
X102380952Y-77074819D01*
X102380952Y-77074819D02*
X102285714Y-77074819D01*
X103666666Y-77074819D02*
X103095238Y-77074819D01*
X103380952Y-77074819D02*
X103380952Y-76074819D01*
X103380952Y-76074819D02*
X103285714Y-76217676D01*
X103285714Y-76217676D02*
X103190476Y-76312914D01*
X103190476Y-76312914D02*
X103095238Y-76360533D01*
X103666667Y-99907200D02*
X103809524Y-99954819D01*
X103809524Y-99954819D02*
X104047619Y-99954819D01*
X104047619Y-99954819D02*
X104142857Y-99907200D01*
X104142857Y-99907200D02*
X104190476Y-99859580D01*
X104190476Y-99859580D02*
X104238095Y-99764342D01*
X104238095Y-99764342D02*
X104238095Y-99669104D01*
X104238095Y-99669104D02*
X104190476Y-99573866D01*
X104190476Y-99573866D02*
X104142857Y-99526247D01*
X104142857Y-99526247D02*
X104047619Y-99478628D01*
X104047619Y-99478628D02*
X103857143Y-99431009D01*
X103857143Y-99431009D02*
X103761905Y-99383390D01*
X103761905Y-99383390D02*
X103714286Y-99335771D01*
X103714286Y-99335771D02*
X103666667Y-99240533D01*
X103666667Y-99240533D02*
X103666667Y-99145295D01*
X103666667Y-99145295D02*
X103714286Y-99050057D01*
X103714286Y-99050057D02*
X103761905Y-99002438D01*
X103761905Y-99002438D02*
X103857143Y-98954819D01*
X103857143Y-98954819D02*
X104095238Y-98954819D01*
X104095238Y-98954819D02*
X104238095Y-99002438D01*
X104571429Y-98954819D02*
X104809524Y-99954819D01*
X104809524Y-99954819D02*
X105000000Y-99240533D01*
X105000000Y-99240533D02*
X105190476Y-99954819D01*
X105190476Y-99954819D02*
X105428572Y-98954819D01*
X106333333Y-99954819D02*
X105761905Y-99954819D01*
X106047619Y-99954819D02*
X106047619Y-98954819D01*
X106047619Y-98954819D02*
X105952381Y-99097676D01*
X105952381Y-99097676D02*
X105857143Y-99192914D01*
X105857143Y-99192914D02*
X105761905Y-99240533D01*
X132833333Y-79679580D02*
X132785714Y-79727200D01*
X132785714Y-79727200D02*
X132642857Y-79774819D01*
X132642857Y-79774819D02*
X132547619Y-79774819D01*
X132547619Y-79774819D02*
X132404762Y-79727200D01*
X132404762Y-79727200D02*
X132309524Y-79631961D01*
X132309524Y-79631961D02*
X132261905Y-79536723D01*
X132261905Y-79536723D02*
X132214286Y-79346247D01*
X132214286Y-79346247D02*
X132214286Y-79203390D01*
X132214286Y-79203390D02*
X132261905Y-79012914D01*
X132261905Y-79012914D02*
X132309524Y-78917676D01*
X132309524Y-78917676D02*
X132404762Y-78822438D01*
X132404762Y-78822438D02*
X132547619Y-78774819D01*
X132547619Y-78774819D02*
X132642857Y-78774819D01*
X132642857Y-78774819D02*
X132785714Y-78822438D01*
X132785714Y-78822438D02*
X132833333Y-78870057D01*
X133785714Y-79774819D02*
X133214286Y-79774819D01*
X133500000Y-79774819D02*
X133500000Y-78774819D01*
X133500000Y-78774819D02*
X133404762Y-78917676D01*
X133404762Y-78917676D02*
X133309524Y-79012914D01*
X133309524Y-79012914D02*
X133214286Y-79060533D01*
X103666667Y-105907200D02*
X103809524Y-105954819D01*
X103809524Y-105954819D02*
X104047619Y-105954819D01*
X104047619Y-105954819D02*
X104142857Y-105907200D01*
X104142857Y-105907200D02*
X104190476Y-105859580D01*
X104190476Y-105859580D02*
X104238095Y-105764342D01*
X104238095Y-105764342D02*
X104238095Y-105669104D01*
X104238095Y-105669104D02*
X104190476Y-105573866D01*
X104190476Y-105573866D02*
X104142857Y-105526247D01*
X104142857Y-105526247D02*
X104047619Y-105478628D01*
X104047619Y-105478628D02*
X103857143Y-105431009D01*
X103857143Y-105431009D02*
X103761905Y-105383390D01*
X103761905Y-105383390D02*
X103714286Y-105335771D01*
X103714286Y-105335771D02*
X103666667Y-105240533D01*
X103666667Y-105240533D02*
X103666667Y-105145295D01*
X103666667Y-105145295D02*
X103714286Y-105050057D01*
X103714286Y-105050057D02*
X103761905Y-105002438D01*
X103761905Y-105002438D02*
X103857143Y-104954819D01*
X103857143Y-104954819D02*
X104095238Y-104954819D01*
X104095238Y-104954819D02*
X104238095Y-105002438D01*
X104571429Y-104954819D02*
X104809524Y-105954819D01*
X104809524Y-105954819D02*
X105000000Y-105240533D01*
X105000000Y-105240533D02*
X105190476Y-105954819D01*
X105190476Y-105954819D02*
X105428572Y-104954819D01*
X105761905Y-105050057D02*
X105809524Y-105002438D01*
X105809524Y-105002438D02*
X105904762Y-104954819D01*
X105904762Y-104954819D02*
X106142857Y-104954819D01*
X106142857Y-104954819D02*
X106238095Y-105002438D01*
X106238095Y-105002438D02*
X106285714Y-105050057D01*
X106285714Y-105050057D02*
X106333333Y-105145295D01*
X106333333Y-105145295D02*
X106333333Y-105240533D01*
X106333333Y-105240533D02*
X106285714Y-105383390D01*
X106285714Y-105383390D02*
X105714286Y-105954819D01*
X105714286Y-105954819D02*
X106333333Y-105954819D01*
X132904761Y-84150057D02*
X132809523Y-84102438D01*
X132809523Y-84102438D02*
X132714285Y-84007200D01*
X132714285Y-84007200D02*
X132571428Y-83864342D01*
X132571428Y-83864342D02*
X132476190Y-83816723D01*
X132476190Y-83816723D02*
X132380952Y-83816723D01*
X132428571Y-84054819D02*
X132333333Y-84007200D01*
X132333333Y-84007200D02*
X132238095Y-83911961D01*
X132238095Y-83911961D02*
X132190476Y-83721485D01*
X132190476Y-83721485D02*
X132190476Y-83388152D01*
X132190476Y-83388152D02*
X132238095Y-83197676D01*
X132238095Y-83197676D02*
X132333333Y-83102438D01*
X132333333Y-83102438D02*
X132428571Y-83054819D01*
X132428571Y-83054819D02*
X132619047Y-83054819D01*
X132619047Y-83054819D02*
X132714285Y-83102438D01*
X132714285Y-83102438D02*
X132809523Y-83197676D01*
X132809523Y-83197676D02*
X132857142Y-83388152D01*
X132857142Y-83388152D02*
X132857142Y-83721485D01*
X132857142Y-83721485D02*
X132809523Y-83911961D01*
X132809523Y-83911961D02*
X132714285Y-84007200D01*
X132714285Y-84007200D02*
X132619047Y-84054819D01*
X132619047Y-84054819D02*
X132428571Y-84054819D01*
X133238095Y-83150057D02*
X133285714Y-83102438D01*
X133285714Y-83102438D02*
X133380952Y-83054819D01*
X133380952Y-83054819D02*
X133619047Y-83054819D01*
X133619047Y-83054819D02*
X133714285Y-83102438D01*
X133714285Y-83102438D02*
X133761904Y-83150057D01*
X133761904Y-83150057D02*
X133809523Y-83245295D01*
X133809523Y-83245295D02*
X133809523Y-83340533D01*
X133809523Y-83340533D02*
X133761904Y-83483390D01*
X133761904Y-83483390D02*
X133190476Y-84054819D01*
X133190476Y-84054819D02*
X133809523Y-84054819D01*
X117833333Y-84679580D02*
X117785714Y-84727200D01*
X117785714Y-84727200D02*
X117642857Y-84774819D01*
X117642857Y-84774819D02*
X117547619Y-84774819D01*
X117547619Y-84774819D02*
X117404762Y-84727200D01*
X117404762Y-84727200D02*
X117309524Y-84631961D01*
X117309524Y-84631961D02*
X117261905Y-84536723D01*
X117261905Y-84536723D02*
X117214286Y-84346247D01*
X117214286Y-84346247D02*
X117214286Y-84203390D01*
X117214286Y-84203390D02*
X117261905Y-84012914D01*
X117261905Y-84012914D02*
X117309524Y-83917676D01*
X117309524Y-83917676D02*
X117404762Y-83822438D01*
X117404762Y-83822438D02*
X117547619Y-83774819D01*
X117547619Y-83774819D02*
X117642857Y-83774819D01*
X117642857Y-83774819D02*
X117785714Y-83822438D01*
X117785714Y-83822438D02*
X117833333Y-83870057D01*
X118166667Y-83774819D02*
X118785714Y-83774819D01*
X118785714Y-83774819D02*
X118452381Y-84155771D01*
X118452381Y-84155771D02*
X118595238Y-84155771D01*
X118595238Y-84155771D02*
X118690476Y-84203390D01*
X118690476Y-84203390D02*
X118738095Y-84251009D01*
X118738095Y-84251009D02*
X118785714Y-84346247D01*
X118785714Y-84346247D02*
X118785714Y-84584342D01*
X118785714Y-84584342D02*
X118738095Y-84679580D01*
X118738095Y-84679580D02*
X118690476Y-84727200D01*
X118690476Y-84727200D02*
X118595238Y-84774819D01*
X118595238Y-84774819D02*
X118309524Y-84774819D01*
X118309524Y-84774819D02*
X118214286Y-84727200D01*
X118214286Y-84727200D02*
X118166667Y-84679580D01*
X140833333Y-89804819D02*
X140500000Y-89328628D01*
X140261905Y-89804819D02*
X140261905Y-88804819D01*
X140261905Y-88804819D02*
X140642857Y-88804819D01*
X140642857Y-88804819D02*
X140738095Y-88852438D01*
X140738095Y-88852438D02*
X140785714Y-88900057D01*
X140785714Y-88900057D02*
X140833333Y-88995295D01*
X140833333Y-88995295D02*
X140833333Y-89138152D01*
X140833333Y-89138152D02*
X140785714Y-89233390D01*
X140785714Y-89233390D02*
X140738095Y-89281009D01*
X140738095Y-89281009D02*
X140642857Y-89328628D01*
X140642857Y-89328628D02*
X140261905Y-89328628D01*
X141690476Y-88804819D02*
X141500000Y-88804819D01*
X141500000Y-88804819D02*
X141404762Y-88852438D01*
X141404762Y-88852438D02*
X141357143Y-88900057D01*
X141357143Y-88900057D02*
X141261905Y-89042914D01*
X141261905Y-89042914D02*
X141214286Y-89233390D01*
X141214286Y-89233390D02*
X141214286Y-89614342D01*
X141214286Y-89614342D02*
X141261905Y-89709580D01*
X141261905Y-89709580D02*
X141309524Y-89757200D01*
X141309524Y-89757200D02*
X141404762Y-89804819D01*
X141404762Y-89804819D02*
X141595238Y-89804819D01*
X141595238Y-89804819D02*
X141690476Y-89757200D01*
X141690476Y-89757200D02*
X141738095Y-89709580D01*
X141738095Y-89709580D02*
X141785714Y-89614342D01*
X141785714Y-89614342D02*
X141785714Y-89376247D01*
X141785714Y-89376247D02*
X141738095Y-89281009D01*
X141738095Y-89281009D02*
X141690476Y-89233390D01*
X141690476Y-89233390D02*
X141595238Y-89185771D01*
X141595238Y-89185771D02*
X141404762Y-89185771D01*
X141404762Y-89185771D02*
X141309524Y-89233390D01*
X141309524Y-89233390D02*
X141261905Y-89281009D01*
X141261905Y-89281009D02*
X141214286Y-89376247D01*
X117833333Y-94804819D02*
X117500000Y-94328628D01*
X117261905Y-94804819D02*
X117261905Y-93804819D01*
X117261905Y-93804819D02*
X117642857Y-93804819D01*
X117642857Y-93804819D02*
X117738095Y-93852438D01*
X117738095Y-93852438D02*
X117785714Y-93900057D01*
X117785714Y-93900057D02*
X117833333Y-93995295D01*
X117833333Y-93995295D02*
X117833333Y-94138152D01*
X117833333Y-94138152D02*
X117785714Y-94233390D01*
X117785714Y-94233390D02*
X117738095Y-94281009D01*
X117738095Y-94281009D02*
X117642857Y-94328628D01*
X117642857Y-94328628D02*
X117261905Y-94328628D01*
X118166667Y-93804819D02*
X118833333Y-93804819D01*
X118833333Y-93804819D02*
X118404762Y-94804819D01*
X127074819Y-102333333D02*
X127789104Y-102333333D01*
X127789104Y-102333333D02*
X127931961Y-102380952D01*
X127931961Y-102380952D02*
X128027200Y-102476190D01*
X128027200Y-102476190D02*
X128074819Y-102619047D01*
X128074819Y-102619047D02*
X128074819Y-102714285D01*
X127074819Y-101952380D02*
X127074819Y-101333333D01*
X127074819Y-101333333D02*
X127455771Y-101666666D01*
X127455771Y-101666666D02*
X127455771Y-101523809D01*
X127455771Y-101523809D02*
X127503390Y-101428571D01*
X127503390Y-101428571D02*
X127551009Y-101380952D01*
X127551009Y-101380952D02*
X127646247Y-101333333D01*
X127646247Y-101333333D02*
X127884342Y-101333333D01*
X127884342Y-101333333D02*
X127979580Y-101380952D01*
X127979580Y-101380952D02*
X128027200Y-101428571D01*
X128027200Y-101428571D02*
X128074819Y-101523809D01*
X128074819Y-101523809D02*
X128074819Y-101809523D01*
X128074819Y-101809523D02*
X128027200Y-101904761D01*
X128027200Y-101904761D02*
X127979580Y-101952380D01*
X135833333Y-89804819D02*
X135500000Y-89328628D01*
X135261905Y-89804819D02*
X135261905Y-88804819D01*
X135261905Y-88804819D02*
X135642857Y-88804819D01*
X135642857Y-88804819D02*
X135738095Y-88852438D01*
X135738095Y-88852438D02*
X135785714Y-88900057D01*
X135785714Y-88900057D02*
X135833333Y-88995295D01*
X135833333Y-88995295D02*
X135833333Y-89138152D01*
X135833333Y-89138152D02*
X135785714Y-89233390D01*
X135785714Y-89233390D02*
X135738095Y-89281009D01*
X135738095Y-89281009D02*
X135642857Y-89328628D01*
X135642857Y-89328628D02*
X135261905Y-89328628D01*
X136738095Y-88804819D02*
X136261905Y-88804819D01*
X136261905Y-88804819D02*
X136214286Y-89281009D01*
X136214286Y-89281009D02*
X136261905Y-89233390D01*
X136261905Y-89233390D02*
X136357143Y-89185771D01*
X136357143Y-89185771D02*
X136595238Y-89185771D01*
X136595238Y-89185771D02*
X136690476Y-89233390D01*
X136690476Y-89233390D02*
X136738095Y-89281009D01*
X136738095Y-89281009D02*
X136785714Y-89376247D01*
X136785714Y-89376247D02*
X136785714Y-89614342D01*
X136785714Y-89614342D02*
X136738095Y-89709580D01*
X136738095Y-89709580D02*
X136690476Y-89757200D01*
X136690476Y-89757200D02*
X136595238Y-89804819D01*
X136595238Y-89804819D02*
X136357143Y-89804819D01*
X136357143Y-89804819D02*
X136261905Y-89757200D01*
X136261905Y-89757200D02*
X136214286Y-89709580D01*
X127904761Y-84150057D02*
X127809523Y-84102438D01*
X127809523Y-84102438D02*
X127714285Y-84007200D01*
X127714285Y-84007200D02*
X127571428Y-83864342D01*
X127571428Y-83864342D02*
X127476190Y-83816723D01*
X127476190Y-83816723D02*
X127380952Y-83816723D01*
X127428571Y-84054819D02*
X127333333Y-84007200D01*
X127333333Y-84007200D02*
X127238095Y-83911961D01*
X127238095Y-83911961D02*
X127190476Y-83721485D01*
X127190476Y-83721485D02*
X127190476Y-83388152D01*
X127190476Y-83388152D02*
X127238095Y-83197676D01*
X127238095Y-83197676D02*
X127333333Y-83102438D01*
X127333333Y-83102438D02*
X127428571Y-83054819D01*
X127428571Y-83054819D02*
X127619047Y-83054819D01*
X127619047Y-83054819D02*
X127714285Y-83102438D01*
X127714285Y-83102438D02*
X127809523Y-83197676D01*
X127809523Y-83197676D02*
X127857142Y-83388152D01*
X127857142Y-83388152D02*
X127857142Y-83721485D01*
X127857142Y-83721485D02*
X127809523Y-83911961D01*
X127809523Y-83911961D02*
X127714285Y-84007200D01*
X127714285Y-84007200D02*
X127619047Y-84054819D01*
X127619047Y-84054819D02*
X127428571Y-84054819D01*
X128809523Y-84054819D02*
X128238095Y-84054819D01*
X128523809Y-84054819D02*
X128523809Y-83054819D01*
X128523809Y-83054819D02*
X128428571Y-83197676D01*
X128428571Y-83197676D02*
X128333333Y-83292914D01*
X128333333Y-83292914D02*
X128238095Y-83340533D01*
X112833333Y-84804819D02*
X112500000Y-84328628D01*
X112261905Y-84804819D02*
X112261905Y-83804819D01*
X112261905Y-83804819D02*
X112642857Y-83804819D01*
X112642857Y-83804819D02*
X112738095Y-83852438D01*
X112738095Y-83852438D02*
X112785714Y-83900057D01*
X112785714Y-83900057D02*
X112833333Y-83995295D01*
X112833333Y-83995295D02*
X112833333Y-84138152D01*
X112833333Y-84138152D02*
X112785714Y-84233390D01*
X112785714Y-84233390D02*
X112738095Y-84281009D01*
X112738095Y-84281009D02*
X112642857Y-84328628D01*
X112642857Y-84328628D02*
X112261905Y-84328628D01*
X113785714Y-84804819D02*
X113214286Y-84804819D01*
X113500000Y-84804819D02*
X113500000Y-83804819D01*
X113500000Y-83804819D02*
X113404762Y-83947676D01*
X113404762Y-83947676D02*
X113309524Y-84042914D01*
X113309524Y-84042914D02*
X113214286Y-84090533D01*
X112833333Y-79679580D02*
X112785714Y-79727200D01*
X112785714Y-79727200D02*
X112642857Y-79774819D01*
X112642857Y-79774819D02*
X112547619Y-79774819D01*
X112547619Y-79774819D02*
X112404762Y-79727200D01*
X112404762Y-79727200D02*
X112309524Y-79631961D01*
X112309524Y-79631961D02*
X112261905Y-79536723D01*
X112261905Y-79536723D02*
X112214286Y-79346247D01*
X112214286Y-79346247D02*
X112214286Y-79203390D01*
X112214286Y-79203390D02*
X112261905Y-79012914D01*
X112261905Y-79012914D02*
X112309524Y-78917676D01*
X112309524Y-78917676D02*
X112404762Y-78822438D01*
X112404762Y-78822438D02*
X112547619Y-78774819D01*
X112547619Y-78774819D02*
X112642857Y-78774819D01*
X112642857Y-78774819D02*
X112785714Y-78822438D01*
X112785714Y-78822438D02*
X112833333Y-78870057D01*
X113690476Y-79108152D02*
X113690476Y-79774819D01*
X113452381Y-78727200D02*
X113214286Y-79441485D01*
X113214286Y-79441485D02*
X113833333Y-79441485D01*
X112261905Y-89454819D02*
X112261905Y-88454819D01*
X112261905Y-88454819D02*
X112500000Y-88454819D01*
X112500000Y-88454819D02*
X112642857Y-88502438D01*
X112642857Y-88502438D02*
X112738095Y-88597676D01*
X112738095Y-88597676D02*
X112785714Y-88692914D01*
X112785714Y-88692914D02*
X112833333Y-88883390D01*
X112833333Y-88883390D02*
X112833333Y-89026247D01*
X112833333Y-89026247D02*
X112785714Y-89216723D01*
X112785714Y-89216723D02*
X112738095Y-89311961D01*
X112738095Y-89311961D02*
X112642857Y-89407200D01*
X112642857Y-89407200D02*
X112500000Y-89454819D01*
X112500000Y-89454819D02*
X112261905Y-89454819D01*
X113785714Y-89454819D02*
X113214286Y-89454819D01*
X113500000Y-89454819D02*
X113500000Y-88454819D01*
X113500000Y-88454819D02*
X113404762Y-88597676D01*
X113404762Y-88597676D02*
X113309524Y-88692914D01*
X113309524Y-88692914D02*
X113214286Y-88740533D01*
X113954819Y-75661904D02*
X114764342Y-75661904D01*
X114764342Y-75661904D02*
X114859580Y-75614285D01*
X114859580Y-75614285D02*
X114907200Y-75566666D01*
X114907200Y-75566666D02*
X114954819Y-75471428D01*
X114954819Y-75471428D02*
X114954819Y-75280952D01*
X114954819Y-75280952D02*
X114907200Y-75185714D01*
X114907200Y-75185714D02*
X114859580Y-75138095D01*
X114859580Y-75138095D02*
X114764342Y-75090476D01*
X114764342Y-75090476D02*
X113954819Y-75090476D01*
X114954819Y-74090476D02*
X114954819Y-74661904D01*
X114954819Y-74376190D02*
X113954819Y-74376190D01*
X113954819Y-74376190D02*
X114097676Y-74471428D01*
X114097676Y-74471428D02*
X114192914Y-74566666D01*
X114192914Y-74566666D02*
X114240533Y-74661904D01*
X118261905Y-88954819D02*
X118261905Y-87954819D01*
X118261905Y-87954819D02*
X118500000Y-87954819D01*
X118500000Y-87954819D02*
X118642857Y-88002438D01*
X118642857Y-88002438D02*
X118738095Y-88097676D01*
X118738095Y-88097676D02*
X118785714Y-88192914D01*
X118785714Y-88192914D02*
X118833333Y-88383390D01*
X118833333Y-88383390D02*
X118833333Y-88526247D01*
X118833333Y-88526247D02*
X118785714Y-88716723D01*
X118785714Y-88716723D02*
X118738095Y-88811961D01*
X118738095Y-88811961D02*
X118642857Y-88907200D01*
X118642857Y-88907200D02*
X118500000Y-88954819D01*
X118500000Y-88954819D02*
X118261905Y-88954819D01*
X119214286Y-88050057D02*
X119261905Y-88002438D01*
X119261905Y-88002438D02*
X119357143Y-87954819D01*
X119357143Y-87954819D02*
X119595238Y-87954819D01*
X119595238Y-87954819D02*
X119690476Y-88002438D01*
X119690476Y-88002438D02*
X119738095Y-88050057D01*
X119738095Y-88050057D02*
X119785714Y-88145295D01*
X119785714Y-88145295D02*
X119785714Y-88240533D01*
X119785714Y-88240533D02*
X119738095Y-88383390D01*
X119738095Y-88383390D02*
X119166667Y-88954819D01*
X119166667Y-88954819D02*
X119785714Y-88954819D01*
X101806666Y-54079726D02*
X101806666Y-52809726D01*
X101806666Y-52809726D02*
X102230000Y-53716869D01*
X102230000Y-53716869D02*
X102653333Y-52809726D01*
X102653333Y-52809726D02*
X102653333Y-54079726D01*
X103258095Y-54079726D02*
X103258095Y-52809726D01*
X103258095Y-53414488D02*
X103983810Y-53414488D01*
X103983810Y-54079726D02*
X103983810Y-52809726D01*
X105253810Y-54079726D02*
X104528095Y-54079726D01*
X104890952Y-54079726D02*
X104890952Y-52809726D01*
X104890952Y-52809726D02*
X104770000Y-52991154D01*
X104770000Y-52991154D02*
X104649048Y-53112107D01*
X104649048Y-53112107D02*
X104528095Y-53172583D01*
X134074819Y-102333333D02*
X134789104Y-102333333D01*
X134789104Y-102333333D02*
X134931961Y-102380952D01*
X134931961Y-102380952D02*
X135027200Y-102476190D01*
X135027200Y-102476190D02*
X135074819Y-102619047D01*
X135074819Y-102619047D02*
X135074819Y-102714285D01*
X134408152Y-101428571D02*
X135074819Y-101428571D01*
X134027200Y-101666666D02*
X134741485Y-101904761D01*
X134741485Y-101904761D02*
X134741485Y-101285714D01*
X127833333Y-94679580D02*
X127785714Y-94727200D01*
X127785714Y-94727200D02*
X127642857Y-94774819D01*
X127642857Y-94774819D02*
X127547619Y-94774819D01*
X127547619Y-94774819D02*
X127404762Y-94727200D01*
X127404762Y-94727200D02*
X127309524Y-94631961D01*
X127309524Y-94631961D02*
X127261905Y-94536723D01*
X127261905Y-94536723D02*
X127214286Y-94346247D01*
X127214286Y-94346247D02*
X127214286Y-94203390D01*
X127214286Y-94203390D02*
X127261905Y-94012914D01*
X127261905Y-94012914D02*
X127309524Y-93917676D01*
X127309524Y-93917676D02*
X127404762Y-93822438D01*
X127404762Y-93822438D02*
X127547619Y-93774819D01*
X127547619Y-93774819D02*
X127642857Y-93774819D01*
X127642857Y-93774819D02*
X127785714Y-93822438D01*
X127785714Y-93822438D02*
X127833333Y-93870057D01*
X128166667Y-93774819D02*
X128833333Y-93774819D01*
X128833333Y-93774819D02*
X128404762Y-94774819D01*
X126833333Y-79679580D02*
X126785714Y-79727200D01*
X126785714Y-79727200D02*
X126642857Y-79774819D01*
X126642857Y-79774819D02*
X126547619Y-79774819D01*
X126547619Y-79774819D02*
X126404762Y-79727200D01*
X126404762Y-79727200D02*
X126309524Y-79631961D01*
X126309524Y-79631961D02*
X126261905Y-79536723D01*
X126261905Y-79536723D02*
X126214286Y-79346247D01*
X126214286Y-79346247D02*
X126214286Y-79203390D01*
X126214286Y-79203390D02*
X126261905Y-79012914D01*
X126261905Y-79012914D02*
X126309524Y-78917676D01*
X126309524Y-78917676D02*
X126404762Y-78822438D01*
X126404762Y-78822438D02*
X126547619Y-78774819D01*
X126547619Y-78774819D02*
X126642857Y-78774819D01*
X126642857Y-78774819D02*
X126785714Y-78822438D01*
X126785714Y-78822438D02*
X126833333Y-78870057D01*
X127738095Y-78774819D02*
X127261905Y-78774819D01*
X127261905Y-78774819D02*
X127214286Y-79251009D01*
X127214286Y-79251009D02*
X127261905Y-79203390D01*
X127261905Y-79203390D02*
X127357143Y-79155771D01*
X127357143Y-79155771D02*
X127595238Y-79155771D01*
X127595238Y-79155771D02*
X127690476Y-79203390D01*
X127690476Y-79203390D02*
X127738095Y-79251009D01*
X127738095Y-79251009D02*
X127785714Y-79346247D01*
X127785714Y-79346247D02*
X127785714Y-79584342D01*
X127785714Y-79584342D02*
X127738095Y-79679580D01*
X127738095Y-79679580D02*
X127690476Y-79727200D01*
X127690476Y-79727200D02*
X127595238Y-79774819D01*
X127595238Y-79774819D02*
X127357143Y-79774819D01*
X127357143Y-79774819D02*
X127261905Y-79727200D01*
X127261905Y-79727200D02*
X127214286Y-79679580D01*
X137904761Y-84150057D02*
X137809523Y-84102438D01*
X137809523Y-84102438D02*
X137714285Y-84007200D01*
X137714285Y-84007200D02*
X137571428Y-83864342D01*
X137571428Y-83864342D02*
X137476190Y-83816723D01*
X137476190Y-83816723D02*
X137380952Y-83816723D01*
X137428571Y-84054819D02*
X137333333Y-84007200D01*
X137333333Y-84007200D02*
X137238095Y-83911961D01*
X137238095Y-83911961D02*
X137190476Y-83721485D01*
X137190476Y-83721485D02*
X137190476Y-83388152D01*
X137190476Y-83388152D02*
X137238095Y-83197676D01*
X137238095Y-83197676D02*
X137333333Y-83102438D01*
X137333333Y-83102438D02*
X137428571Y-83054819D01*
X137428571Y-83054819D02*
X137619047Y-83054819D01*
X137619047Y-83054819D02*
X137714285Y-83102438D01*
X137714285Y-83102438D02*
X137809523Y-83197676D01*
X137809523Y-83197676D02*
X137857142Y-83388152D01*
X137857142Y-83388152D02*
X137857142Y-83721485D01*
X137857142Y-83721485D02*
X137809523Y-83911961D01*
X137809523Y-83911961D02*
X137714285Y-84007200D01*
X137714285Y-84007200D02*
X137619047Y-84054819D01*
X137619047Y-84054819D02*
X137428571Y-84054819D01*
X138190476Y-83054819D02*
X138809523Y-83054819D01*
X138809523Y-83054819D02*
X138476190Y-83435771D01*
X138476190Y-83435771D02*
X138619047Y-83435771D01*
X138619047Y-83435771D02*
X138714285Y-83483390D01*
X138714285Y-83483390D02*
X138761904Y-83531009D01*
X138761904Y-83531009D02*
X138809523Y-83626247D01*
X138809523Y-83626247D02*
X138809523Y-83864342D01*
X138809523Y-83864342D02*
X138761904Y-83959580D01*
X138761904Y-83959580D02*
X138714285Y-84007200D01*
X138714285Y-84007200D02*
X138619047Y-84054819D01*
X138619047Y-84054819D02*
X138333333Y-84054819D01*
X138333333Y-84054819D02*
X138238095Y-84007200D01*
X138238095Y-84007200D02*
X138190476Y-83959580D01*
X122833333Y-84804819D02*
X122500000Y-84328628D01*
X122261905Y-84804819D02*
X122261905Y-83804819D01*
X122261905Y-83804819D02*
X122642857Y-83804819D01*
X122642857Y-83804819D02*
X122738095Y-83852438D01*
X122738095Y-83852438D02*
X122785714Y-83900057D01*
X122785714Y-83900057D02*
X122833333Y-83995295D01*
X122833333Y-83995295D02*
X122833333Y-84138152D01*
X122833333Y-84138152D02*
X122785714Y-84233390D01*
X122785714Y-84233390D02*
X122738095Y-84281009D01*
X122738095Y-84281009D02*
X122642857Y-84328628D01*
X122642857Y-84328628D02*
X122261905Y-84328628D01*
X123214286Y-83900057D02*
X123261905Y-83852438D01*
X123261905Y-83852438D02*
X123357143Y-83804819D01*
X123357143Y-83804819D02*
X123595238Y-83804819D01*
X123595238Y-83804819D02*
X123690476Y-83852438D01*
X123690476Y-83852438D02*
X123738095Y-83900057D01*
X123738095Y-83900057D02*
X123785714Y-83995295D01*
X123785714Y-83995295D02*
X123785714Y-84090533D01*
X123785714Y-84090533D02*
X123738095Y-84233390D01*
X123738095Y-84233390D02*
X123166667Y-84804819D01*
X123166667Y-84804819D02*
X123785714Y-84804819D01*
X137833333Y-79679580D02*
X137785714Y-79727200D01*
X137785714Y-79727200D02*
X137642857Y-79774819D01*
X137642857Y-79774819D02*
X137547619Y-79774819D01*
X137547619Y-79774819D02*
X137404762Y-79727200D01*
X137404762Y-79727200D02*
X137309524Y-79631961D01*
X137309524Y-79631961D02*
X137261905Y-79536723D01*
X137261905Y-79536723D02*
X137214286Y-79346247D01*
X137214286Y-79346247D02*
X137214286Y-79203390D01*
X137214286Y-79203390D02*
X137261905Y-79012914D01*
X137261905Y-79012914D02*
X137309524Y-78917676D01*
X137309524Y-78917676D02*
X137404762Y-78822438D01*
X137404762Y-78822438D02*
X137547619Y-78774819D01*
X137547619Y-78774819D02*
X137642857Y-78774819D01*
X137642857Y-78774819D02*
X137785714Y-78822438D01*
X137785714Y-78822438D02*
X137833333Y-78870057D01*
X138214286Y-78870057D02*
X138261905Y-78822438D01*
X138261905Y-78822438D02*
X138357143Y-78774819D01*
X138357143Y-78774819D02*
X138595238Y-78774819D01*
X138595238Y-78774819D02*
X138690476Y-78822438D01*
X138690476Y-78822438D02*
X138738095Y-78870057D01*
X138738095Y-78870057D02*
X138785714Y-78965295D01*
X138785714Y-78965295D02*
X138785714Y-79060533D01*
X138785714Y-79060533D02*
X138738095Y-79203390D01*
X138738095Y-79203390D02*
X138166667Y-79774819D01*
X138166667Y-79774819D02*
X138785714Y-79774819D01*
X130833333Y-89804819D02*
X130500000Y-89328628D01*
X130261905Y-89804819D02*
X130261905Y-88804819D01*
X130261905Y-88804819D02*
X130642857Y-88804819D01*
X130642857Y-88804819D02*
X130738095Y-88852438D01*
X130738095Y-88852438D02*
X130785714Y-88900057D01*
X130785714Y-88900057D02*
X130833333Y-88995295D01*
X130833333Y-88995295D02*
X130833333Y-89138152D01*
X130833333Y-89138152D02*
X130785714Y-89233390D01*
X130785714Y-89233390D02*
X130738095Y-89281009D01*
X130738095Y-89281009D02*
X130642857Y-89328628D01*
X130642857Y-89328628D02*
X130261905Y-89328628D01*
X131690476Y-89138152D02*
X131690476Y-89804819D01*
X131452381Y-88757200D02*
X131214286Y-89471485D01*
X131214286Y-89471485D02*
X131833333Y-89471485D01*
X127074819Y-108333333D02*
X127789104Y-108333333D01*
X127789104Y-108333333D02*
X127931961Y-108380952D01*
X127931961Y-108380952D02*
X128027200Y-108476190D01*
X128027200Y-108476190D02*
X128074819Y-108619047D01*
X128074819Y-108619047D02*
X128074819Y-108714285D01*
X127074819Y-107380952D02*
X127074819Y-107857142D01*
X127074819Y-107857142D02*
X127551009Y-107904761D01*
X127551009Y-107904761D02*
X127503390Y-107857142D01*
X127503390Y-107857142D02*
X127455771Y-107761904D01*
X127455771Y-107761904D02*
X127455771Y-107523809D01*
X127455771Y-107523809D02*
X127503390Y-107428571D01*
X127503390Y-107428571D02*
X127551009Y-107380952D01*
X127551009Y-107380952D02*
X127646247Y-107333333D01*
X127646247Y-107333333D02*
X127884342Y-107333333D01*
X127884342Y-107333333D02*
X127979580Y-107380952D01*
X127979580Y-107380952D02*
X128027200Y-107428571D01*
X128027200Y-107428571D02*
X128074819Y-107523809D01*
X128074819Y-107523809D02*
X128074819Y-107761904D01*
X128074819Y-107761904D02*
X128027200Y-107857142D01*
X128027200Y-107857142D02*
X127979580Y-107904761D01*
X122833333Y-94804819D02*
X122500000Y-94328628D01*
X122261905Y-94804819D02*
X122261905Y-93804819D01*
X122261905Y-93804819D02*
X122642857Y-93804819D01*
X122642857Y-93804819D02*
X122738095Y-93852438D01*
X122738095Y-93852438D02*
X122785714Y-93900057D01*
X122785714Y-93900057D02*
X122833333Y-93995295D01*
X122833333Y-93995295D02*
X122833333Y-94138152D01*
X122833333Y-94138152D02*
X122785714Y-94233390D01*
X122785714Y-94233390D02*
X122738095Y-94281009D01*
X122738095Y-94281009D02*
X122642857Y-94328628D01*
X122642857Y-94328628D02*
X122261905Y-94328628D01*
X123404762Y-94233390D02*
X123309524Y-94185771D01*
X123309524Y-94185771D02*
X123261905Y-94138152D01*
X123261905Y-94138152D02*
X123214286Y-94042914D01*
X123214286Y-94042914D02*
X123214286Y-93995295D01*
X123214286Y-93995295D02*
X123261905Y-93900057D01*
X123261905Y-93900057D02*
X123309524Y-93852438D01*
X123309524Y-93852438D02*
X123404762Y-93804819D01*
X123404762Y-93804819D02*
X123595238Y-93804819D01*
X123595238Y-93804819D02*
X123690476Y-93852438D01*
X123690476Y-93852438D02*
X123738095Y-93900057D01*
X123738095Y-93900057D02*
X123785714Y-93995295D01*
X123785714Y-93995295D02*
X123785714Y-94042914D01*
X123785714Y-94042914D02*
X123738095Y-94138152D01*
X123738095Y-94138152D02*
X123690476Y-94185771D01*
X123690476Y-94185771D02*
X123595238Y-94233390D01*
X123595238Y-94233390D02*
X123404762Y-94233390D01*
X123404762Y-94233390D02*
X123309524Y-94281009D01*
X123309524Y-94281009D02*
X123261905Y-94328628D01*
X123261905Y-94328628D02*
X123214286Y-94423866D01*
X123214286Y-94423866D02*
X123214286Y-94614342D01*
X123214286Y-94614342D02*
X123261905Y-94709580D01*
X123261905Y-94709580D02*
X123309524Y-94757200D01*
X123309524Y-94757200D02*
X123404762Y-94804819D01*
X123404762Y-94804819D02*
X123595238Y-94804819D01*
X123595238Y-94804819D02*
X123690476Y-94757200D01*
X123690476Y-94757200D02*
X123738095Y-94709580D01*
X123738095Y-94709580D02*
X123785714Y-94614342D01*
X123785714Y-94614342D02*
X123785714Y-94423866D01*
X123785714Y-94423866D02*
X123738095Y-94328628D01*
X123738095Y-94328628D02*
X123690476Y-94281009D01*
X123690476Y-94281009D02*
X123595238Y-94233390D01*
X144806666Y-54079726D02*
X144806666Y-52809726D01*
X144806666Y-52809726D02*
X145230000Y-53716869D01*
X145230000Y-53716869D02*
X145653333Y-52809726D01*
X145653333Y-52809726D02*
X145653333Y-54079726D01*
X146258095Y-54079726D02*
X146258095Y-52809726D01*
X146258095Y-53414488D02*
X146983810Y-53414488D01*
X146983810Y-54079726D02*
X146983810Y-52809726D01*
X147528095Y-52930678D02*
X147588571Y-52870202D01*
X147588571Y-52870202D02*
X147709524Y-52809726D01*
X147709524Y-52809726D02*
X148011905Y-52809726D01*
X148011905Y-52809726D02*
X148132857Y-52870202D01*
X148132857Y-52870202D02*
X148193333Y-52930678D01*
X148193333Y-52930678D02*
X148253810Y-53051630D01*
X148253810Y-53051630D02*
X148253810Y-53172583D01*
X148253810Y-53172583D02*
X148193333Y-53354011D01*
X148193333Y-53354011D02*
X147467619Y-54079726D01*
X147467619Y-54079726D02*
X148253810Y-54079726D01*
X109074819Y-102333333D02*
X109789104Y-102333333D01*
X109789104Y-102333333D02*
X109931961Y-102380952D01*
X109931961Y-102380952D02*
X110027200Y-102476190D01*
X110027200Y-102476190D02*
X110074819Y-102619047D01*
X110074819Y-102619047D02*
X110074819Y-102714285D01*
X109170057Y-101904761D02*
X109122438Y-101857142D01*
X109122438Y-101857142D02*
X109074819Y-101761904D01*
X109074819Y-101761904D02*
X109074819Y-101523809D01*
X109074819Y-101523809D02*
X109122438Y-101428571D01*
X109122438Y-101428571D02*
X109170057Y-101380952D01*
X109170057Y-101380952D02*
X109265295Y-101333333D01*
X109265295Y-101333333D02*
X109360533Y-101333333D01*
X109360533Y-101333333D02*
X109503390Y-101380952D01*
X109503390Y-101380952D02*
X110074819Y-101952380D01*
X110074819Y-101952380D02*
X110074819Y-101333333D01*
X125833333Y-89804819D02*
X125500000Y-89328628D01*
X125261905Y-89804819D02*
X125261905Y-88804819D01*
X125261905Y-88804819D02*
X125642857Y-88804819D01*
X125642857Y-88804819D02*
X125738095Y-88852438D01*
X125738095Y-88852438D02*
X125785714Y-88900057D01*
X125785714Y-88900057D02*
X125833333Y-88995295D01*
X125833333Y-88995295D02*
X125833333Y-89138152D01*
X125833333Y-89138152D02*
X125785714Y-89233390D01*
X125785714Y-89233390D02*
X125738095Y-89281009D01*
X125738095Y-89281009D02*
X125642857Y-89328628D01*
X125642857Y-89328628D02*
X125261905Y-89328628D01*
X126166667Y-88804819D02*
X126785714Y-88804819D01*
X126785714Y-88804819D02*
X126452381Y-89185771D01*
X126452381Y-89185771D02*
X126595238Y-89185771D01*
X126595238Y-89185771D02*
X126690476Y-89233390D01*
X126690476Y-89233390D02*
X126738095Y-89281009D01*
X126738095Y-89281009D02*
X126785714Y-89376247D01*
X126785714Y-89376247D02*
X126785714Y-89614342D01*
X126785714Y-89614342D02*
X126738095Y-89709580D01*
X126738095Y-89709580D02*
X126690476Y-89757200D01*
X126690476Y-89757200D02*
X126595238Y-89804819D01*
X126595238Y-89804819D02*
X126309524Y-89804819D01*
X126309524Y-89804819D02*
X126214286Y-89757200D01*
X126214286Y-89757200D02*
X126166667Y-89709580D01*
X112833333Y-94679580D02*
X112785714Y-94727200D01*
X112785714Y-94727200D02*
X112642857Y-94774819D01*
X112642857Y-94774819D02*
X112547619Y-94774819D01*
X112547619Y-94774819D02*
X112404762Y-94727200D01*
X112404762Y-94727200D02*
X112309524Y-94631961D01*
X112309524Y-94631961D02*
X112261905Y-94536723D01*
X112261905Y-94536723D02*
X112214286Y-94346247D01*
X112214286Y-94346247D02*
X112214286Y-94203390D01*
X112214286Y-94203390D02*
X112261905Y-94012914D01*
X112261905Y-94012914D02*
X112309524Y-93917676D01*
X112309524Y-93917676D02*
X112404762Y-93822438D01*
X112404762Y-93822438D02*
X112547619Y-93774819D01*
X112547619Y-93774819D02*
X112642857Y-93774819D01*
X112642857Y-93774819D02*
X112785714Y-93822438D01*
X112785714Y-93822438D02*
X112833333Y-93870057D01*
X113690476Y-93774819D02*
X113500000Y-93774819D01*
X113500000Y-93774819D02*
X113404762Y-93822438D01*
X113404762Y-93822438D02*
X113357143Y-93870057D01*
X113357143Y-93870057D02*
X113261905Y-94012914D01*
X113261905Y-94012914D02*
X113214286Y-94203390D01*
X113214286Y-94203390D02*
X113214286Y-94584342D01*
X113214286Y-94584342D02*
X113261905Y-94679580D01*
X113261905Y-94679580D02*
X113309524Y-94727200D01*
X113309524Y-94727200D02*
X113404762Y-94774819D01*
X113404762Y-94774819D02*
X113595238Y-94774819D01*
X113595238Y-94774819D02*
X113690476Y-94727200D01*
X113690476Y-94727200D02*
X113738095Y-94679580D01*
X113738095Y-94679580D02*
X113785714Y-94584342D01*
X113785714Y-94584342D02*
X113785714Y-94346247D01*
X113785714Y-94346247D02*
X113738095Y-94251009D01*
X113738095Y-94251009D02*
X113690476Y-94203390D01*
X113690476Y-94203390D02*
X113595238Y-94155771D01*
X113595238Y-94155771D02*
X113404762Y-94155771D01*
X113404762Y-94155771D02*
X113309524Y-94203390D01*
X113309524Y-94203390D02*
X113261905Y-94251009D01*
X113261905Y-94251009D02*
X113214286Y-94346247D01*
X101806666Y-117079726D02*
X101806666Y-115809726D01*
X101806666Y-115809726D02*
X102230000Y-116716869D01*
X102230000Y-116716869D02*
X102653333Y-115809726D01*
X102653333Y-115809726D02*
X102653333Y-117079726D01*
X103258095Y-117079726D02*
X103258095Y-115809726D01*
X103258095Y-116414488D02*
X103983810Y-116414488D01*
X103983810Y-117079726D02*
X103983810Y-115809726D01*
X104467619Y-115809726D02*
X105253810Y-115809726D01*
X105253810Y-115809726D02*
X104830476Y-116293535D01*
X104830476Y-116293535D02*
X105011905Y-116293535D01*
X105011905Y-116293535D02*
X105132857Y-116354011D01*
X105132857Y-116354011D02*
X105193333Y-116414488D01*
X105193333Y-116414488D02*
X105253810Y-116535440D01*
X105253810Y-116535440D02*
X105253810Y-116837821D01*
X105253810Y-116837821D02*
X105193333Y-116958773D01*
X105193333Y-116958773D02*
X105132857Y-117019250D01*
X105132857Y-117019250D02*
X105011905Y-117079726D01*
X105011905Y-117079726D02*
X104649048Y-117079726D01*
X104649048Y-117079726D02*
X104528095Y-117019250D01*
X104528095Y-117019250D02*
X104467619Y-116958773D01*
X119238095Y-75954819D02*
X119238095Y-76764342D01*
X119238095Y-76764342D02*
X119285714Y-76859580D01*
X119285714Y-76859580D02*
X119333333Y-76907200D01*
X119333333Y-76907200D02*
X119428571Y-76954819D01*
X119428571Y-76954819D02*
X119619047Y-76954819D01*
X119619047Y-76954819D02*
X119714285Y-76907200D01*
X119714285Y-76907200D02*
X119761904Y-76859580D01*
X119761904Y-76859580D02*
X119809523Y-76764342D01*
X119809523Y-76764342D02*
X119809523Y-75954819D01*
X120238095Y-76050057D02*
X120285714Y-76002438D01*
X120285714Y-76002438D02*
X120380952Y-75954819D01*
X120380952Y-75954819D02*
X120619047Y-75954819D01*
X120619047Y-75954819D02*
X120714285Y-76002438D01*
X120714285Y-76002438D02*
X120761904Y-76050057D01*
X120761904Y-76050057D02*
X120809523Y-76145295D01*
X120809523Y-76145295D02*
X120809523Y-76240533D01*
X120809523Y-76240533D02*
X120761904Y-76383390D01*
X120761904Y-76383390D02*
X120190476Y-76954819D01*
X120190476Y-76954819D02*
X120809523Y-76954819D01*
X144806666Y-117079726D02*
X144806666Y-115809726D01*
X144806666Y-115809726D02*
X145230000Y-116716869D01*
X145230000Y-116716869D02*
X145653333Y-115809726D01*
X145653333Y-115809726D02*
X145653333Y-117079726D01*
X146258095Y-117079726D02*
X146258095Y-115809726D01*
X146258095Y-116414488D02*
X146983810Y-116414488D01*
X146983810Y-117079726D02*
X146983810Y-115809726D01*
X148132857Y-116233059D02*
X148132857Y-117079726D01*
X147830476Y-115749250D02*
X147528095Y-116656392D01*
X147528095Y-116656392D02*
X148314286Y-116656392D01*
X146666666Y-76074819D02*
X146666666Y-76789104D01*
X146666666Y-76789104D02*
X146619047Y-76931961D01*
X146619047Y-76931961D02*
X146523809Y-77027200D01*
X146523809Y-77027200D02*
X146380952Y-77074819D01*
X146380952Y-77074819D02*
X146285714Y-77074819D01*
X147571428Y-76074819D02*
X147380952Y-76074819D01*
X147380952Y-76074819D02*
X147285714Y-76122438D01*
X147285714Y-76122438D02*
X147238095Y-76170057D01*
X147238095Y-76170057D02*
X147142857Y-76312914D01*
X147142857Y-76312914D02*
X147095238Y-76503390D01*
X147095238Y-76503390D02*
X147095238Y-76884342D01*
X147095238Y-76884342D02*
X147142857Y-76979580D01*
X147142857Y-76979580D02*
X147190476Y-77027200D01*
X147190476Y-77027200D02*
X147285714Y-77074819D01*
X147285714Y-77074819D02*
X147476190Y-77074819D01*
X147476190Y-77074819D02*
X147571428Y-77027200D01*
X147571428Y-77027200D02*
X147619047Y-76979580D01*
X147619047Y-76979580D02*
X147666666Y-76884342D01*
X147666666Y-76884342D02*
X147666666Y-76646247D01*
X147666666Y-76646247D02*
X147619047Y-76551009D01*
X147619047Y-76551009D02*
X147571428Y-76503390D01*
X147571428Y-76503390D02*
X147476190Y-76455771D01*
X147476190Y-76455771D02*
X147285714Y-76455771D01*
X147285714Y-76455771D02*
X147190476Y-76503390D01*
X147190476Y-76503390D02*
X147142857Y-76551009D01*
X147142857Y-76551009D02*
X147095238Y-76646247D01*
D11*
%TO.C,J1*%
X101620000Y-77620000D02*
X103000000Y-77620000D01*
X101620000Y-79000000D02*
X101620000Y-77620000D01*
X101620000Y-80270000D02*
X101620000Y-98160000D01*
X101620000Y-80270000D02*
X104380000Y-80270000D01*
X101620000Y-98160000D02*
X104380000Y-98160000D01*
X104380000Y-80270000D02*
X104380000Y-98160000D01*
%TO.C,SW1*%
X103350000Y-100600000D02*
X106650000Y-100600000D01*
X103350000Y-100900000D02*
X103350000Y-100600000D01*
X103350000Y-103100000D02*
X103350000Y-103400000D01*
X103350000Y-103400000D02*
X106650000Y-103400000D01*
X106650000Y-100600000D02*
X106650000Y-100900000D01*
X106650000Y-103400000D02*
X106650000Y-103100000D01*
%TO.C,C1*%
X132738748Y-80265000D02*
X133261252Y-80265000D01*
X132738748Y-81735000D02*
X133261252Y-81735000D01*
%TO.C,SW2*%
X103350000Y-106600000D02*
X106650000Y-106600000D01*
X103350000Y-106900000D02*
X103350000Y-106600000D01*
X103350000Y-109100000D02*
X103350000Y-109400000D01*
X103350000Y-109400000D02*
X106650000Y-109400000D01*
X106650000Y-106600000D02*
X106650000Y-106900000D01*
X106650000Y-109400000D02*
X106650000Y-109100000D01*
%TO.C,Q2*%
X133000000Y-84440000D02*
X132350000Y-84440000D01*
X133000000Y-84440000D02*
X133650000Y-84440000D01*
X133000000Y-87560000D02*
X132350000Y-87560000D01*
X133000000Y-87560000D02*
X133650000Y-87560000D01*
X131837500Y-84490000D02*
X131597500Y-84160000D01*
X132077500Y-84160000D01*
X131837500Y-84490000D01*
G36*
X131837500Y-84490000D02*
G01*
X131597500Y-84160000D01*
X132077500Y-84160000D01*
X131837500Y-84490000D01*
G37*
%TO.C,C3*%
X117738748Y-85265000D02*
X118261252Y-85265000D01*
X117738748Y-86735000D02*
X118261252Y-86735000D01*
%TO.C,R6*%
X140772936Y-90265000D02*
X141227064Y-90265000D01*
X140772936Y-91735000D02*
X141227064Y-91735000D01*
%TO.C,R7*%
X117772936Y-95265000D02*
X118227064Y-95265000D01*
X117772936Y-96735000D02*
X118227064Y-96735000D01*
%TO.C,J3*%
X128620000Y-103380000D02*
X128620000Y-102000000D01*
X130000000Y-103380000D02*
X128620000Y-103380000D01*
X131270000Y-100620000D02*
X133920000Y-100620000D01*
X131270000Y-103380000D02*
X131270000Y-100620000D01*
X131270000Y-103380000D02*
X133920000Y-103380000D01*
X133920000Y-103380000D02*
X133920000Y-100620000D01*
%TO.C,R5*%
X135772936Y-90265000D02*
X136227064Y-90265000D01*
X135772936Y-91735000D02*
X136227064Y-91735000D01*
%TO.C,Q1*%
X128000000Y-84440000D02*
X127350000Y-84440000D01*
X128000000Y-84440000D02*
X128650000Y-84440000D01*
X128000000Y-87560000D02*
X127350000Y-87560000D01*
X128000000Y-87560000D02*
X128650000Y-87560000D01*
X126837500Y-84490000D02*
X126597500Y-84160000D01*
X127077500Y-84160000D01*
X126837500Y-84490000D01*
G36*
X126837500Y-84490000D02*
G01*
X126597500Y-84160000D01*
X127077500Y-84160000D01*
X126837500Y-84490000D01*
G37*
%TO.C,R1*%
X112772936Y-85265000D02*
X113227064Y-85265000D01*
X112772936Y-86735000D02*
X113227064Y-86735000D01*
%TO.C,C4*%
X112738748Y-80265000D02*
X113261252Y-80265000D01*
X112738748Y-81735000D02*
X113261252Y-81735000D01*
%TO.C,D1*%
X110640000Y-90000000D02*
X110640000Y-92000000D01*
X110640000Y-90000000D02*
X114650000Y-90000000D01*
X110640000Y-92000000D02*
X114650000Y-92000000D01*
%TO.C,U1*%
X115800000Y-50600000D02*
X115800000Y-56800000D01*
X115800000Y-50600000D02*
X134200000Y-50600000D01*
X115800000Y-75450000D02*
X115800000Y-76450000D01*
X115800000Y-76450000D02*
X117300000Y-76450000D01*
X134200000Y-50600000D02*
X134200000Y-56800000D01*
X134200000Y-76450000D02*
X132700000Y-76450000D01*
X134200000Y-76450000D02*
X134200000Y-75450000D01*
X115800000Y-57475000D02*
X115300000Y-57475000D01*
X115800000Y-56975000D01*
X115800000Y-57475000D01*
G36*
X115800000Y-57475000D02*
G01*
X115300000Y-57475000D01*
X115800000Y-56975000D01*
X115800000Y-57475000D01*
G37*
%TO.C,D2*%
X115490000Y-89350000D02*
X115490000Y-92650000D01*
X115490000Y-89350000D02*
X121000000Y-89350000D01*
X115490000Y-92650000D02*
X121000000Y-92650000D01*
%TO.C,J4*%
X135620000Y-103380000D02*
X135620000Y-102000000D01*
X137000000Y-103380000D02*
X135620000Y-103380000D01*
X138270000Y-100620000D02*
X140920000Y-100620000D01*
X138270000Y-103380000D02*
X138270000Y-100620000D01*
X138270000Y-103380000D02*
X140920000Y-103380000D01*
X140920000Y-103380000D02*
X140920000Y-100620000D01*
%TO.C,C7*%
X127738748Y-95265000D02*
X128261252Y-95265000D01*
X127738748Y-96735000D02*
X128261252Y-96735000D01*
%TO.C,C5*%
X126738748Y-80265000D02*
X127261252Y-80265000D01*
X126738748Y-81735000D02*
X127261252Y-81735000D01*
%TO.C,Q3*%
X138000000Y-84440000D02*
X137350000Y-84440000D01*
X138000000Y-84440000D02*
X138650000Y-84440000D01*
X138000000Y-87560000D02*
X137350000Y-87560000D01*
X138000000Y-87560000D02*
X138650000Y-87560000D01*
X136837500Y-84490000D02*
X136597500Y-84160000D01*
X137077500Y-84160000D01*
X136837500Y-84490000D01*
G36*
X136837500Y-84490000D02*
G01*
X136597500Y-84160000D01*
X137077500Y-84160000D01*
X136837500Y-84490000D01*
G37*
%TO.C,R2*%
X122772936Y-85265000D02*
X123227064Y-85265000D01*
X122772936Y-86735000D02*
X123227064Y-86735000D01*
%TO.C,C2*%
X137738748Y-80265000D02*
X138261252Y-80265000D01*
X137738748Y-81735000D02*
X138261252Y-81735000D01*
%TO.C,R4*%
X130772936Y-90265000D02*
X131227064Y-90265000D01*
X130772936Y-91735000D02*
X131227064Y-91735000D01*
%TO.C,J5*%
X128620000Y-109380000D02*
X128620000Y-108000000D01*
X130000000Y-109380000D02*
X128620000Y-109380000D01*
X131270000Y-106620000D02*
X133920000Y-106620000D01*
X131270000Y-109380000D02*
X131270000Y-106620000D01*
X131270000Y-109380000D02*
X133920000Y-109380000D01*
X133920000Y-109380000D02*
X133920000Y-106620000D01*
%TO.C,R8*%
X122772936Y-95265000D02*
X123227064Y-95265000D01*
X122772936Y-96735000D02*
X123227064Y-96735000D01*
%TO.C,J2*%
X110620000Y-103380000D02*
X110620000Y-102000000D01*
X112000000Y-103380000D02*
X110620000Y-103380000D01*
X113270000Y-100620000D02*
X126080000Y-100620000D01*
X113270000Y-103380000D02*
X113270000Y-100620000D01*
X113270000Y-103380000D02*
X126080000Y-103380000D01*
X126080000Y-103380000D02*
X126080000Y-100620000D01*
%TO.C,R3*%
X125772936Y-90265000D02*
X126227064Y-90265000D01*
X125772936Y-91735000D02*
X126227064Y-91735000D01*
%TO.C,C6*%
X112738748Y-95265000D02*
X113261252Y-95265000D01*
X112738748Y-96735000D02*
X113261252Y-96735000D01*
%TO.C,U2*%
X118150000Y-77590000D02*
X121910000Y-77590000D01*
X118150000Y-84410000D02*
X121910000Y-84410000D01*
X121910000Y-77590000D02*
X121910000Y-78850000D01*
X121910000Y-84410000D02*
X121910000Y-83150000D01*
X116870000Y-77690000D02*
X116630000Y-77360000D01*
X117110000Y-77360000D01*
X116870000Y-77690000D01*
G36*
X116870000Y-77690000D02*
G01*
X116630000Y-77360000D01*
X117110000Y-77360000D01*
X116870000Y-77690000D01*
G37*
%TO.C,J6*%
X145620000Y-77620000D02*
X147000000Y-77620000D01*
X145620000Y-79000000D02*
X145620000Y-77620000D01*
X145620000Y-80270000D02*
X145620000Y-113400000D01*
X145620000Y-80270000D02*
X148380000Y-80270000D01*
X145620000Y-113400000D02*
X148380000Y-113400000D01*
X148380000Y-80270000D02*
X148380000Y-113400000D01*
%TD*%
%LPC*%
D12*
%TO.C,J1*%
X103000000Y-79000000D03*
D13*
X103000000Y-81540000D03*
X103000000Y-84080000D03*
X103000000Y-86620000D03*
X103000000Y-89160000D03*
X103000000Y-91700000D03*
X103000000Y-94240000D03*
X103000000Y-96780000D03*
%TD*%
D14*
%TO.C,SW1*%
X103300000Y-102000000D03*
X106700000Y-102000000D03*
%TD*%
D15*
%TO.C,C1*%
X132050000Y-81000000D03*
X133950000Y-81000000D03*
%TD*%
D14*
%TO.C,SW2*%
X103300000Y-108000000D03*
X106700000Y-108000000D03*
%TD*%
D16*
%TO.C,Q2*%
X132062500Y-85050000D03*
X132062500Y-86950000D03*
X133937500Y-86000000D03*
%TD*%
D15*
%TO.C,C3*%
X117050000Y-86000000D03*
X118950000Y-86000000D03*
%TD*%
D17*
%TO.C,R6*%
X140087500Y-91000000D03*
X141912500Y-91000000D03*
%TD*%
%TO.C,R7*%
X117087500Y-96000000D03*
X118912500Y-96000000D03*
%TD*%
D12*
%TO.C,J3*%
X130000000Y-102000000D03*
D13*
X132540000Y-102000000D03*
%TD*%
D17*
%TO.C,R5*%
X135087500Y-91000000D03*
X136912500Y-91000000D03*
%TD*%
D16*
%TO.C,Q1*%
X127062500Y-85050000D03*
X127062500Y-86950000D03*
X128937500Y-86000000D03*
%TD*%
D17*
%TO.C,R1*%
X112087500Y-86000000D03*
X113912500Y-86000000D03*
%TD*%
D15*
%TO.C,C4*%
X112050000Y-81000000D03*
X113950000Y-81000000D03*
%TD*%
D18*
%TO.C,D1*%
X111350000Y-91000000D03*
X114650000Y-91000000D03*
%TD*%
D19*
%TO.C,U1*%
X116250000Y-58240000D03*
X116250000Y-59510000D03*
X116250000Y-60780000D03*
X116250000Y-62050000D03*
X116250000Y-63320000D03*
X116250000Y-64590000D03*
X116250000Y-65860000D03*
X116250000Y-67130000D03*
X116250000Y-68400000D03*
X116250000Y-69670000D03*
X116250000Y-70940000D03*
X116250000Y-72210000D03*
X116250000Y-73480000D03*
X116250000Y-74750000D03*
D20*
X118015000Y-76000000D03*
X119285000Y-76000000D03*
X120555000Y-76000000D03*
X121825000Y-76000000D03*
X123095000Y-76000000D03*
X124365000Y-76000000D03*
X125635000Y-76000000D03*
X126905000Y-76000000D03*
X128175000Y-76000000D03*
X129445000Y-76000000D03*
X130715000Y-76000000D03*
X131985000Y-76000000D03*
D19*
X133750000Y-74750000D03*
X133750000Y-73480000D03*
X133750000Y-72210000D03*
X133750000Y-70940000D03*
X133750000Y-69670000D03*
X133750000Y-68400000D03*
X133750000Y-67130000D03*
X133750000Y-65860000D03*
X133750000Y-64590000D03*
X133750000Y-63320000D03*
X133750000Y-62050000D03*
X133750000Y-60780000D03*
X133750000Y-59510000D03*
X133750000Y-58240000D03*
D21*
X122100000Y-65260000D03*
X122100000Y-66660000D03*
X122800000Y-64560000D03*
X122800000Y-65960000D03*
X122800000Y-67360000D03*
X123500000Y-65260000D03*
D22*
X123500000Y-65960000D03*
D21*
X123500000Y-66660000D03*
X124200000Y-64560000D03*
X124200000Y-65960000D03*
X124200000Y-67360000D03*
X124900000Y-65260000D03*
X124900000Y-66660000D03*
%TD*%
D23*
%TO.C,D2*%
X117000000Y-91000000D03*
X121000000Y-91000000D03*
%TD*%
D24*
%TO.C,MH1*%
X103500000Y-53500000D03*
%TD*%
D12*
%TO.C,J4*%
X137000000Y-102000000D03*
D13*
X139540000Y-102000000D03*
%TD*%
D15*
%TO.C,C7*%
X127050000Y-96000000D03*
X128950000Y-96000000D03*
%TD*%
%TO.C,C5*%
X126050000Y-81000000D03*
X127950000Y-81000000D03*
%TD*%
D16*
%TO.C,Q3*%
X137062500Y-85050000D03*
X137062500Y-86950000D03*
X138937500Y-86000000D03*
%TD*%
D17*
%TO.C,R2*%
X122087500Y-86000000D03*
X123912500Y-86000000D03*
%TD*%
D15*
%TO.C,C2*%
X137050000Y-81000000D03*
X138950000Y-81000000D03*
%TD*%
D17*
%TO.C,R4*%
X130087500Y-91000000D03*
X131912500Y-91000000D03*
%TD*%
D12*
%TO.C,J5*%
X130000000Y-108000000D03*
D13*
X132540000Y-108000000D03*
%TD*%
D17*
%TO.C,R8*%
X122087500Y-96000000D03*
X123912500Y-96000000D03*
%TD*%
D24*
%TO.C,MH2*%
X146500000Y-53500000D03*
%TD*%
D12*
%TO.C,J2*%
X112000000Y-102000000D03*
D13*
X114540000Y-102000000D03*
X117080000Y-102000000D03*
X119620000Y-102000000D03*
X122160000Y-102000000D03*
X124700000Y-102000000D03*
%TD*%
D17*
%TO.C,R3*%
X125087500Y-91000000D03*
X126912500Y-91000000D03*
%TD*%
D15*
%TO.C,C6*%
X112050000Y-96000000D03*
X113950000Y-96000000D03*
%TD*%
D24*
%TO.C,MH3*%
X103500000Y-116500000D03*
%TD*%
D25*
%TO.C,U2*%
X116850000Y-78700000D03*
X116850000Y-81000000D03*
D26*
X123150000Y-81000000D03*
D25*
X116850000Y-83300000D03*
%TD*%
D24*
%TO.C,MH4*%
X146500000Y-116500000D03*
%TD*%
D12*
%TO.C,J6*%
X147000000Y-79000000D03*
D13*
X147000000Y-81540000D03*
X147000000Y-84080000D03*
X147000000Y-86620000D03*
X147000000Y-89160000D03*
X147000000Y-91700000D03*
X147000000Y-94240000D03*
X147000000Y-96780000D03*
X147000000Y-99320000D03*
X147000000Y-101860000D03*
X147000000Y-104400000D03*
X147000000Y-106940000D03*
X147000000Y-109480000D03*
X147000000Y-112020000D03*
%TD*%
%LPD*%
M02*
