M48
; DRILL file {KiCad 9.0.3-9.0.3-0~ubuntu22.04.1} date 2026-08-04T22:10:29+0000
; FORMAT={-:-/ absolute / metric / decimal}
; #@! TF.CreationDate,2026-08-04T22:10:29+00:00
; #@! TF.GenerationSoftware,Kicad,Pcbnew,9.0.3-9.0.3-0~ubuntu22.04.1
; #@! TF.FileFunction,Plated,1,2,PTH
FMAT,2
METRIC
; #@! TA.AperFunction,Plated,PTH,ComponentDrill
T1C0.200
; #@! TA.AperFunction,Plated,PTH,ViaDrill
T2C0.300
; #@! TA.AperFunction,Plated,PTH,ComponentDrill
T3C1.000
%
G90
G05
T1
X122.1Y-65.26
X122.1Y-66.66
X122.8Y-64.56
X122.8Y-65.96
X122.8Y-67.36
X123.5Y-65.26
X123.5Y-66.66
X124.2Y-64.56
X124.2Y-65.96
X124.2Y-67.36
X124.9Y-65.26
X124.9Y-66.66
T2
X101.45Y-63.45
X101.45Y-69.45
X101.45Y-99.45
X101.45Y-105.45
X101.45Y-111.45
X101.45Y-117.45
X107.45Y-63.45
X107.45Y-75.45
X107.45Y-81.45
X107.45Y-87.45
X107.45Y-93.45
X107.45Y-99.45
X107.45Y-105.45
X107.45Y-111.45
X107.45Y-117.45
X111.35Y-92.536
X113.45Y-69.45
X113.45Y-75.45
X113.45Y-93.45
X113.45Y-99.45
X113.45Y-105.45
X113.45Y-111.45
X113.45Y-117.45
X113.95Y-78.449
X114.311Y-83.763
X115.198Y-75.712
X116.445Y-97.663
X117.505Y-60.16
X117.515Y-73.48
X118.16Y-67.983
X119.004Y-74.723
X119.45Y-111.45
X119.45Y-117.45
X120.077Y-88.686
X121.438Y-89.18
X121.565Y-84.578
X123.095Y-77.264
X123.345Y-87.254
X124.365Y-77.299
X125.45Y-63.45
X125.45Y-69.45
X125.45Y-93.45
X125.45Y-99.45
X125.45Y-105.45
X125.45Y-111.45
X125.45Y-117.45
X127.062Y-84.227
X127.849Y-78.754
X128.381Y-79.369
X128.771Y-77.831
X129.055Y-74.499
X129.291Y-84.02
X130.057Y-84.937
X130.142Y-74.722
X130.45Y-79.972
X131.351Y-74.365
X131.45Y-93.45
X131.45Y-111.45
X131.45Y-117.45
X136.801Y-78.418
X137.45Y-63.45
X137.45Y-69.45
X137.45Y-75.45
X137.45Y-105.45
X137.45Y-111.45
X137.45Y-117.45
X138.0Y-78.343
X140.088Y-96.761
X141.0Y-89.452
X142.73Y-87.499
X143.433Y-88.201
X143.45Y-63.45
X143.45Y-69.45
X143.45Y-75.45
X143.45Y-81.45
X143.45Y-105.45
X143.45Y-111.45
X143.45Y-117.45
T3
X103.0Y-79.0
X103.0Y-81.54
X103.0Y-84.08
X103.0Y-86.62
X103.0Y-89.16
X103.0Y-91.7
X103.0Y-94.24
X103.0Y-96.78
X112.0Y-102.0
X114.54Y-102.0
X117.08Y-102.0
X119.62Y-102.0
X122.16Y-102.0
X124.7Y-102.0
X130.0Y-102.0
X130.0Y-108.0
X132.54Y-102.0
X132.54Y-108.0
X137.0Y-102.0
X139.54Y-102.0
X147.0Y-79.0
X147.0Y-81.54
X147.0Y-84.08
X147.0Y-86.62
X147.0Y-89.16
X147.0Y-91.7
X147.0Y-94.24
X147.0Y-96.78
X147.0Y-99.32
X147.0Y-101.86
X147.0Y-104.4
X147.0Y-106.94
X147.0Y-109.48
X147.0Y-112.02
M30
