solid OpenSCAD_Model
  facet normal 0 0 1
    outer loop
      vertex 13.200000002980232 8.000000005960464 2.4000000000000057
      vertex 0 9.3894736861258 2.4000000000000057
      vertex 0 0 2.4000000000000057
    endloop
  endfacet
  facet normal 0 0 1
    outer loop
      vertex 12.552786409854889 8.329771800339222 2.4000000000000057
      vertex 0 9.3894736861258 2.4000000000000057
      vertex 12.729771800339222 8.152786409854889 2.4000000000000057
    endloop
  endfacet
  facet normal 0 0 1
    outer loop
      vertex 12.952786408364773 8.039154788851738 2.4000000000000057
      vertex 0 9.3894736861258 2.4000000000000057
      vertex 13.200000002980232 8.000000005960464 2.4000000000000057
    endloop
  endfacet
  facet normal 0 0 1
    outer loop
      vertex 12.952786408364773 8.039154788851738 2.4000000000000057
      vertex 12.729771800339222 8.152786409854889 2.4000000000000057
      vertex 0 9.3894736861258 2.4000000000000057
    endloop
  endfacet
  facet normal 0 0 1
    outer loop
      vertex 12.552786409854889 8.329771800339222 2.4000000000000057
      vertex 12.439154788851738 8.552786408364772 2.4000000000000057
      vertex 0 9.3894736861258 2.4000000000000057
    endloop
  endfacet
  facet normal 0 0 1
    outer loop
      vertex 12.439154788851738 8.552786408364772 2.4000000000000057
      vertex 12.400000005960464 8.800000002980232 2.4000000000000057
      vertex 0 9.3894736861258 2.4000000000000057
    endloop
  endfacet
  facet normal 0 0 1
    outer loop
      vertex 12.400000005960464 8.800000002980232 2.4000000000000057
      vertex 12.400000005960464 11.399999997019767 2.4000000000000057
      vertex 0 9.3894736861258 2.4000000000000057
    endloop
  endfacet
  facet normal 0 0 1
    outer loop
      vertex 12.400000005960464 11.399999997019767 2.4000000000000057
      vertex 12.439154788851738 11.647213591635227 2.4000000000000057
      vertex 0 9.3894736861258 2.4000000000000057
    endloop
  endfacet
  facet normal 0 0 1
    outer loop
      vertex 12.439154788851738 11.647213591635227 2.4000000000000057
      vertex 12.552786409854889 11.870228199660778 2.4000000000000057
      vertex 0 9.3894736861258 2.4000000000000057
    endloop
  endfacet
  facet normal 0 0 1
    outer loop
      vertex 12.552786409854889 11.870228199660778 2.4000000000000057
      vertex 12.729771800339222 12.04721359014511 2.4000000000000057
      vertex 0 9.3894736861258 2.4000000000000057
    endloop
  endfacet
  facet normal 0 0 1
    outer loop
      vertex 12.729771800339222 12.04721359014511 2.4000000000000057
      vertex 12.952786408364773 12.160845211148262 2.4000000000000057
      vertex 0 9.3894736861258 2.4000000000000057
    endloop
  endfacet
  facet normal 0.45399050800249663 0.8910065199781846 0
    outer loop
      vertex 12.952786408364773 8.039154788851738 2.4000000000000057
      vertex 12.952786408364773 8.039154788851738 0
      vertex 12.729771800339222 8.152786409854889 2.4000000000000057
    endloop
  endfacet
  facet normal 0.15643444971321585 0.9876883430226983 0
    outer loop
      vertex 12.952786408364773 8.039154788851738 2.4000000000000057
      vertex 13.200000002980232 8.000000005960464 2.4000000000000057
      vertex 13.200000002980232 8.000000005960464 0
    endloop
  endfacet
  facet normal 0.7071067811865476 0.7071067811865476 0
    outer loop
      vertex 12.552786409854889 8.329771800339222 2.4000000000000057
      vertex 12.729771800339222 8.152786409854889 2.4000000000000057
      vertex 12.729771800339222 8.152786409854889 0
    endloop
  endfacet
  facet normal 0.9876883430226983 0.15643444971321585 0
    outer loop
      vertex 12.439154788851738 8.552786408364772 2.4000000000000057
      vertex 12.439154788851738 8.552786408364772 0
      vertex 12.400000005960464 8.800000002980232 2.4000000000000057
    endloop
  endfacet
  facet normal 0.8910065199781846 0.45399050800249663 0
    outer loop
      vertex 12.552786409854889 8.329771800339222 2.4000000000000057
      vertex 12.552786409854889 8.329771800339222 0
      vertex 12.439154788851738 8.552786408364772 2.4000000000000057
    endloop
  endfacet
  facet normal 0 1 0
    outer loop
      vertex 13.200000002980232 8.000000005960464 2.4000000000000057
      vertex 21.299999997019768 8.000000005960464 2.4000000000000057
      vertex 21.299999997019768 8.000000005960464 0
    endloop
  endfacet
  facet normal -0.15643444971321585 0.9876883430226983 0
    outer loop
      vertex 21.299999997019768 8.000000005960464 2.4000000000000057
      vertex 21.547213591635227 8.039154788851738 2.4000000000000057
      vertex 21.547213591635227 8.039154788851738 0
    endloop
  endfacet
  facet normal -1 0 0
    outer loop
      vertex 0 9.3894736861258 2.4000000000000057
      vertex 0 36.95 0
      vertex 0 0 2.4000000000000057
    endloop
  endfacet
  facet normal 1 0 0
    outer loop
      vertex 12.400000005960464 8.800000002980232 2.4000000000000057
      vertex 12.400000005960464 8.800000002980232 0
      vertex 12.400000005960464 11.399999997019767 2.4000000000000057
    endloop
  endfacet
  facet normal 0.9876883430226983 -0.15643444971321585 0
    outer loop
      vertex 12.400000005960464 11.399999997019767 2.4000000000000057
      vertex 12.400000005960464 11.399999997019767 0
      vertex 12.439154788851738 11.647213591635227 2.4000000000000057
    endloop
  endfacet
  facet normal 0.8910065199781846 -0.45399050800249663 0
    outer loop
      vertex 12.439154788851738 11.647213591635227 2.4000000000000057
      vertex 12.439154788851738 11.647213591635227 0
      vertex 12.552786409854889 11.870228199660778 2.4000000000000057
    endloop
  endfacet
  facet normal 0.7071067811865476 -0.7071067811865476 0
    outer loop
      vertex 12.552786409854889 11.870228199660778 2.4000000000000057
      vertex 12.552786409854889 11.870228199660778 0
      vertex 12.729771800339222 12.04721359014511 2.4000000000000057
    endloop
  endfacet
  facet normal 0.45399050800249663 -0.8910065199781846 0
    outer loop
      vertex 12.729771800339222 12.04721359014511 2.4000000000000057
      vertex 12.729771800339222 12.04721359014511 0
      vertex 12.952786408364773 12.160845211148262 2.4000000000000057
    endloop
  endfacet
  facet normal 0.15643444971321585 -0.9876883430226983 0
    outer loop
      vertex 12.952786408364773 12.160845211148262 2.4000000000000057
      vertex 12.952786408364773 12.160845211148262 0
      vertex 13.200000002980232 12.199999994039535 2.4000000000000057
    endloop
  endfacet
  facet normal 0 -1 0
    outer loop
      vertex 13.200000002980232 12.199999994039535 2.4000000000000057
      vertex 13.200000002980232 12.199999994039535 0
      vertex 21.299999997019768 12.199999994039535 2.4000000000000057
    endloop
  endfacet
  facet normal -0.15643444971321585 -0.9876883430226983 0
    outer loop
      vertex 21.299999997019768 12.199999994039535 2.4000000000000057
      vertex 21.299999997019768 12.199999994039535 0
      vertex 21.547213591635227 12.160845211148262 2.4000000000000057
    endloop
  endfacet
  facet normal 0 0 1
    outer loop
      vertex 21.299999997019768 8.000000005960464 2.4000000000000057
      vertex 28.452786408364773 8.039154788851738 2.4000000000000057
      vertex 21.547213591635227 8.039154788851738 2.4000000000000057
    endloop
  endfacet
  facet normal 0 0 1
    outer loop
      vertex 21.547213591635227 8.039154788851738 2.4000000000000057
      vertex 28.229771800339222 8.152786409854889 2.4000000000000057
      vertex 21.770228199660778 8.152786409854889 2.4000000000000057
    endloop
  endfacet
  facet normal 0 0 1
    outer loop
      vertex 21.770228199660778 8.152786409854889 2.4000000000000057
      vertex 28.05278640985489 8.329771800339222 2.4000000000000057
      vertex 21.94721359014511 8.329771800339222 2.4000000000000057
    endloop
  endfacet
  facet normal 0 0 1
    outer loop
      vertex 21.94721359014511 8.329771800339222 2.4000000000000057
      vertex 27.939154788851738 8.552786408364772 2.4000000000000057
      vertex 22.060845211148262 8.552786408364772 2.4000000000000057
    endloop
  endfacet
  facet normal 0 0 1
    outer loop
      vertex 22.060845211148262 8.552786408364772 2.4000000000000057
      vertex 27.900000005960464 8.800000002980232 2.4000000000000057
      vertex 22.099999994039536 8.800000002980232 2.4000000000000057
    endloop
  endfacet
  facet normal 0 0 1
    outer loop
      vertex 21.299999997019768 8.000000005960464 2.4000000000000057
      vertex 28.700000002980232 8.000000005960464 2.4000000000000057
      vertex 28.452786408364773 8.039154788851738 2.4000000000000057
    endloop
  endfacet
  facet normal 0 0 1
    outer loop
      vertex 21.547213591635227 8.039154788851738 2.4000000000000057
      vertex 28.452786408364773 8.039154788851738 2.4000000000000057
      vertex 28.229771800339222 8.152786409854889 2.4000000000000057
    endloop
  endfacet
  facet normal 0 0 1
    outer loop
      vertex 21.770228199660778 8.152786409854889 2.4000000000000057
      vertex 28.229771800339222 8.152786409854889 2.4000000000000057
      vertex 28.05278640985489 8.329771800339222 2.4000000000000057
    endloop
  endfacet
  facet normal 0 0 1
    outer loop
      vertex 21.94721359014511 8.329771800339222 2.4000000000000057
      vertex 28.05278640985489 8.329771800339222 2.4000000000000057
      vertex 27.939154788851738 8.552786408364772 2.4000000000000057
    endloop
  endfacet
  facet normal 0 0 1
    outer loop
      vertex 22.060845211148262 8.552786408364772 2.4000000000000057
      vertex 27.939154788851738 8.552786408364772 2.4000000000000057
      vertex 27.900000005960464 8.800000002980232 2.4000000000000057
    endloop
  endfacet
  facet normal 0 0 1
    outer loop
      vertex 13.200000002980232 8.000000005960464 2.4000000000000057
      vertex 0 0 2.4000000000000057
      vertex 86.4 0 2.4000000000000057
    endloop
  endfacet
  facet normal 0 0 1
    outer loop
      vertex 13.200000002980232 8.000000005960464 2.4000000000000057
      vertex 86.4 0 2.4000000000000057
      vertex 21.299999997019768 8.000000005960464 2.4000000000000057
    endloop
  endfacet
  facet normal 0 0 1
    outer loop
      vertex 37.599999994039536 8.800000002980232 2.4000000000000057
      vertex 40.95000000298023 9.000000005960464 2.4000000000000057
      vertex 40.70278640836477 9.039154788851738 2.4000000000000057
    endloop
  endfacet
  facet normal 0 0 1
    outer loop
      vertex 37.599999994039536 8.800000002980232 2.4000000000000057
      vertex 40.47977180033922 9.152786409854889 2.4000000000000057
      vertex 40.30278640985489 9.329771800339222 2.4000000000000057
    endloop
  endfacet
  facet normal 0 0 1
    outer loop
      vertex 37.599999994039536 8.800000002980232 2.4000000000000057
      vertex 40.30278640985489 9.329771800339222 2.4000000000000057
      vertex 40.18915478885174 9.552786408364772 2.4000000000000057
    endloop
  endfacet
  facet normal 0 0 1
    outer loop
      vertex 37.599999994039536 8.800000002980232 2.4000000000000057
      vertex 40.70278640836477 9.039154788851738 2.4000000000000057
      vertex 40.47977180033922 9.152786409854889 2.4000000000000057
    endloop
  endfacet
  facet normal 0 0 1
    outer loop
      vertex 22.099999994039536 8.800000002980232 2.4000000000000057
      vertex 27.900000005960464 11.399999997019767 2.4000000000000057
      vertex 22.099999994039536 11.399999997019767 2.4000000000000057
    endloop
  endfacet
  facet normal 0 0 1
    outer loop
      vertex 22.099999994039536 8.800000002980232 2.4000000000000057
      vertex 27.900000005960464 8.800000002980232 2.4000000000000057
      vertex 27.900000005960464 11.399999997019767 2.4000000000000057
    endloop
  endfacet
  facet normal 0 0 1
    outer loop
      vertex 22.099999994039536 11.399999997019767 2.4000000000000057
      vertex 27.900000005960464 11.399999997019767 2.4000000000000057
      vertex 27.939154788851738 11.647213591635227 2.4000000000000057
    endloop
  endfacet
  facet normal 0 0 1
    outer loop
      vertex 22.099999994039536 11.399999997019767 2.4000000000000057
      vertex 27.939154788851738 11.647213591635227 2.4000000000000057
      vertex 22.060845211148262 11.647213591635227 2.4000000000000057
    endloop
  endfacet
  facet normal 0 0 1
    outer loop
      vertex 22.060845211148262 11.647213591635227 2.4000000000000057
      vertex 28.05278640985489 11.870228199660778 2.4000000000000057
      vertex 21.94721359014511 11.870228199660778 2.4000000000000057
    endloop
  endfacet
  facet normal 0 0 1
    outer loop
      vertex 21.770228199660778 12.04721359014511 2.4000000000000057
      vertex 28.452786408364773 12.160845211148262 2.4000000000000057
      vertex 21.547213591635227 12.160845211148262 2.4000000000000057
    endloop
  endfacet
  facet normal 0 0 1
    outer loop
      vertex 21.94721359014511 11.870228199660778 2.4000000000000057
      vertex 28.229771800339222 12.04721359014511 2.4000000000000057
      vertex 21.770228199660778 12.04721359014511 2.4000000000000057
    endloop
  endfacet
  facet normal 0 0 1
    outer loop
      vertex 22.060845211148262 11.647213591635227 2.4000000000000057
      vertex 27.939154788851738 11.647213591635227 2.4000000000000057
      vertex 28.05278640985489 11.870228199660778 2.4000000000000057
    endloop
  endfacet
  facet normal 0 0 1
    outer loop
      vertex 21.94721359014511 11.870228199660778 2.4000000000000057
      vertex 28.05278640985489 11.870228199660778 2.4000000000000057
      vertex 28.229771800339222 12.04721359014511 2.4000000000000057
    endloop
  endfacet
  facet normal 0 0 1
    outer loop
      vertex 21.770228199660778 12.04721359014511 2.4000000000000057
      vertex 28.229771800339222 12.04721359014511 2.4000000000000057
      vertex 28.452786408364773 12.160845211148262 2.4000000000000057
    endloop
  endfacet
  facet normal 0 0 1
    outer loop
      vertex 37.599999994039536 8.800000002980232 2.4000000000000057
      vertex 40.18915478885174 9.552786408364772 2.4000000000000057
      vertex 40.150000005960464 9.800000002980232 2.4000000000000057
    endloop
  endfacet
  facet normal 0 0 1
    outer loop
      vertex 37.599999994039536 8.800000002980232 2.4000000000000057
      vertex 40.150000005960464 9.800000002980232 2.4000000000000057
      vertex 40.150000005960464 11.399999997019767 2.4000000000000057
    endloop
  endfacet
  facet normal 0 0 1
    outer loop
      vertex 37.599999994039536 8.800000002980232 2.4000000000000057
      vertex 40.150000005960464 11.399999997019767 2.4000000000000057
      vertex 37.599999994039536 11.399999997019767 2.4000000000000057
    endloop
  endfacet
  facet normal 0 0 1
    outer loop
      vertex 37.599999994039536 11.399999997019767 2.4000000000000057
      vertex 40.150000005960464 11.399999997019767 2.4000000000000057
      vertex 40.18915478885174 11.647213591635227 2.4000000000000057
    endloop
  endfacet
  facet normal 0 0 1
    outer loop
      vertex 37.599999994039536 11.399999997019767 2.4000000000000057
      vertex 40.18915478885174 11.647213591635227 2.4000000000000057
      vertex 37.56084521114826 11.647213591635227 2.4000000000000057
    endloop
  endfacet
  facet normal 0 0 1
    outer loop
      vertex 37.56084521114826 11.647213591635227 2.4000000000000057
      vertex 40.30278640985489 11.870228199660778 2.4000000000000057
      vertex 37.44721359014511 11.870228199660778 2.4000000000000057
    endloop
  endfacet
  facet normal 0 0 1
    outer loop
      vertex 37.44721359014511 11.870228199660778 2.4000000000000057
      vertex 40.47977180033922 12.04721359014511 2.4000000000000057
      vertex 37.27022819966078 12.04721359014511 2.4000000000000057
    endloop
  endfacet
  facet normal 0 0 1
    outer loop
      vertex 37.27022819966078 12.04721359014511 2.4000000000000057
      vertex 40.70278640836477 12.160845211148262 2.4000000000000057
      vertex 37.04721359163523 12.160845211148262 2.4000000000000057
    endloop
  endfacet
  facet normal 0 0 1
    outer loop
      vertex 37.56084521114826 11.647213591635227 2.4000000000000057
      vertex 40.18915478885174 11.647213591635227 2.4000000000000057
      vertex 40.30278640985489 11.870228199660778 2.4000000000000057
    endloop
  endfacet
  facet normal 0 0 1
    outer loop
      vertex 37.44721359014511 11.870228199660778 2.4000000000000057
      vertex 40.30278640985489 11.870228199660778 2.4000000000000057
      vertex 40.47977180033922 12.04721359014511 2.4000000000000057
    endloop
  endfacet
  facet normal 0 0 1
    outer loop
      vertex 37.27022819966078 12.04721359014511 2.4000000000000057
      vertex 40.47977180033922 12.04721359014511 2.4000000000000057
      vertex 40.70278640836477 12.160845211148262 2.4000000000000057
    endloop
  endfacet
  facet normal 0 0 1
    outer loop
      vertex 13.200000002980232 12.199999994039535 2.4000000000000057
      vertex 21.299999997019768 12.199999994039535 2.4000000000000057
      vertex 68.77733188909411 28.08510750343269 2.4000000000000057
    endloop
  endfacet
  facet normal 0 0 1
    outer loop
      vertex 21.299999997019768 12.199999994039535 2.4000000000000057
      vertex 21.547213591635227 12.160845211148262 2.4000000000000057
      vertex 68.77733188909411 28.08510750343269 2.4000000000000057
    endloop
  endfacet
  facet normal 0 0 1
    outer loop
      vertex 21.547213591635227 12.160845211148262 2.4000000000000057
      vertex 28.452786408364773 12.160845211148262 2.4000000000000057
      vertex 68.77733188909411 28.08510750343269 2.4000000000000057
    endloop
  endfacet
  facet normal 0 0 1
    outer loop
      vertex 28.452786408364773 12.160845211148262 2.4000000000000057
      vertex 28.700000002980232 12.199999994039535 2.4000000000000057
      vertex 68.77733188909411 28.08510750343269 2.4000000000000057
    endloop
  endfacet
  facet normal 0 -1 0
    outer loop
      vertex 0 0 0
      vertex 86.4 0 2.4000000000000057
      vertex 0 0 2.4000000000000057
    endloop
  endfacet
  facet normal -0.45399050800249663 0.8910065199781846 0
    outer loop
      vertex 21.547213591635227 8.039154788851738 2.4000000000000057
      vertex 21.770228199660778 8.152786409854889 2.4000000000000057
      vertex 21.770228199660778 8.152786409854889 0
    endloop
  endfacet
  facet normal -0.7071067811865476 0.7071067811865476 0
    outer loop
      vertex 21.770228199660778 8.152786409854889 2.4000000000000057
      vertex 21.94721359014511 8.329771800339222 2.4000000000000057
      vertex 21.94721359014511 8.329771800339222 0
    endloop
  endfacet
  facet normal -0.8910065199781846 0.45399050800249663 0
    outer loop
      vertex 21.94721359014511 8.329771800339222 2.4000000000000057
      vertex 22.060845211148262 8.552786408364772 2.4000000000000057
      vertex 22.060845211148262 8.552786408364772 0
    endloop
  endfacet
  facet normal -0.9876883430226983 0.15643444971321585 0
    outer loop
      vertex 22.060845211148262 8.552786408364772 2.4000000000000057
      vertex 22.099999994039536 8.800000002980232 2.4000000000000057
      vertex 22.099999994039536 8.800000002980232 0
    endloop
  endfacet
  facet normal 0.45399050800249663 0.8910065199781846 0
    outer loop
      vertex 28.229771800339222 8.152786409854889 2.4000000000000057
      vertex 28.452786408364773 8.039154788851738 2.4000000000000057
      vertex 28.452786408364773 8.039154788851738 0
    endloop
  endfacet
  facet normal 0.15643444971321585 0.9876883430226983 0
    outer loop
      vertex 28.452786408364773 8.039154788851738 2.4000000000000057
      vertex 28.700000002980232 8.000000005960464 2.4000000000000057
      vertex 28.700000002980232 8.000000005960464 0
    endloop
  endfacet
  facet normal 0.7071067811865476 0.7071067811865476 0
    outer loop
      vertex 28.229771800339222 8.152786409854889 2.4000000000000057
      vertex 28.229771800339222 8.152786409854889 0
      vertex 28.05278640985489 8.329771800339222 2.4000000000000057
    endloop
  endfacet
  facet normal 0.9876883430226983 0.15643444971321585 0
    outer loop
      vertex 27.939154788851738 8.552786408364772 2.4000000000000057
      vertex 27.939154788851738 8.552786408364772 0
      vertex 27.900000005960464 8.800000002980232 2.4000000000000057
    endloop
  endfacet
  facet normal 0.8910065199781846 0.45399050800249663 0
    outer loop
      vertex 28.05278640985489 8.329771800339222 2.4000000000000057
      vertex 28.05278640985489 8.329771800339222 0
      vertex 27.939154788851738 8.552786408364772 2.4000000000000057
    endloop
  endfacet
  facet normal 0 1 0
    outer loop
      vertex 28.700000002980232 8.000000005960464 2.4000000000000057
      vertex 36.79999999701977 8.000000005960464 2.4000000000000057
      vertex 36.79999999701977 8.000000005960464 0
    endloop
  endfacet
  facet normal -0.15643444971321585 0.9876883430226983 0
    outer loop
      vertex 36.79999999701977 8.000000005960464 2.4000000000000057
      vertex 37.04721359163523 8.039154788851738 2.4000000000000057
      vertex 37.04721359163523 8.039154788851738 0
    endloop
  endfacet
  facet normal -0.45399050800249663 0.8910065199781846 0
    outer loop
      vertex 37.04721359163523 8.039154788851738 2.4000000000000057
      vertex 37.27022819966078 8.152786409854889 2.4000000000000057
      vertex 37.27022819966078 8.152786409854889 0
    endloop
  endfacet
  facet normal -0.7071067811865476 0.7071067811865476 0
    outer loop
      vertex 37.27022819966078 8.152786409854889 2.4000000000000057
      vertex 37.44721359014511 8.329771800339222 2.4000000000000057
      vertex 37.44721359014511 8.329771800339222 0
    endloop
  endfacet
  facet normal -0.8910065199781846 0.45399050800249663 0
    outer loop
      vertex 37.44721359014511 8.329771800339222 2.4000000000000057
      vertex 37.56084521114826 8.552786408364772 2.4000000000000057
      vertex 37.56084521114826 8.552786408364772 0
    endloop
  endfacet
  facet normal -0.9876883430226983 0.15643444971321585 0
    outer loop
      vertex 37.56084521114826 8.552786408364772 2.4000000000000057
      vertex 37.599999994039536 8.800000002980232 2.4000000000000057
      vertex 37.599999994039536 8.800000002980232 0
    endloop
  endfacet
  facet normal 0.7071067811865476 0.7071067811865476 0
    outer loop
      vertex 40.47977180033922 9.152786409854889 2.4000000000000057
      vertex 40.47977180033922 9.152786409854889 0
      vertex 40.30278640985489 9.329771800339222 2.4000000000000057
    endloop
  endfacet
  facet normal 0.45399050800249663 0.8910065199781846 0
    outer loop
      vertex 40.70278640836477 9.039154788851738 2.4000000000000057
      vertex 40.70278640836477 9.039154788851738 0
      vertex 40.47977180033922 9.152786409854889 2.4000000000000057
    endloop
  endfacet
  facet normal 0.15643444971321585 0.9876883430226983 0
    outer loop
      vertex 40.95000000298023 9.000000005960464 2.4000000000000057
      vertex 40.95000000298023 9.000000005960464 0
      vertex 40.70278640836477 9.039154788851738 2.4000000000000057
    endloop
  endfacet
  facet normal -1 0 0
    outer loop
      vertex 22.099999994039536 8.800000002980232 2.4000000000000057
      vertex 22.099999994039536 11.399999997019767 2.4000000000000057
      vertex 22.099999994039536 11.399999997019767 0
    endloop
  endfacet
  facet normal -0.9876883430226983 -0.15643444971321585 0
    outer loop
      vertex 22.099999994039536 11.399999997019767 2.4000000000000057
      vertex 22.060845211148262 11.647213591635227 2.4000000000000057
      vertex 22.060845211148262 11.647213591635227 0
    endloop
  endfacet
  facet normal -0.8910065199781846 -0.45399050800249663 0
    outer loop
      vertex 22.060845211148262 11.647213591635227 2.4000000000000057
      vertex 21.94721359014511 11.870228199660778 2.4000000000000057
      vertex 21.94721359014511 11.870228199660778 0
    endloop
  endfacet
  facet normal -0.45399050800249663 -0.8910065199781846 0
    outer loop
      vertex 21.770228199660778 12.04721359014511 2.4000000000000057
      vertex 21.547213591635227 12.160845211148262 2.4000000000000057
      vertex 21.547213591635227 12.160845211148262 0
    endloop
  endfacet
  facet normal -0.7071067811865476 -0.7071067811865476 0
    outer loop
      vertex 21.94721359014511 11.870228199660778 2.4000000000000057
      vertex 21.770228199660778 12.04721359014511 2.4000000000000057
      vertex 21.770228199660778 12.04721359014511 0
    endloop
  endfacet
  facet normal 1 0 0
    outer loop
      vertex 27.900000005960464 8.800000002980232 2.4000000000000057
      vertex 27.900000005960464 8.800000002980232 0
      vertex 27.900000005960464 11.399999997019767 2.4000000000000057
    endloop
  endfacet
  facet normal 0.9876883430226983 -0.15643444971321585 0
    outer loop
      vertex 27.900000005960464 11.399999997019767 2.4000000000000057
      vertex 27.900000005960464 11.399999997019767 0
      vertex 27.939154788851738 11.647213591635227 2.4000000000000057
    endloop
  endfacet
  facet normal 0.8910065199781846 -0.45399050800249663 0
    outer loop
      vertex 27.939154788851738 11.647213591635227 2.4000000000000057
      vertex 27.939154788851738 11.647213591635227 0
      vertex 28.05278640985489 11.870228199660778 2.4000000000000057
    endloop
  endfacet
  facet normal 0.7071067811865476 -0.7071067811865476 0
    outer loop
      vertex 28.05278640985489 11.870228199660778 2.4000000000000057
      vertex 28.05278640985489 11.870228199660778 0
      vertex 28.229771800339222 12.04721359014511 2.4000000000000057
    endloop
  endfacet
  facet normal 0.45399050800249663 -0.8910065199781846 0
    outer loop
      vertex 28.229771800339222 12.04721359014511 2.4000000000000057
      vertex 28.229771800339222 12.04721359014511 0
      vertex 28.452786408364773 12.160845211148262 2.4000000000000057
    endloop
  endfacet
  facet normal 0.15643444971321585 -0.9876883430226983 0
    outer loop
      vertex 28.452786408364773 12.160845211148262 2.4000000000000057
      vertex 28.452786408364773 12.160845211148262 0
      vertex 28.700000002980232 12.199999994039535 2.4000000000000057
    endloop
  endfacet
  facet normal 0 -1 0
    outer loop
      vertex 28.700000002980232 12.199999994039535 2.4000000000000057
      vertex 28.700000002980232 12.199999994039535 0
      vertex 36.79999999701977 12.199999994039535 2.4000000000000057
    endloop
  endfacet
  facet normal -1 0 0
    outer loop
      vertex 37.599999994039536 8.800000002980232 2.4000000000000057
      vertex 37.599999994039536 11.399999997019767 2.4000000000000057
      vertex 37.599999994039536 11.399999997019767 0
    endloop
  endfacet
  facet normal -0.45399050800249663 -0.8910065199781846 0
    outer loop
      vertex 37.27022819966078 12.04721359014511 2.4000000000000057
      vertex 37.04721359163523 12.160845211148262 2.4000000000000057
      vertex 37.04721359163523 12.160845211148262 0
    endloop
  endfacet
  facet normal -0.9876883430226983 -0.15643444971321585 0
    outer loop
      vertex 37.599999994039536 11.399999997019767 2.4000000000000057
      vertex 37.56084521114826 11.647213591635227 2.4000000000000057
      vertex 37.56084521114826 11.647213591635227 0
    endloop
  endfacet
  facet normal -0.8910065199781846 -0.45399050800249663 0
    outer loop
      vertex 37.56084521114826 11.647213591635227 2.4000000000000057
      vertex 37.44721359014511 11.870228199660778 2.4000000000000057
      vertex 37.44721359014511 11.870228199660778 0
    endloop
  endfacet
  facet normal -0.7071067811865476 -0.7071067811865476 0
    outer loop
      vertex 37.44721359014511 11.870228199660778 2.4000000000000057
      vertex 37.27022819966078 12.04721359014511 2.4000000000000057
      vertex 37.27022819966078 12.04721359014511 0
    endloop
  endfacet
  facet normal -0.15643444971321585 -0.9876883430226983 0
    outer loop
      vertex 37.04721359163523 12.160845211148262 2.4000000000000057
      vertex 36.79999999701977 12.199999994039535 2.4000000000000057
      vertex 36.79999999701977 12.199999994039535 0
    endloop
  endfacet
  facet normal 0.8910065199781846 0.45399050800249663 0
    outer loop
      vertex 40.30278640985489 9.329771800339222 2.4000000000000057
      vertex 40.30278640985489 9.329771800339222 0
      vertex 40.18915478885174 9.552786408364772 2.4000000000000057
    endloop
  endfacet
  facet normal 0.9876883430226983 0.15643444971321585 0
    outer loop
      vertex 40.18915478885174 9.552786408364772 2.4000000000000057
      vertex 40.18915478885174 9.552786408364772 0
      vertex 40.150000005960464 9.800000002980232 2.4000000000000057
    endloop
  endfacet
  facet normal 1 0 0
    outer loop
      vertex 40.150000005960464 9.800000002980232 2.4000000000000057
      vertex 40.150000005960464 9.800000002980232 0
      vertex 40.150000005960464 11.399999997019767 2.4000000000000057
    endloop
  endfacet
  facet normal 0.9876883430226983 -0.15643444971321585 0
    outer loop
      vertex 40.150000005960464 11.399999997019767 2.4000000000000057
      vertex 40.150000005960464 11.399999997019767 0
      vertex 40.18915478885174 11.647213591635227 2.4000000000000057
    endloop
  endfacet
  facet normal 0.8910065199781846 -0.45399050800249663 0
    outer loop
      vertex 40.18915478885174 11.647213591635227 2.4000000000000057
      vertex 40.18915478885174 11.647213591635227 0
      vertex 40.30278640985489 11.870228199660778 2.4000000000000057
    endloop
  endfacet
  facet normal 0.7071067811865476 -0.7071067811865476 0
    outer loop
      vertex 40.30278640985489 11.870228199660778 2.4000000000000057
      vertex 40.30278640985489 11.870228199660778 0
      vertex 40.47977180033922 12.04721359014511 2.4000000000000057
    endloop
  endfacet
  facet normal 0.45399050800249663 -0.8910065199781846 0
    outer loop
      vertex 40.47977180033922 12.04721359014511 2.4000000000000057
      vertex 40.47977180033922 12.04721359014511 0
      vertex 40.70278640836477 12.160845211148262 2.4000000000000057
    endloop
  endfacet
  facet normal 0.15643444971321585 -0.9876883430226983 0
    outer loop
      vertex 40.70278640836477 12.160845211148262 2.4000000000000057
      vertex 40.70278640836477 12.160845211148262 0
      vertex 40.95000000298023 12.199999994039535 2.4000000000000057
    endloop
  endfacet
  facet normal 0 0 1
    outer loop
      vertex 12.952786408364773 12.160845211148262 2.4000000000000057
      vertex 0 36.95 2.4000000000000057
      vertex 0 9.3894736861258 2.4000000000000057
    endloop
  endfacet
  facet normal 0 0 1
    outer loop
      vertex 12.952786408364773 12.160845211148262 2.4000000000000057
      vertex 13.200000002980232 12.199999994039535 2.4000000000000057
      vertex 0 36.95 2.4000000000000057
    endloop
  endfacet
  facet normal -1 0 0
    outer loop
      vertex 0 9.3894736861258 2.4000000000000057
      vertex 0 36.95 2.4000000000000057
      vertex 0 36.95 0
    endloop
  endfacet
  facet normal 0 0 1
    outer loop
      vertex 13.200000002980232 12.199999994039535 2.4000000000000057
      vertex 68.77733188909411 28.08510750343269 2.4000000000000057
      vertex 0 36.95 2.4000000000000057
    endloop
  endfacet
  facet normal -1 0 0
    outer loop
      vertex 0 9.951857110813 0
      vertex 0 0 0
      vertex 0 0 2.4000000000000057
    endloop
  endfacet
  facet normal 0.15643444971321585 0.9876883430226983 0
    outer loop
      vertex 12.952786408364773 8.039154788851738 2.4000000000000057
      vertex 13.200000002980232 8.000000005960464 0
      vertex 12.952786408364773 8.039154788851738 0
    endloop
  endfacet
  facet normal 0.45399050800249663 0.8910065199781846 0
    outer loop
      vertex 12.729771800339222 8.152786409854889 2.4000000000000057
      vertex 12.952786408364773 8.039154788851738 0
      vertex 12.729771800339222 8.152786409854889 0
    endloop
  endfacet
  facet normal 0.7071067811865476 0.7071067811865476 0
    outer loop
      vertex 12.552786409854889 8.329771800339222 2.4000000000000057
      vertex 12.729771800339222 8.152786409854889 0
      vertex 12.552786409854889 8.329771800339222 0
    endloop
  endfacet
  facet normal 0.8910065199781846 0.45399050800249663 0
    outer loop
      vertex 12.439154788851738 8.552786408364772 2.4000000000000057
      vertex 12.552786409854889 8.329771800339222 0
      vertex 12.439154788851738 8.552786408364772 0
    endloop
  endfacet
  facet normal 0.9876883430226983 0.15643444971321585 0
    outer loop
      vertex 12.400000005960464 8.800000002980232 2.4000000000000057
      vertex 12.439154788851738 8.552786408364772 0
      vertex 12.400000005960464 8.800000002980232 0
    endloop
  endfacet
  facet normal 0 1 0
    outer loop
      vertex 13.200000002980232 8.000000005960464 2.4000000000000057
      vertex 21.299999997019768 8.000000005960464 0
      vertex 13.200000002980232 8.000000005960464 0
    endloop
  endfacet
  facet normal -0.15643444971321585 0.9876883430226983 0
    outer loop
      vertex 21.299999997019768 8.000000005960464 2.4000000000000057
      vertex 21.547213591635227 8.039154788851738 0
      vertex 21.299999997019768 8.000000005960464 0
    endloop
  endfacet
  facet normal -1 0 0
    outer loop
      vertex 0 9.951857110813 0
      vertex 0 0 2.4000000000000057
      vertex 0 36.95 0
    endloop
  endfacet
  facet normal 1 0 0
    outer loop
      vertex 12.400000005960464 8.800000002980232 0
      vertex 12.400000005960464 11.399999997019767 0
      vertex 12.400000005960464 11.399999997019767 2.4000000000000057
    endloop
  endfacet
  facet normal 0.9876883430226983 -0.15643444971321585 0
    outer loop
      vertex 12.439154788851738 11.647213591635227 2.4000000000000057
      vertex 12.400000005960464 11.399999997019767 0
      vertex 12.439154788851738 11.647213591635227 0
    endloop
  endfacet
  facet normal 0.8910065199781846 -0.45399050800249663 0
    outer loop
      vertex 12.552786409854889 11.870228199660778 2.4000000000000057
      vertex 12.439154788851738 11.647213591635227 0
      vertex 12.552786409854889 11.870228199660778 0
    endloop
  endfacet
  facet normal 0.7071067811865476 -0.7071067811865476 0
    outer loop
      vertex 12.729771800339222 12.04721359014511 2.4000000000000057
      vertex 12.552786409854889 11.870228199660778 0
      vertex 12.729771800339222 12.04721359014511 0
    endloop
  endfacet
  facet normal 0.45399050800249663 -0.8910065199781846 0
    outer loop
      vertex 12.952786408364773 12.160845211148262 2.4000000000000057
      vertex 12.729771800339222 12.04721359014511 0
      vertex 12.952786408364773 12.160845211148262 0
    endloop
  endfacet
  facet normal 0.15643444971321585 -0.9876883430226983 0
    outer loop
      vertex 13.200000002980232 12.199999994039535 2.4000000000000057
      vertex 12.952786408364773 12.160845211148262 0
      vertex 13.200000002980232 12.199999994039535 0
    endloop
  endfacet
  facet normal 0 -1 0
    outer loop
      vertex 13.200000002980232 12.199999994039535 0
      vertex 21.299999997019768 12.199999994039535 0
      vertex 21.299999997019768 12.199999994039535 2.4000000000000057
    endloop
  endfacet
  facet normal -0.15643444971321585 -0.9876883430226983 0
    outer loop
      vertex 21.547213591635227 12.160845211148262 2.4000000000000057
      vertex 21.299999997019768 12.199999994039535 0
      vertex 21.547213591635227 12.160845211148262 0
    endloop
  endfacet
  facet normal 0 0 -1
    outer loop
      vertex 13.200000002980232 8.000000005960464 0
      vertex 0 0 0
      vertex 0 9.951857110813 0
    endloop
  endfacet
  facet normal 0 0 -1
    outer loop
      vertex 12.552786409854889 8.329771800339222 0
      vertex 12.729771800339222 8.152786409854889 0
      vertex 0 9.951857110813 0
    endloop
  endfacet
  facet normal 0 0 -1
    outer loop
      vertex 12.552786409854889 8.329771800339222 0
      vertex 0 9.951857110813 0
      vertex 12.439154788851738 8.552786408364772 0
    endloop
  endfacet
  facet normal 0 0 -1
    outer loop
      vertex 12.952786408364773 8.039154788851738 0
      vertex 0 9.951857110813 0
      vertex 12.729771800339222 8.152786409854889 0
    endloop
  endfacet
  facet normal 0 0 -1
    outer loop
      vertex 12.952786408364773 8.039154788851738 0
      vertex 13.200000002980232 8.000000005960464 0
      vertex 0 9.951857110813 0
    endloop
  endfacet
  facet normal 0 0 -1
    outer loop
      vertex 12.439154788851738 8.552786408364772 0
      vertex 0 9.951857110813 0
      vertex 12.400000005960464 8.800000002980232 0
    endloop
  endfacet
  facet normal 0 0 -1
    outer loop
      vertex 13.200000002980232 8.000000005960464 0
      vertex 21.299999997019768 8.000000005960464 0
      vertex 0 0 0
    endloop
  endfacet
  facet normal 0 0 -1
    outer loop
      vertex 21.299999997019768 8.000000005960464 0
      vertex 28.700000002980232 8.000000005960464 0
      vertex 0 0 0
    endloop
  endfacet
  facet normal 0 0 -1
    outer loop
      vertex 12.400000005960464 8.800000002980232 0
      vertex 0 9.951857110813 0
      vertex 12.400000005960464 11.399999997019767 0
    endloop
  endfacet
  facet normal 0 0 -1
    outer loop
      vertex 12.400000005960464 11.399999997019767 0
      vertex 0 9.951857110813 0
      vertex 12.439154788851738 11.647213591635227 0
    endloop
  endfacet
  facet normal 0 0 -1
    outer loop
      vertex 12.439154788851738 11.647213591635227 0
      vertex 0 9.951857110813 0
      vertex 12.552786409854889 11.870228199660778 0
    endloop
  endfacet
  facet normal 0 0 -1
    outer loop
      vertex 12.552786409854889 11.870228199660778 0
      vertex 0 9.951857110813 0
      vertex 12.729771800339222 12.04721359014511 0
    endloop
  endfacet
  facet normal 0 0 -1
    outer loop
      vertex 12.729771800339222 12.04721359014511 0
      vertex 0 9.951857110813 0
      vertex 12.952786408364773 12.160845211148262 0
    endloop
  endfacet
  facet normal -0.45399050800249663 0.8910065199781846 0
    outer loop
      vertex 21.547213591635227 8.039154788851738 2.4000000000000057
      vertex 21.770228199660778 8.152786409854889 0
      vertex 21.547213591635227 8.039154788851738 0
    endloop
  endfacet
  facet normal -0.7071067811865476 0.7071067811865476 0
    outer loop
      vertex 21.770228199660778 8.152786409854889 2.4000000000000057
      vertex 21.94721359014511 8.329771800339222 0
      vertex 21.770228199660778 8.152786409854889 0
    endloop
  endfacet
  facet normal -0.8910065199781846 0.45399050800249663 0
    outer loop
      vertex 21.94721359014511 8.329771800339222 2.4000000000000057
      vertex 22.060845211148262 8.552786408364772 0
      vertex 21.94721359014511 8.329771800339222 0
    endloop
  endfacet
  facet normal -0.9876883430226983 0.15643444971321585 0
    outer loop
      vertex 22.060845211148262 8.552786408364772 2.4000000000000057
      vertex 22.099999994039536 8.800000002980232 0
      vertex 22.060845211148262 8.552786408364772 0
    endloop
  endfacet
  facet normal 0.15643444971321585 0.9876883430226983 0
    outer loop
      vertex 28.452786408364773 8.039154788851738 2.4000000000000057
      vertex 28.700000002980232 8.000000005960464 0
      vertex 28.452786408364773 8.039154788851738 0
    endloop
  endfacet
  facet normal 0.45399050800249663 0.8910065199781846 0
    outer loop
      vertex 28.229771800339222 8.152786409854889 2.4000000000000057
      vertex 28.452786408364773 8.039154788851738 0
      vertex 28.229771800339222 8.152786409854889 0
    endloop
  endfacet
  facet normal 0.7071067811865476 0.7071067811865476 0
    outer loop
      vertex 28.05278640985489 8.329771800339222 2.4000000000000057
      vertex 28.229771800339222 8.152786409854889 0
      vertex 28.05278640985489 8.329771800339222 0
    endloop
  endfacet
  facet normal 0.8910065199781846 0.45399050800249663 0
    outer loop
      vertex 27.939154788851738 8.552786408364772 2.4000000000000057
      vertex 28.05278640985489 8.329771800339222 0
      vertex 27.939154788851738 8.552786408364772 0
    endloop
  endfacet
  facet normal 0.9876883430226983 0.15643444971321585 0
    outer loop
      vertex 27.900000005960464 8.800000002980232 2.4000000000000057
      vertex 27.939154788851738 8.552786408364772 0
      vertex 27.900000005960464 8.800000002980232 0
    endloop
  endfacet
  facet normal 0 1 0
    outer loop
      vertex 28.700000002980232 8.000000005960464 2.4000000000000057
      vertex 36.79999999701977 8.000000005960464 0
      vertex 28.700000002980232 8.000000005960464 0
    endloop
  endfacet
  facet normal -0.15643444971321585 0.9876883430226983 0
    outer loop
      vertex 36.79999999701977 8.000000005960464 2.4000000000000057
      vertex 37.04721359163523 8.039154788851738 0
      vertex 36.79999999701977 8.000000005960464 0
    endloop
  endfacet
  facet normal -0.45399050800249663 0.8910065199781846 0
    outer loop
      vertex 37.04721359163523 8.039154788851738 2.4000000000000057
      vertex 37.27022819966078 8.152786409854889 0
      vertex 37.04721359163523 8.039154788851738 0
    endloop
  endfacet
  facet normal -0.7071067811865476 0.7071067811865476 0
    outer loop
      vertex 37.27022819966078 8.152786409854889 2.4000000000000057
      vertex 37.44721359014511 8.329771800339222 0
      vertex 37.27022819966078 8.152786409854889 0
    endloop
  endfacet
  facet normal -0.8910065199781846 0.45399050800249663 0
    outer loop
      vertex 37.44721359014511 8.329771800339222 2.4000000000000057
      vertex 37.56084521114826 8.552786408364772 0
      vertex 37.44721359014511 8.329771800339222 0
    endloop
  endfacet
  facet normal -0.9876883430226983 0.15643444971321585 0
    outer loop
      vertex 37.56084521114826 8.552786408364772 2.4000000000000057
      vertex 37.599999994039536 8.800000002980232 0
      vertex 37.56084521114826 8.552786408364772 0
    endloop
  endfacet
  facet normal 0.15643444971321585 0.9876883430226983 0
    outer loop
      vertex 40.95000000298023 9.000000005960464 0
      vertex 40.70278640836477 9.039154788851738 0
      vertex 40.70278640836477 9.039154788851738 2.4000000000000057
    endloop
  endfacet
  facet normal 0.45399050800249663 0.8910065199781846 0
    outer loop
      vertex 40.47977180033922 9.152786409854889 2.4000000000000057
      vertex 40.70278640836477 9.039154788851738 0
      vertex 40.47977180033922 9.152786409854889 0
    endloop
  endfacet
  facet normal -1 0 0
    outer loop
      vertex 22.099999994039536 8.800000002980232 2.4000000000000057
      vertex 22.099999994039536 11.399999997019767 0
      vertex 22.099999994039536 8.800000002980232 0
    endloop
  endfacet
  facet normal -0.9876883430226983 -0.15643444971321585 0
    outer loop
      vertex 22.099999994039536 11.399999997019767 2.4000000000000057
      vertex 22.060845211148262 11.647213591635227 0
      vertex 22.099999994039536 11.399999997019767 0
    endloop
  endfacet
  facet normal -0.8910065199781846 -0.45399050800249663 0
    outer loop
      vertex 22.060845211148262 11.647213591635227 2.4000000000000057
      vertex 21.94721359014511 11.870228199660778 0
      vertex 22.060845211148262 11.647213591635227 0
    endloop
  endfacet
  facet normal -0.7071067811865476 -0.7071067811865476 0
    outer loop
      vertex 21.94721359014511 11.870228199660778 2.4000000000000057
      vertex 21.770228199660778 12.04721359014511 0
      vertex 21.94721359014511 11.870228199660778 0
    endloop
  endfacet
  facet normal -0.45399050800249663 -0.8910065199781846 0
    outer loop
      vertex 21.770228199660778 12.04721359014511 2.4000000000000057
      vertex 21.547213591635227 12.160845211148262 0
      vertex 21.770228199660778 12.04721359014511 0
    endloop
  endfacet
  facet normal 1 0 0
    outer loop
      vertex 27.900000005960464 8.800000002980232 0
      vertex 27.900000005960464 11.399999997019767 0
      vertex 27.900000005960464 11.399999997019767 2.4000000000000057
    endloop
  endfacet
  facet normal 0.9876883430226983 -0.15643444971321585 0
    outer loop
      vertex 27.939154788851738 11.647213591635227 2.4000000000000057
      vertex 27.900000005960464 11.399999997019767 0
      vertex 27.939154788851738 11.647213591635227 0
    endloop
  endfacet
  facet normal 0.8910065199781846 -0.45399050800249663 0
    outer loop
      vertex 28.05278640985489 11.870228199660778 2.4000000000000057
      vertex 27.939154788851738 11.647213591635227 0
      vertex 28.05278640985489 11.870228199660778 0
    endloop
  endfacet
  facet normal 0.7071067811865476 -0.7071067811865476 0
    outer loop
      vertex 28.229771800339222 12.04721359014511 2.4000000000000057
      vertex 28.05278640985489 11.870228199660778 0
      vertex 28.229771800339222 12.04721359014511 0
    endloop
  endfacet
  facet normal 0.45399050800249663 -0.8910065199781846 0
    outer loop
      vertex 28.229771800339222 12.04721359014511 0
      vertex 28.452786408364773 12.160845211148262 0
      vertex 28.452786408364773 12.160845211148262 2.4000000000000057
    endloop
  endfacet
  facet normal 0.15643444971321585 -0.9876883430226983 0
    outer loop
      vertex 28.700000002980232 12.199999994039535 2.4000000000000057
      vertex 28.452786408364773 12.160845211148262 0
      vertex 28.700000002980232 12.199999994039535 0
    endloop
  endfacet
  facet normal -1 0 0
    outer loop
      vertex 37.599999994039536 8.800000002980232 2.4000000000000057
      vertex 37.599999994039536 11.399999997019767 0
      vertex 37.599999994039536 8.800000002980232 0
    endloop
  endfacet
  facet normal -0.9876883430226983 -0.15643444971321585 0
    outer loop
      vertex 37.599999994039536 11.399999997019767 2.4000000000000057
      vertex 37.56084521114826 11.647213591635227 0
      vertex 37.599999994039536 11.399999997019767 0
    endloop
  endfacet
  facet normal 0 -1 0
    outer loop
      vertex 28.700000002980232 12.199999994039535 0
      vertex 36.79999999701977 12.199999994039535 0
      vertex 36.79999999701977 12.199999994039535 2.4000000000000057
    endloop
  endfacet
  facet normal -0.8910065199781846 -0.45399050800249663 0
    outer loop
      vertex 37.56084521114826 11.647213591635227 2.4000000000000057
      vertex 37.44721359014511 11.870228199660778 0
      vertex 37.56084521114826 11.647213591635227 0
    endloop
  endfacet
  facet normal -0.7071067811865476 -0.7071067811865476 0
    outer loop
      vertex 37.44721359014511 11.870228199660778 2.4000000000000057
      vertex 37.27022819966078 12.04721359014511 0
      vertex 37.44721359014511 11.870228199660778 0
    endloop
  endfacet
  facet normal -0.45399050800249663 -0.8910065199781846 0
    outer loop
      vertex 37.27022819966078 12.04721359014511 2.4000000000000057
      vertex 37.04721359163523 12.160845211148262 0
      vertex 37.27022819966078 12.04721359014511 0
    endloop
  endfacet
  facet normal -0.15643444971321585 -0.9876883430226983 0
    outer loop
      vertex 37.04721359163523 12.160845211148262 2.4000000000000057
      vertex 36.79999999701977 12.199999994039535 0
      vertex 37.04721359163523 12.160845211148262 0
    endloop
  endfacet
  facet normal 0.7071067811865476 0.7071067811865476 0
    outer loop
      vertex 40.30278640985489 9.329771800339222 2.4000000000000057
      vertex 40.47977180033922 9.152786409854889 0
      vertex 40.30278640985489 9.329771800339222 0
    endloop
  endfacet
  facet normal 0.8910065199781846 0.45399050800249663 0
    outer loop
      vertex 40.18915478885174 9.552786408364772 2.4000000000000057
      vertex 40.30278640985489 9.329771800339222 0
      vertex 40.18915478885174 9.552786408364772 0
    endloop
  endfacet
  facet normal 0.9876883430226983 0.15643444971321585 0
    outer loop
      vertex 40.150000005960464 9.800000002980232 2.4000000000000057
      vertex 40.18915478885174 9.552786408364772 0
      vertex 40.150000005960464 9.800000002980232 0
    endloop
  endfacet
  facet normal 1 0 0
    outer loop
      vertex 40.150000005960464 9.800000002980232 0
      vertex 40.150000005960464 11.399999997019767 0
      vertex 40.150000005960464 11.399999997019767 2.4000000000000057
    endloop
  endfacet
  facet normal 0.9876883430226983 -0.15643444971321585 0
    outer loop
      vertex 40.18915478885174 11.647213591635227 2.4000000000000057
      vertex 40.150000005960464 11.399999997019767 0
      vertex 40.18915478885174 11.647213591635227 0
    endloop
  endfacet
  facet normal 0.8910065199781846 -0.45399050800249663 0
    outer loop
      vertex 40.30278640985489 11.870228199660778 2.4000000000000057
      vertex 40.18915478885174 11.647213591635227 0
      vertex 40.30278640985489 11.870228199660778 0
    endloop
  endfacet
  facet normal 0.7071067811865476 -0.7071067811865476 0
    outer loop
      vertex 40.47977180033922 12.04721359014511 2.4000000000000057
      vertex 40.30278640985489 11.870228199660778 0
      vertex 40.47977180033922 12.04721359014511 0
    endloop
  endfacet
  facet normal 0.45399050800249663 -0.8910065199781846 0
    outer loop
      vertex 40.70278640836477 12.160845211148262 2.4000000000000057
      vertex 40.47977180033922 12.04721359014511 0
      vertex 40.70278640836477 12.160845211148262 0
    endloop
  endfacet
  facet normal 0.15643444971321585 -0.9876883430226983 0
    outer loop
      vertex 40.95000000298023 12.199999994039535 2.4000000000000057
      vertex 40.70278640836477 12.160845211148262 0
      vertex 40.95000000298023 12.199999994039535 0
    endloop
  endfacet
  facet normal 0 0 -1
    outer loop
      vertex 28.700000002980232 8.000000005960464 0
      vertex 36.79999999701977 8.000000005960464 0
      vertex 0 0 0
    endloop
  endfacet
  facet normal 0 0 -1
    outer loop
      vertex 21.299999997019768 8.000000005960464 0
      vertex 21.547213591635227 8.039154788851738 0
      vertex 28.700000002980232 8.000000005960464 0
    endloop
  endfacet
  facet normal 0 0 -1
    outer loop
      vertex 21.547213591635227 8.039154788851738 0
      vertex 21.770228199660778 8.152786409854889 0
      vertex 28.452786408364773 8.039154788851738 0
    endloop
  endfacet
  facet normal 0 0 -1
    outer loop
      vertex 21.770228199660778 8.152786409854889 0
      vertex 21.94721359014511 8.329771800339222 0
      vertex 28.229771800339222 8.152786409854889 0
    endloop
  endfacet
  facet normal 0 0 -1
    outer loop
      vertex 21.94721359014511 8.329771800339222 0
      vertex 22.060845211148262 8.552786408364772 0
      vertex 28.05278640985489 8.329771800339222 0
    endloop
  endfacet
  facet normal 0 0 -1
    outer loop
      vertex 22.060845211148262 8.552786408364772 0
      vertex 22.099999994039536 8.800000002980232 0
      vertex 27.939154788851738 8.552786408364772 0
    endloop
  endfacet
  facet normal 0 0 -1
    outer loop
      vertex 21.547213591635227 8.039154788851738 0
      vertex 28.452786408364773 8.039154788851738 0
      vertex 28.700000002980232 8.000000005960464 0
    endloop
  endfacet
  facet normal 0 0 -1
    outer loop
      vertex 21.770228199660778 8.152786409854889 0
      vertex 28.229771800339222 8.152786409854889 0
      vertex 28.452786408364773 8.039154788851738 0
    endloop
  endfacet
  facet normal 0 0 -1
    outer loop
      vertex 21.94721359014511 8.329771800339222 0
      vertex 28.05278640985489 8.329771800339222 0
      vertex 28.229771800339222 8.152786409854889 0
    endloop
  endfacet
  facet normal 0 0 -1
    outer loop
      vertex 22.060845211148262 8.552786408364772 0
      vertex 27.939154788851738 8.552786408364772 0
      vertex 28.05278640985489 8.329771800339222 0
    endloop
  endfacet
  facet normal 0 0 -1
    outer loop
      vertex 22.099999994039536 8.800000002980232 0
      vertex 27.900000005960464 8.800000002980232 0
      vertex 27.939154788851738 8.552786408364772 0
    endloop
  endfacet
  facet normal 0 0 -1
    outer loop
      vertex 36.79999999701977 8.000000005960464 0
      vertex 54.54999999701977 9.000000005960464 0
      vertex 0 0 0
    endloop
  endfacet
  facet normal 0 0 -1
    outer loop
      vertex 54.54999999701977 9.000000005960464 0
      vertex 54.79721359163523 9.039154788851738 0
      vertex 0 0 0
    endloop
  endfacet
  facet normal 0 0 -1
    outer loop
      vertex 37.04721359163523 8.039154788851738 0
      vertex 37.27022819966078 8.152786409854889 0
      vertex 40.95000000298023 9.000000005960464 0
    endloop
  endfacet
  facet normal 0 0 -1
    outer loop
      vertex 37.27022819966078 8.152786409854889 0
      vertex 37.44721359014511 8.329771800339222 0
      vertex 40.70278640836477 9.039154788851738 0
    endloop
  endfacet
  facet normal 0 0 -1
    outer loop
      vertex 37.44721359014511 8.329771800339222 0
      vertex 37.56084521114826 8.552786408364772 0
      vertex 40.47977180033922 9.152786409854889 0
    endloop
  endfacet
  facet normal 0 0 -1
    outer loop
      vertex 37.56084521114826 8.552786408364772 0
      vertex 37.599999994039536 8.800000002980232 0
      vertex 40.30278640985489 9.329771800339222 0
    endloop
  endfacet
  facet normal 0 0 -1
    outer loop
      vertex 37.27022819966078 8.152786409854889 0
      vertex 40.70278640836477 9.039154788851738 0
      vertex 40.95000000298023 9.000000005960464 0
    endloop
  endfacet
  facet normal 0 0 -1
    outer loop
      vertex 37.44721359014511 8.329771800339222 0
      vertex 40.47977180033922 9.152786409854889 0
      vertex 40.70278640836477 9.039154788851738 0
    endloop
  endfacet
  facet normal 0 0 -1
    outer loop
      vertex 37.56084521114826 8.552786408364772 0
      vertex 40.30278640985489 9.329771800339222 0
      vertex 40.47977180033922 9.152786409854889 0
    endloop
  endfacet
  facet normal 0 0 -1
    outer loop
      vertex 37.599999994039536 8.800000002980232 0
      vertex 40.18915478885174 9.552786408364772 0
      vertex 40.30278640985489 9.329771800339222 0
    endloop
  endfacet
  facet normal 0 0 -1
    outer loop
      vertex 36.79999999701977 8.000000005960464 0
      vertex 37.04721359163523 8.039154788851738 0
      vertex 54.54999999701977 9.000000005960464 0
    endloop
  endfacet
  facet normal 0 0 -1
    outer loop
      vertex 22.099999994039536 8.800000002980232 0
      vertex 22.099999994039536 11.399999997019767 0
      vertex 27.900000005960464 8.800000002980232 0
    endloop
  endfacet
  facet normal 0 0 -1
    outer loop
      vertex 22.099999994039536 11.399999997019767 0
      vertex 22.060845211148262 11.647213591635227 0
      vertex 27.900000005960464 11.399999997019767 0
    endloop
  endfacet
  facet normal 0 0 -1
    outer loop
      vertex 27.900000005960464 8.800000002980232 0
      vertex 22.099999994039536 11.399999997019767 0
      vertex 27.900000005960464 11.399999997019767 0
    endloop
  endfacet
  facet normal 0 0 -1
    outer loop
      vertex 22.060845211148262 11.647213591635227 0
      vertex 21.94721359014511 11.870228199660778 0
      vertex 27.939154788851738 11.647213591635227 0
    endloop
  endfacet
  facet normal 0 0 -1
    outer loop
      vertex 21.94721359014511 11.870228199660778 0
      vertex 21.770228199660778 12.04721359014511 0
      vertex 28.05278640985489 11.870228199660778 0
    endloop
  endfacet
  facet normal 0 0 -1
    outer loop
      vertex 21.770228199660778 12.04721359014511 0
      vertex 21.547213591635227 12.160845211148262 0
      vertex 28.229771800339222 12.04721359014511 0
    endloop
  endfacet
  facet normal 0 0 -1
    outer loop
      vertex 21.299999997019768 12.199999994039535 0
      vertex 28.452786408364773 12.160845211148262 0
      vertex 21.547213591635227 12.160845211148262 0
    endloop
  endfacet
  facet normal 0 0 -1
    outer loop
      vertex 22.060845211148262 11.647213591635227 0
      vertex 27.939154788851738 11.647213591635227 0
      vertex 27.900000005960464 11.399999997019767 0
    endloop
  endfacet
  facet normal 0 0 -1
    outer loop
      vertex 21.94721359014511 11.870228199660778 0
      vertex 28.05278640985489 11.870228199660778 0
      vertex 27.939154788851738 11.647213591635227 0
    endloop
  endfacet
  facet normal 0 0 -1
    outer loop
      vertex 21.770228199660778 12.04721359014511 0
      vertex 28.229771800339222 12.04721359014511 0
      vertex 28.05278640985489 11.870228199660778 0
    endloop
  endfacet
  facet normal 0 0 -1
    outer loop
      vertex 21.547213591635227 12.160845211148262 0
      vertex 28.452786408364773 12.160845211148262 0
      vertex 28.229771800339222 12.04721359014511 0
    endloop
  endfacet
  facet normal 0 0 -1
    outer loop
      vertex 21.299999997019768 12.199999994039535 0
      vertex 28.700000002980232 12.199999994039535 0
      vertex 28.452786408364773 12.160845211148262 0
    endloop
  endfacet
  facet normal 0 0 -1
    outer loop
      vertex 37.599999994039536 8.800000002980232 0
      vertex 37.599999994039536 11.399999997019767 0
      vertex 40.150000005960464 9.800000002980232 0
    endloop
  endfacet
  facet normal 0 0 -1
    outer loop
      vertex 37.599999994039536 8.800000002980232 0
      vertex 40.150000005960464 9.800000002980232 0
      vertex 40.18915478885174 9.552786408364772 0
    endloop
  endfacet
  facet normal 0 0 -1
    outer loop
      vertex 37.599999994039536 11.399999997019767 0
      vertex 40.150000005960464 11.399999997019767 0
      vertex 40.150000005960464 9.800000002980232 0
    endloop
  endfacet
  facet normal 0 0 -1
    outer loop
      vertex 37.599999994039536 11.399999997019767 0
      vertex 40.18915478885174 11.647213591635227 0
      vertex 40.150000005960464 11.399999997019767 0
    endloop
  endfacet
  facet normal 0 0 -1
    outer loop
      vertex 37.599999994039536 11.399999997019767 0
      vertex 40.30278640985489 11.870228199660778 0
      vertex 40.18915478885174 11.647213591635227 0
    endloop
  endfacet
  facet normal 0 0 -1
    outer loop
      vertex 37.599999994039536 11.399999997019767 0
      vertex 40.47977180033922 12.04721359014511 0
      vertex 40.30278640985489 11.870228199660778 0
    endloop
  endfacet
  facet normal 0 0 -1
    outer loop
      vertex 37.599999994039536 11.399999997019767 0
      vertex 40.70278640836477 12.160845211148262 0
      vertex 40.47977180033922 12.04721359014511 0
    endloop
  endfacet
  facet normal 0 0 -1
    outer loop
      vertex 12.952786408364773 12.160845211148262 0
      vertex 0 9.951857110813 0
      vertex 0 36.95 0
    endloop
  endfacet
  facet normal 0 1 0
    outer loop
      vertex 0 36.95 2.4000000000000057
      vertex 75.36792585209557 36.95 0
      vertex 0 36.95 0
    endloop
  endfacet
  facet normal 0 0 -1
    outer loop
      vertex 12.952786408364773 12.160845211148262 0
      vertex 75.36792585209557 36.95 0
      vertex 13.200000002980232 12.199999994039535 0
    endloop
  endfacet
  facet normal 0 0 -1
    outer loop
      vertex 13.200000002980232 12.199999994039535 0
      vertex 75.36792585209557 36.95 0
      vertex 21.299999997019768 12.199999994039535 0
    endloop
  endfacet
  facet normal 0 0 -1
    outer loop
      vertex 21.299999997019768 12.199999994039535 0
      vertex 75.36792585209557 36.95 0
      vertex 28.700000002980232 12.199999994039535 0
    endloop
  endfacet
  facet normal 0 0 -1
    outer loop
      vertex 12.952786408364773 12.160845211148262 0
      vertex 0 36.95 0
      vertex 75.36792585209557 36.95 0
    endloop
  endfacet
  facet normal 0 0 1
    outer loop
      vertex 21.299999997019768 8.000000005960464 2.4000000000000057
      vertex 86.4 0 2.4000000000000057
      vertex 28.700000002980232 8.000000005960464 2.4000000000000057
    endloop
  endfacet
  facet normal 0 0 1
    outer loop
      vertex 28.700000002980232 8.000000005960464 2.4000000000000057
      vertex 86.4 0 2.4000000000000057
      vertex 36.79999999701977 8.000000005960464 2.4000000000000057
    endloop
  endfacet
  facet normal 0 0 1
    outer loop
      vertex 36.79999999701977 8.000000005960464 2.4000000000000057
      vertex 86.4 0 2.4000000000000057
      vertex 37.04721359163523 8.039154788851738 2.4000000000000057
    endloop
  endfacet
  facet normal 0 0 1
    outer loop
      vertex 37.04721359163523 8.039154788851738 2.4000000000000057
      vertex 86.4 0 2.4000000000000057
      vertex 37.27022819966078 8.152786409854889 2.4000000000000057
    endloop
  endfacet
  facet normal 0 0 1
    outer loop
      vertex 37.27022819966078 8.152786409854889 2.4000000000000057
      vertex 86.4 0 2.4000000000000057
      vertex 37.44721359014511 8.329771800339222 2.4000000000000057
    endloop
  endfacet
  facet normal 0 0 1
    outer loop
      vertex 37.44721359014511 8.329771800339222 2.4000000000000057
      vertex 86.4 0 2.4000000000000057
      vertex 37.56084521114826 8.552786408364772 2.4000000000000057
    endloop
  endfacet
  facet normal 0 0 1
    outer loop
      vertex 37.56084521114826 8.552786408364772 2.4000000000000057
      vertex 86.4 0 2.4000000000000057
      vertex 37.599999994039536 8.800000002980232 2.4000000000000057
    endloop
  endfacet
  facet normal 0 0 1
    outer loop
      vertex 37.599999994039536 8.800000002980232 2.4000000000000057
      vertex 86.4 0 2.4000000000000057
      vertex 40.95000000298023 9.000000005960464 2.4000000000000057
    endloop
  endfacet
  facet normal 0 0 1
    outer loop
      vertex 40.95000000298023 9.000000005960464 2.4000000000000057
      vertex 86.4 0 2.4000000000000057
      vertex 54.54999999701977 9.000000005960464 2.4000000000000057
    endloop
  endfacet
  facet normal 0 0 1
    outer loop
      vertex 28.700000002980232 12.199999994039535 2.4000000000000057
      vertex 36.79999999701977 12.199999994039535 2.4000000000000057
      vertex 68.77733188909411 28.08510750343269 2.4000000000000057
    endloop
  endfacet
  facet normal 0 0 1
    outer loop
      vertex 37.04721359163523 12.160845211148262 2.4000000000000057
      vertex 68.77733188909411 28.08510750343269 2.4000000000000057
      vertex 36.79999999701977 12.199999994039535 2.4000000000000057
    endloop
  endfacet
  facet normal 0 0 1
    outer loop
      vertex 37.04721359163523 12.160845211148262 2.4000000000000057
      vertex 40.70278640836477 12.160845211148262 2.4000000000000057
      vertex 68.77733188909411 28.08510750343269 2.4000000000000057
    endloop
  endfacet
  facet normal 0 0 1
    outer loop
      vertex 40.70278640836477 12.160845211148262 2.4000000000000057
      vertex 40.95000000298023 12.199999994039535 2.4000000000000057
      vertex 68.77733188909411 28.08510750343269 2.4000000000000057
    endloop
  endfacet
  facet normal 0 0 1
    outer loop
      vertex 55.19721359014511 11.870228199660778 2.4000000000000057
      vertex 67.79015721174869 21.852331889094117 2.4000000000000057
      vertex 55.02022819966078 12.04721359014511 2.4000000000000057
    endloop
  endfacet
  facet normal 0 0 1
    outer loop
      vertex 54.79721359163523 12.160845211148262 2.4000000000000057
      vertex 55.02022819966078 12.04721359014511 2.4000000000000057
      vertex 67.79015721174869 21.852331889094117 2.4000000000000057
    endloop
  endfacet
  facet normal 0 0 1
    outer loop
      vertex 54.79721359163523 12.160845211148262 2.4000000000000057
      vertex 67.45000000000002 24 2.4000000000000057
      vertex 54.54999999701977 12.199999994039535 2.4000000000000057
    endloop
  endfacet
  facet normal 0 0 1
    outer loop
      vertex 40.95000000298023 12.199999994039535 2.4000000000000057
      vertex 54.54999999701977 12.199999994039535 2.4000000000000057
      vertex 67.79015721174869 26.147668110905883 2.4000000000000057
    endloop
  endfacet
  facet normal 0 0 1
    outer loop
      vertex 55.349999994039536 11.399999997019767 2.4000000000000057
      vertex 68.77733188909411 19.91489249656731 2.4000000000000057
      vertex 55.31084521114826 11.647213591635227 2.4000000000000057
    endloop
  endfacet
  facet normal 0 0 1
    outer loop
      vertex 55.19721359014511 11.870228199660778 2.4000000000000057
      vertex 55.31084521114826 11.647213591635227 2.4000000000000057
      vertex 68.77733188909411 19.91489249656731 2.4000000000000057
    endloop
  endfacet
  facet normal 0 0 1
    outer loop
      vertex 55.19721359014511 11.870228199660778 2.4000000000000057
      vertex 68.77733188909411 19.91489249656731 2.4000000000000057
      vertex 67.79015721174869 21.852331889094117 2.4000000000000057
    endloop
  endfacet
  facet normal 0 1 0
    outer loop
      vertex 40.95000000298023 9.000000005960464 2.4000000000000057
      vertex 54.54999999701977 9.000000005960464 2.4000000000000057
      vertex 54.54999999701977 9.000000005960464 0
    endloop
  endfacet
  facet normal -0.15643444971321585 0.9876883430226983 0
    outer loop
      vertex 54.54999999701977 9.000000005960464 2.4000000000000057
      vertex 54.79721359163523 9.039154788851738 2.4000000000000057
      vertex 54.79721359163523 9.039154788851738 0
    endloop
  endfacet
  facet normal -0.45399050800249663 0.8910065199781846 0
    outer loop
      vertex 54.79721359163523 9.039154788851738 2.4000000000000057
      vertex 55.02022819966078 9.152786409854889 2.4000000000000057
      vertex 55.02022819966078 9.152786409854889 0
    endloop
  endfacet
  facet normal 0 -1 0
    outer loop
      vertex 40.95000000298023 12.199999994039535 2.4000000000000057
      vertex 40.95000000298023 12.199999994039535 0
      vertex 54.54999999701977 12.199999994039535 2.4000000000000057
    endloop
  endfacet
  facet normal -0.7071067811865476 0.7071067811865476 0
    outer loop
      vertex 55.02022819966078 9.152786409854889 2.4000000000000057
      vertex 55.19721359014511 9.329771800339222 2.4000000000000057
      vertex 55.19721359014511 9.329771800339222 0
    endloop
  endfacet
  facet normal -0.8910065199781846 0.45399050800249663 0
    outer loop
      vertex 55.19721359014511 9.329771800339222 2.4000000000000057
      vertex 55.31084521114826 9.552786408364772 2.4000000000000057
      vertex 55.31084521114826 9.552786408364772 0
    endloop
  endfacet
  facet normal -0.9876883430226983 0.15643444971321585 0
    outer loop
      vertex 55.31084521114826 9.552786408364772 2.4000000000000057
      vertex 55.349999994039536 9.800000002980232 2.4000000000000057
      vertex 55.349999994039536 9.800000002980232 0
    endloop
  endfacet
  facet normal -1 0 0
    outer loop
      vertex 55.349999994039536 9.800000002980232 2.4000000000000057
      vertex 55.349999994039536 11.399999997019767 2.4000000000000057
      vertex 55.349999994039536 11.399999997019767 0
    endloop
  endfacet
  facet normal -0.9876883430226983 -0.15643444971321585 0
    outer loop
      vertex 55.349999994039536 11.399999997019767 2.4000000000000057
      vertex 55.31084521114826 11.647213591635227 2.4000000000000057
      vertex 55.31084521114826 11.647213591635227 0
    endloop
  endfacet
  facet normal -0.8910065199781846 -0.45399050800249663 0
    outer loop
      vertex 55.19721359014511 11.870228199660778 2.4000000000000057
      vertex 55.19721359014511 11.870228199660778 0
      vertex 55.31084521114826 11.647213591635227 2.4000000000000057
    endloop
  endfacet
  facet normal -0.45399050800249663 -0.8910065199781846 0
    outer loop
      vertex 54.79721359163523 12.160845211148262 2.4000000000000057
      vertex 54.79721359163523 12.160845211148262 0
      vertex 55.02022819966078 12.04721359014511 2.4000000000000057
    endloop
  endfacet
  facet normal -0.7071067811865476 -0.7071067811865476 0
    outer loop
      vertex 55.19721359014511 11.870228199660778 2.4000000000000057
      vertex 55.02022819966078 12.04721359014511 2.4000000000000057
      vertex 55.02022819966078 12.04721359014511 0
    endloop
  endfacet
  facet normal -0.15643444971321585 -0.9876883430226983 0
    outer loop
      vertex 54.79721359163523 12.160845211148262 2.4000000000000057
      vertex 54.54999999701977 12.199999994039535 2.4000000000000057
      vertex 54.54999999701977 12.199999994039535 0
    endloop
  endfacet
  facet normal 0 0 1
    outer loop
      vertex 54.54999999701977 9.000000005960464 2.4000000000000057
      vertex 86.4 0 2.4000000000000057
      vertex 54.79721359163523 9.039154788851738 2.4000000000000057
    endloop
  endfacet
  facet normal 0 0 1
    outer loop
      vertex 54.79721359163523 9.039154788851738 2.4000000000000057
      vertex 86.4 0 2.4000000000000057
      vertex 55.02022819966078 9.152786409854889 2.4000000000000057
    endloop
  endfacet
  facet normal 0 0 1
    outer loop
      vertex 55.02022819966078 9.152786409854889 2.4000000000000057
      vertex 86.4 0 2.4000000000000057
      vertex 55.19721359014511 9.329771800339222 2.4000000000000057
    endloop
  endfacet
  facet normal 0 0 1
    outer loop
      vertex 55.19721359014511 9.329771800339222 2.4000000000000057
      vertex 86.4 0 2.4000000000000057
      vertex 55.31084521114826 9.552786408364772 2.4000000000000057
    endloop
  endfacet
  facet normal 0 0 1
    outer loop
      vertex 55.31084521114826 9.552786408364772 2.4000000000000057
      vertex 86.4 0 2.4000000000000057
      vertex 55.349999994039536 9.800000002980232 2.4000000000000057
    endloop
  endfacet
  facet normal 0 0 1
    outer loop
      vertex 55.349999994039536 9.800000002980232 2.4000000000000057
      vertex 86.4 0 2.4000000000000057
      vertex 55.349999994039536 11.399999997019767 2.4000000000000057
    endloop
  endfacet
  facet normal 0 0 1
    outer loop
      vertex 55.349999994039536 11.399999997019767 2.4000000000000057
      vertex 86.4 0 2.4000000000000057
      vertex 74.4 17.05 2.4000000000000057
    endloop
  endfacet
  facet normal 0 0 1
    outer loop
      vertex 55.349999994039536 11.399999997019767 2.4000000000000057
      vertex 72.25233188909411 17.390157211748683 2.4000000000000057
      vertex 70.31489249656732 18.377331889094116 2.4000000000000057
    endloop
  endfacet
  facet normal 0 0 1
    outer loop
      vertex 55.349999994039536 11.399999997019767 2.4000000000000057
      vertex 74.4 17.05 2.4000000000000057
      vertex 72.25233188909411 17.390157211748683 2.4000000000000057
    endloop
  endfacet
  facet normal 0 0 1
    outer loop
      vertex 55.349999994039536 11.399999997019767 2.4000000000000057
      vertex 70.31489249656732 18.377331889094116 2.4000000000000057
      vertex 68.77733188909411 19.91489249656731 2.4000000000000057
    endloop
  endfacet
  facet normal 0 0 1
    outer loop
      vertex 74.4 17.05 2.4000000000000057
      vertex 86.4 0 2.4000000000000057
      vertex 76.5476681109059 17.390157211748683 2.4000000000000057
    endloop
  endfacet
  facet normal 0 0 1
    outer loop
      vertex 76.5476681109059 17.390157211748683 2.4000000000000057
      vertex 86.4 0 2.4000000000000057
      vertex 78.48510750343269 18.377331889094116 2.4000000000000057
    endloop
  endfacet
  facet normal 0 0 1
    outer loop
      vertex 78.48510750343269 18.377331889094116 2.4000000000000057
      vertex 86.4 0 2.4000000000000057
      vertex 80.0226681109059 19.91489249656731 2.4000000000000057
    endloop
  endfacet
  facet normal 0 0 1
    outer loop
      vertex 80.0226681109059 19.91489249656731 2.4000000000000057
      vertex 86.4 0 2.4000000000000057
      vertex 81.00984278825132 21.852331889094117 2.4000000000000057
    endloop
  endfacet
  facet normal 0 0 1
    outer loop
      vertex 81.00984278825132 21.852331889094117 2.4000000000000057
      vertex 86.4 0 2.4000000000000057
      vertex 81.35 24 2.4000000000000057
    endloop
  endfacet
  facet normal 0.4539904997395504 0.891006524188366 0
    outer loop
      vertex 72.25233188909411 17.390157211748683 2.4000000000000057
      vertex 72.25233188909411 17.390157211748683 0
      vertex 70.31489249656732 18.377331889094116 2.4000000000000057
    endloop
  endfacet
  facet normal 0.15643446504022976 0.9876883405951379 -8.104617475955559e-18
    outer loop
      vertex 72.25233188909411 17.390157211748683 2.4000000000000057
      vertex 74.4 17.05 2.4000000000000057
      vertex 74.4 17.05 0
    endloop
  endfacet
  facet normal 1 0 0
    outer loop
      vertex 86.4 0 2.4000000000000057
      vertex 86.4 0 0
      vertex 86.4 36.95 2.4000000000000057
    endloop
  endfacet
  facet normal -0.15643446504022976 0.9876883405951379 8.104617475955559e-18
    outer loop
      vertex 74.4 17.05 2.4000000000000057
      vertex 76.5476681109059 17.390157211748683 2.4000000000000057
      vertex 76.5476681109059 17.390157211748683 0
    endloop
  endfacet
  facet normal -0.4539904997395504 0.891006524188366 -2.0195973632053857e-17
    outer loop
      vertex 76.5476681109059 17.390157211748683 2.4000000000000057
      vertex 78.48510750343269 18.377331889094116 2.4000000000000057
      vertex 78.48510750343269 18.377331889094116 0
    endloop
  endfacet
  facet normal 0 0 1
    outer loop
      vertex 40.95000000298023 12.199999994039535 2.4000000000000057
      vertex 67.79015721174869 26.147668110905883 2.4000000000000057
      vertex 68.77733188909411 28.08510750343269 2.4000000000000057
    endloop
  endfacet
  facet normal 0 0 1
    outer loop
      vertex 54.79721359163523 12.160845211148262 2.4000000000000057
      vertex 67.79015721174869 21.852331889094117 2.4000000000000057
      vertex 67.45000000000002 24 2.4000000000000057
    endloop
  endfacet
  facet normal 0 0 1
    outer loop
      vertex 54.54999999701977 12.199999994039535 2.4000000000000057
      vertex 67.45000000000002 24 2.4000000000000057
      vertex 67.79015721174869 26.147668110905883 2.4000000000000057
    endloop
  endfacet
  facet normal 0 0 1
    outer loop
      vertex 68.77733188909411 28.08510750343269 2.4000000000000057
      vertex 70.31489249656732 29.622668110905884 2.4000000000000057
      vertex 0 36.95 2.4000000000000057
    endloop
  endfacet
  facet normal 0 0 1
    outer loop
      vertex 70.31489249656732 29.622668110905884 2.4000000000000057
      vertex 72.25233188909411 30.60984278825132 2.4000000000000057
      vertex 0 36.95 2.4000000000000057
    endloop
  endfacet
  facet normal 0 0 1
    outer loop
      vertex 72.25233188909411 30.60984278825132 2.4000000000000057
      vertex 74.4 30.950000000000003 2.4000000000000057
      vertex 0 36.95 2.4000000000000057
    endloop
  endfacet
  facet normal 0 0 1
    outer loop
      vertex 74.4 30.950000000000003 2.4000000000000057
      vertex 86.4 36.95 2.4000000000000057
      vertex 0 36.95 2.4000000000000057
    endloop
  endfacet
  facet normal 0 1 0
    outer loop
      vertex 0 36.95 2.4000000000000057
      vertex 86.4 36.95 2.4000000000000057
      vertex 75.36792585209557 36.95 0
    endloop
  endfacet
  facet normal 0 0 1
    outer loop
      vertex 81.35 24 2.4000000000000057
      vertex 86.4 0 2.4000000000000057
      vertex 86.4 36.95 2.4000000000000057
    endloop
  endfacet
  facet normal 0 0 1
    outer loop
      vertex 81.35 24 2.4000000000000057
      vertex 86.4 36.95 2.4000000000000057
      vertex 81.00984278825132 26.147668110905883 2.4000000000000057
    endloop
  endfacet
  facet normal 0 0 1
    outer loop
      vertex 81.00984278825132 26.147668110905883 2.4000000000000057
      vertex 86.4 36.95 2.4000000000000057
      vertex 80.0226681109059 28.08510750343269 2.4000000000000057
    endloop
  endfacet
  facet normal 0 0 1
    outer loop
      vertex 80.0226681109059 28.08510750343269 2.4000000000000057
      vertex 86.4 36.95 2.4000000000000057
      vertex 78.48510750343269 29.622668110905884 2.4000000000000057
    endloop
  endfacet
  facet normal 0 0 1
    outer loop
      vertex 74.4 30.950000000000003 2.4000000000000057
      vertex 76.5476681109059 30.60984278825132 2.4000000000000057
      vertex 86.4 36.95 2.4000000000000057
    endloop
  endfacet
  facet normal 0 0 1
    outer loop
      vertex 76.5476681109059 30.60984278825132 2.4000000000000057
      vertex 78.48510750343269 29.622668110905884 2.4000000000000057
      vertex 86.4 36.95 2.4000000000000057
    endloop
  endfacet
  facet normal 0.7071067811865442 0.7071067811865508 0
    outer loop
      vertex 70.31489249656732 18.377331889094116 2.4000000000000057
      vertex 70.31489249656732 18.377331889094116 0
      vertex 68.77733188909411 19.91489249656731 2.4000000000000057
    endloop
  endfacet
  facet normal 0.8910065241883701 0.45399049973954264 0
    outer loop
      vertex 68.77733188909411 19.91489249656731 2.4000000000000057
      vertex 68.77733188909411 19.91489249656731 0
      vertex 67.79015721174869 21.852331889094117 2.4000000000000057
    endloop
  endfacet
  facet normal 0.9876883405951382 0.15643446504022757 0
    outer loop
      vertex 67.79015721174869 21.852331889094117 2.4000000000000057
      vertex 67.79015721174869 21.852331889094117 0
      vertex 67.45000000000002 24 2.4000000000000057
    endloop
  endfacet
  facet normal 0.9876883405951382 -0.15643446504022757 0
    outer loop
      vertex 67.45000000000002 24 2.4000000000000057
      vertex 67.45000000000002 24 0
      vertex 67.79015721174869 26.147668110905883 2.4000000000000057
    endloop
  endfacet
  facet normal 0.8910065241883701 -0.45399049973954264 0
    outer loop
      vertex 67.79015721174869 26.147668110905883 2.4000000000000057
      vertex 67.79015721174869 26.147668110905883 0
      vertex 68.77733188909411 28.08510750343269 2.4000000000000057
    endloop
  endfacet
  facet normal -0.7071067811865442 0.7071067811865508 1.5511368310029925e-17
    outer loop
      vertex 78.48510750343269 18.377331889094116 2.4000000000000057
      vertex 80.0226681109059 19.91489249656731 2.4000000000000057
      vertex 80.0226681109059 19.91489249656731 0
    endloop
  endfacet
  facet normal -0.8910065241883701 0.45399049973954264 1.2637585663750753e-17
    outer loop
      vertex 80.0226681109059 19.91489249656731 2.4000000000000057
      vertex 81.00984278825132 21.852331889094117 2.4000000000000057
      vertex 81.00984278825132 21.852331889094117 0
    endloop
  endfacet
  facet normal -0.8910065241883701 -0.45399049973954264 -1.2637585663750753e-17
    outer loop
      vertex 81.00984278825132 26.147668110905883 2.4000000000000057
      vertex 80.0226681109059 28.08510750343269 2.4000000000000057
      vertex 80.0226681109059 28.08510750343269 0
    endloop
  endfacet
  facet normal -0.9876883405951382 0.15643446504022757 8.29859067219551e-18
    outer loop
      vertex 81.00984278825132 21.852331889094117 2.4000000000000057
      vertex 81.35 24 2.4000000000000057
      vertex 81.35 24 0
    endloop
  endfacet
  facet normal -0.9876883405951382 -0.15643446504022757 -8.29859067219551e-18
    outer loop
      vertex 81.35 24 2.4000000000000057
      vertex 81.00984278825132 26.147668110905883 2.4000000000000057
      vertex 81.00984278825132 26.147668110905883 0
    endloop
  endfacet
  facet normal 0.7071067811865442 -0.7071067811865508 0
    outer loop
      vertex 68.77733188909411 28.08510750343269 2.4000000000000057
      vertex 68.77733188909411 28.08510750343269 0
      vertex 70.31489249656732 29.622668110905884 2.4000000000000057
    endloop
  endfacet
  facet normal 0.45399049973955174 -0.8910065241883653 0
    outer loop
      vertex 70.31489249656732 29.622668110905884 2.4000000000000057
      vertex 70.31489249656732 29.622668110905884 0
      vertex 72.25233188909411 30.60984278825132 2.4000000000000057
    endloop
  endfacet
  facet normal 0.15643446504022976 -0.9876883405951379 0
    outer loop
      vertex 72.25233188909411 30.60984278825132 2.4000000000000057
      vertex 72.25233188909411 30.60984278825132 0
      vertex 74.4 30.950000000000003 2.4000000000000057
    endloop
  endfacet
  facet normal -0.15643446504022976 -0.9876883405951379 0
    outer loop
      vertex 74.4 30.950000000000003 2.4000000000000057
      vertex 74.4 30.950000000000003 0
      vertex 76.5476681109059 30.60984278825132 2.4000000000000057
    endloop
  endfacet
  facet normal -0.7071067811865442 -0.7071067811865508 -1.5511368310029925e-17
    outer loop
      vertex 80.0226681109059 28.08510750343269 2.4000000000000057
      vertex 78.48510750343269 29.622668110905884 2.4000000000000057
      vertex 78.48510750343269 29.622668110905884 0
    endloop
  endfacet
  facet normal -0.45399049973955174 -0.8910065241883653 0
    outer loop
      vertex 76.5476681109059 30.60984278825132 2.4000000000000057
      vertex 76.5476681109059 30.60984278825132 0
      vertex 78.48510750343269 29.622668110905884 2.4000000000000057
    endloop
  endfacet
  facet normal 0 1 0
    outer loop
      vertex 40.95000000298023 9.000000005960464 2.4000000000000057
      vertex 54.54999999701977 9.000000005960464 0
      vertex 40.95000000298023 9.000000005960464 0
    endloop
  endfacet
  facet normal 0 -1 0
    outer loop
      vertex 0 0 0
      vertex 86.4 0 0
      vertex 86.4 0 2.4000000000000057
    endloop
  endfacet
  facet normal -0.15643444971321585 0.9876883430226983 0
    outer loop
      vertex 54.54999999701977 9.000000005960464 2.4000000000000057
      vertex 54.79721359163523 9.039154788851738 0
      vertex 54.54999999701977 9.000000005960464 0
    endloop
  endfacet
  facet normal -0.45399050800249663 0.8910065199781846 0
    outer loop
      vertex 54.79721359163523 9.039154788851738 2.4000000000000057
      vertex 55.02022819966078 9.152786409854889 0
      vertex 54.79721359163523 9.039154788851738 0
    endloop
  endfacet
  facet normal -0.7071067811865476 0.7071067811865476 0
    outer loop
      vertex 55.02022819966078 9.152786409854889 2.4000000000000057
      vertex 55.19721359014511 9.329771800339222 0
      vertex 55.02022819966078 9.152786409854889 0
    endloop
  endfacet
  facet normal 0 -1 0
    outer loop
      vertex 40.95000000298023 12.199999994039535 0
      vertex 54.54999999701977 12.199999994039535 0
      vertex 54.54999999701977 12.199999994039535 2.4000000000000057
    endloop
  endfacet
  facet normal -0.8910065199781846 0.45399050800249663 0
    outer loop
      vertex 55.19721359014511 9.329771800339222 2.4000000000000057
      vertex 55.31084521114826 9.552786408364772 0
      vertex 55.19721359014511 9.329771800339222 0
    endloop
  endfacet
  facet normal -0.9876883430226983 0.15643444971321585 0
    outer loop
      vertex 55.31084521114826 9.552786408364772 2.4000000000000057
      vertex 55.349999994039536 9.800000002980232 0
      vertex 55.31084521114826 9.552786408364772 0
    endloop
  endfacet
  facet normal -1 0 0
    outer loop
      vertex 55.349999994039536 9.800000002980232 2.4000000000000057
      vertex 55.349999994039536 11.399999997019767 0
      vertex 55.349999994039536 9.800000002980232 0
    endloop
  endfacet
  facet normal -0.9876883430226983 -0.15643444971321585 0
    outer loop
      vertex 55.349999994039536 11.399999997019767 2.4000000000000057
      vertex 55.31084521114826 11.647213591635227 0
      vertex 55.349999994039536 11.399999997019767 0
    endloop
  endfacet
  facet normal -0.8910065199781846 -0.45399050800249663 0
    outer loop
      vertex 55.31084521114826 11.647213591635227 2.4000000000000057
      vertex 55.19721359014511 11.870228199660778 0
      vertex 55.31084521114826 11.647213591635227 0
    endloop
  endfacet
  facet normal -0.45399050800249663 -0.8910065199781846 0
    outer loop
      vertex 55.02022819966078 12.04721359014511 2.4000000000000057
      vertex 54.79721359163523 12.160845211148262 0
      vertex 55.02022819966078 12.04721359014511 0
    endloop
  endfacet
  facet normal -0.7071067811865476 -0.7071067811865476 0
    outer loop
      vertex 55.19721359014511 11.870228199660778 2.4000000000000057
      vertex 55.02022819966078 12.04721359014511 0
      vertex 55.19721359014511 11.870228199660778 0
    endloop
  endfacet
  facet normal -0.15643444971321585 -0.9876883430226983 0
    outer loop
      vertex 54.79721359163523 12.160845211148262 2.4000000000000057
      vertex 54.54999999701977 12.199999994039535 0
      vertex 54.79721359163523 12.160845211148262 0
    endloop
  endfacet
  facet normal 0 0 -1
    outer loop
      vertex 54.79721359163523 9.039154788851738 0
      vertex 86.4 0 0
      vertex 0 0 0
    endloop
  endfacet
  facet normal 0 0 -1
    outer loop
      vertex 37.04721359163523 8.039154788851738 0
      vertex 40.95000000298023 9.000000005960464 0
      vertex 54.54999999701977 9.000000005960464 0
    endloop
  endfacet
  facet normal 0 0 -1
    outer loop
      vertex 54.79721359163523 12.160845211148262 0
      vertex 54.54999999701977 12.199999994039535 0
      vertex 67.79015721174869 21.852331889094117 0
    endloop
  endfacet
  facet normal 0 0 -1
    outer loop
      vertex 54.79721359163523 12.160845211148262 0
      vertex 67.79015721174869 21.852331889094117 0
      vertex 55.02022819966078 12.04721359014511 0
    endloop
  endfacet
  facet normal 0 0 -1
    outer loop
      vertex 55.19721359014511 11.870228199660778 0
      vertex 55.02022819966078 12.04721359014511 0
      vertex 68.77733188909411 19.91489249656731 0
    endloop
  endfacet
  facet normal 0 0 -1
    outer loop
      vertex 55.19721359014511 11.870228199660778 0
      vertex 68.77733188909411 19.91489249656731 0
      vertex 55.31084521114826 11.647213591635227 0
    endloop
  endfacet
  facet normal 0 0 -1
    outer loop
      vertex 55.02022819966078 12.04721359014511 0
      vertex 67.79015721174869 21.852331889094117 0
      vertex 68.77733188909411 19.91489249656731 0
    endloop
  endfacet
  facet normal 0.4539904997395504 0.891006524188366 0
    outer loop
      vertex 70.31489249656732 18.377331889094116 2.4000000000000057
      vertex 72.25233188909411 17.390157211748683 0
      vertex 70.31489249656732 18.377331889094116 0
    endloop
  endfacet
  facet normal 0.15643446504022976 0.9876883405951379 0
    outer loop
      vertex 72.25233188909411 17.390157211748683 2.4000000000000057
      vertex 74.4 17.05 0
      vertex 72.25233188909411 17.390157211748683 0
    endloop
  endfacet
  facet normal -0.15643446504022976 0.9876883405951379 0
    outer loop
      vertex 74.4 17.05 2.4000000000000057
      vertex 76.5476681109059 17.390157211748683 0
      vertex 74.4 17.05 0
    endloop
  endfacet
  facet normal -0.4539904997395504 0.891006524188366 0
    outer loop
      vertex 76.5476681109059 17.390157211748683 2.4000000000000057
      vertex 78.48510750343269 18.377331889094116 0
      vertex 76.5476681109059 17.390157211748683 0
    endloop
  endfacet
  facet normal 0 0 -1
    outer loop
      vertex 54.79721359163523 9.039154788851738 0
      vertex 55.02022819966078 9.152786409854889 0
      vertex 86.4 0 0
    endloop
  endfacet
  facet normal 0 0 -1
    outer loop
      vertex 55.02022819966078 9.152786409854889 0
      vertex 55.19721359014511 9.329771800339222 0
      vertex 86.4 0 0
    endloop
  endfacet
  facet normal 0 0 -1
    outer loop
      vertex 55.19721359014511 9.329771800339222 0
      vertex 55.31084521114826 9.552786408364772 0
      vertex 86.4 0 0
    endloop
  endfacet
  facet normal 0 0 -1
    outer loop
      vertex 55.31084521114826 9.552786408364772 0
      vertex 55.349999994039536 9.800000002980232 0
      vertex 86.4 0 0
    endloop
  endfacet
  facet normal 0 0 -1
    outer loop
      vertex 55.349999994039536 9.800000002980232 0
      vertex 55.349999994039536 11.399999997019767 0
      vertex 86.4 0 0
    endloop
  endfacet
  facet normal 0 0 -1
    outer loop
      vertex 55.349999994039536 11.399999997019767 0
      vertex 55.31084521114826 11.647213591635227 0
      vertex 86.4 0 0
    endloop
  endfacet
  facet normal 0 0 -1
    outer loop
      vertex 55.31084521114826 11.647213591635227 0
      vertex 70.31489249656732 18.377331889094116 0
      vertex 86.4 0 0
    endloop
  endfacet
  facet normal 0 0 -1
    outer loop
      vertex 55.31084521114826 11.647213591635227 0
      vertex 68.77733188909411 19.91489249656731 0
      vertex 70.31489249656732 18.377331889094116 0
    endloop
  endfacet
  facet normal 0 0 -1
    outer loop
      vertex 72.25233188909411 17.390157211748683 0
      vertex 74.4 17.05 0
      vertex 86.4 0 0
    endloop
  endfacet
  facet normal 0 0 -1
    outer loop
      vertex 74.4 17.05 0
      vertex 76.5476681109059 17.390157211748683 0
      vertex 86.4 0 0
    endloop
  endfacet
  facet normal 0 0 -1
    outer loop
      vertex 72.25233188909411 17.390157211748683 0
      vertex 86.4 0 0
      vertex 70.31489249656732 18.377331889094116 0
    endloop
  endfacet
  facet normal 0 0 -1
    outer loop
      vertex 76.5476681109059 17.390157211748683 0
      vertex 78.48510750343269 18.377331889094116 0
      vertex 86.4 0 0
    endloop
  endfacet
  facet normal 0 0 -1
    outer loop
      vertex 78.48510750343269 18.377331889094116 0
      vertex 80.0226681109059 19.91489249656731 0
      vertex 86.4 0 0
    endloop
  endfacet
  facet normal 0 0 -1
    outer loop
      vertex 80.0226681109059 19.91489249656731 0
      vertex 81.00984278825132 21.852331889094117 0
      vertex 86.4 0 0
    endloop
  endfacet
  facet normal 0 0 -1
    outer loop
      vertex 81.00984278825132 21.852331889094117 0
      vertex 81.35 24 0
      vertex 86.4 0 0
    endloop
  endfacet
  facet normal 0 0 -1
    outer loop
      vertex 81.35 24 0
      vertex 81.00984278825132 26.147668110905883 0
      vertex 86.4 0 0
    endloop
  endfacet
  facet normal 0 0 -1
    outer loop
      vertex 28.700000002980232 12.199999994039535 0
      vertex 75.36792585209557 36.95 0
      vertex 36.79999999701977 12.199999994039535 0
    endloop
  endfacet
  facet normal 0 0 -1
    outer loop
      vertex 37.04721359163523 12.160845211148262 0
      vertex 36.79999999701977 12.199999994039535 0
      vertex 75.36792585209557 36.95 0
    endloop
  endfacet
  facet normal 0 0 -1
    outer loop
      vertex 37.27022819966078 12.04721359014511 0
      vertex 37.04721359163523 12.160845211148262 0
      vertex 75.36792585209557 36.95 0
    endloop
  endfacet
  facet normal 0 0 -1
    outer loop
      vertex 37.599999994039536 11.399999997019767 0
      vertex 37.56084521114826 11.647213591635227 0
      vertex 75.36792585209557 36.95 0
    endloop
  endfacet
  facet normal 0 0 -1
    outer loop
      vertex 37.56084521114826 11.647213591635227 0
      vertex 37.44721359014511 11.870228199660778 0
      vertex 75.36792585209557 36.95 0
    endloop
  endfacet
  facet normal 0 0 -1
    outer loop
      vertex 37.599999994039536 11.399999997019767 0
      vertex 75.36792585209557 36.95 0
      vertex 40.70278640836477 12.160845211148262 0
    endloop
  endfacet
  facet normal 0 0 -1
    outer loop
      vertex 37.44721359014511 11.870228199660778 0
      vertex 37.27022819966078 12.04721359014511 0
      vertex 75.36792585209557 36.95 0
    endloop
  endfacet
  facet normal 0 0 -1
    outer loop
      vertex 40.70278640836477 12.160845211148262 0
      vertex 75.36792585209557 36.95 0
      vertex 40.95000000298023 12.199999994039535 0
    endloop
  endfacet
  facet normal 0 0 -1
    outer loop
      vertex 40.95000000298023 12.199999994039535 0
      vertex 75.36792585209557 36.95 0
      vertex 54.54999999701977 12.199999994039535 0
    endloop
  endfacet
  facet normal 0 0 -1
    outer loop
      vertex 54.54999999701977 12.199999994039535 0
      vertex 67.45000000000002 24 0
      vertex 67.79015721174869 21.852331889094117 0
    endloop
  endfacet
  facet normal 0 0 -1
    outer loop
      vertex 54.54999999701977 12.199999994039535 0
      vertex 67.79015721174869 26.147668110905883 0
      vertex 67.45000000000002 24 0
    endloop
  endfacet
  facet normal 0 0 -1
    outer loop
      vertex 54.54999999701977 12.199999994039535 0
      vertex 68.77733188909411 28.08510750343269 0
      vertex 67.79015721174869 26.147668110905883 0
    endloop
  endfacet
  facet normal 0.7071067811865442 0.7071067811865508 -1.5511368310029925e-17
    outer loop
      vertex 70.31489249656732 18.377331889094116 0
      vertex 68.77733188909411 19.91489249656731 0
      vertex 68.77733188909411 19.91489249656731 2.4000000000000057
    endloop
  endfacet
  facet normal 0.8910065241883701 0.45399049973954264 -1.2637585663750753e-17
    outer loop
      vertex 68.77733188909411 19.91489249656731 0
      vertex 67.79015721174869 21.852331889094117 0
      vertex 67.79015721174869 21.852331889094117 2.4000000000000057
    endloop
  endfacet
  facet normal 0.9876883405951382 0.15643446504022757 -8.29859067219551e-18
    outer loop
      vertex 67.79015721174869 21.852331889094117 0
      vertex 67.45000000000002 24 0
      vertex 67.45000000000002 24 2.4000000000000057
    endloop
  endfacet
  facet normal 0.9876883405951382 -0.15643446504022757 8.29859067219551e-18
    outer loop
      vertex 67.45000000000002 24 0
      vertex 67.79015721174869 26.147668110905883 0
      vertex 67.79015721174869 26.147668110905883 2.4000000000000057
    endloop
  endfacet
  facet normal 0.8910065241883701 -0.45399049973954264 1.2637585663750753e-17
    outer loop
      vertex 67.79015721174869 26.147668110905883 0
      vertex 68.77733188909411 28.08510750343269 0
      vertex 68.77733188909411 28.08510750343269 2.4000000000000057
    endloop
  endfacet
  facet normal -0.7071067811865442 0.7071067811865508 0
    outer loop
      vertex 78.48510750343269 18.377331889094116 2.4000000000000057
      vertex 80.0226681109059 19.91489249656731 0
      vertex 78.48510750343269 18.377331889094116 0
    endloop
  endfacet
  facet normal -0.8910065241883701 0.45399049973954264 0
    outer loop
      vertex 80.0226681109059 19.91489249656731 2.4000000000000057
      vertex 81.00984278825132 21.852331889094117 0
      vertex 80.0226681109059 19.91489249656731 0
    endloop
  endfacet
  facet normal -0.9876883405951382 0.15643446504022757 0
    outer loop
      vertex 81.00984278825132 21.852331889094117 2.4000000000000057
      vertex 81.35 24 0
      vertex 81.00984278825132 21.852331889094117 0
    endloop
  endfacet
  facet normal -0.8910065241883701 -0.45399049973954264 0
    outer loop
      vertex 81.00984278825132 26.147668110905883 2.4000000000000057
      vertex 80.0226681109059 28.08510750343269 0
      vertex 81.00984278825132 26.147668110905883 0
    endloop
  endfacet
  facet normal -0.9876883405951382 -0.15643446504022757 0
    outer loop
      vertex 81.35 24 2.4000000000000057
      vertex 81.00984278825132 26.147668110905883 0
      vertex 81.35 24 0
    endloop
  endfacet
  facet normal 1 0 0
    outer loop
      vertex 86.4 36.95 0
      vertex 86.4 36.95 2.4000000000000057
      vertex 86.4 0 0
    endloop
  endfacet
  facet normal 0.7071067811865442 -0.7071067811865508 1.5511368310029925e-17
    outer loop
      vertex 68.77733188909411 28.08510750343269 0
      vertex 70.31489249656732 29.622668110905884 0
      vertex 70.31489249656732 29.622668110905884 2.4000000000000057
    endloop
  endfacet
  facet normal 0.45399049973955174 -0.8910065241883653 -2.0237233506591038e-17
    outer loop
      vertex 70.31489249656732 29.622668110905884 0
      vertex 72.25233188909411 30.60984278825132 0
      vertex 72.25233188909411 30.60984278825132 2.4000000000000057
    endloop
  endfacet
  facet normal 0.15643446504022976 -0.9876883405951379 8.104617475955559e-18
    outer loop
      vertex 72.25233188909411 30.60984278825132 0
      vertex 74.4 30.950000000000003 0
      vertex 74.4 30.950000000000003 2.4000000000000057
    endloop
  endfacet
  facet normal -0.45399049973955174 -0.8910065241883653 2.0237233506591038e-17
    outer loop
      vertex 76.5476681109059 30.60984278825132 0
      vertex 78.48510750343269 29.622668110905884 0
      vertex 78.48510750343269 29.622668110905884 2.4000000000000057
    endloop
  endfacet
  facet normal -0.7071067811865442 -0.7071067811865508 0
    outer loop
      vertex 80.0226681109059 28.08510750343269 2.4000000000000057
      vertex 78.48510750343269 29.622668110905884 0
      vertex 80.0226681109059 28.08510750343269 0
    endloop
  endfacet
  facet normal -0.15643446504022976 -0.9876883405951379 -8.104617475955559e-18
    outer loop
      vertex 74.4 30.950000000000003 0
      vertex 76.5476681109059 30.60984278825132 0
      vertex 76.5476681109059 30.60984278825132 2.4000000000000057
    endloop
  endfacet
  facet normal 0 1 0
    outer loop
      vertex 75.36792585209557 36.95 0
      vertex 86.4 36.95 2.4000000000000057
      vertex 86.4 36.95 0
    endloop
  endfacet
  facet normal 0 0 -1
    outer loop
      vertex 54.54999999701977 12.199999994039535 0
      vertex 75.36792585209557 36.95 0
      vertex 68.77733188909411 28.08510750343269 0
    endloop
  endfacet
  facet normal 0 0 -1
    outer loop
      vertex 81.00984278825132 26.147668110905883 0
      vertex 86.4 36.95 0
      vertex 86.4 0 0
    endloop
  endfacet
  facet normal 0 0 -1
    outer loop
      vertex 68.77733188909411 28.08510750343269 0
      vertex 75.36792585209557 36.95 0
      vertex 70.31489249656732 29.622668110905884 0
    endloop
  endfacet
  facet normal 0 0 -1
    outer loop
      vertex 70.31489249656732 29.622668110905884 0
      vertex 75.36792585209557 36.95 0
      vertex 72.25233188909411 30.60984278825132 0
    endloop
  endfacet
  facet normal 0 0 -1
    outer loop
      vertex 72.25233188909411 30.60984278825132 0
      vertex 75.36792585209557 36.95 0
      vertex 74.4 30.950000000000003 0
    endloop
  endfacet
  facet normal 0 0 -1
    outer loop
      vertex 81.00984278825132 26.147668110905883 0
      vertex 80.0226681109059 28.08510750343269 0
      vertex 86.4 36.95 0
    endloop
  endfacet
  facet normal 0 0 -1
    outer loop
      vertex 80.0226681109059 28.08510750343269 0
      vertex 78.48510750343269 29.622668110905884 0
      vertex 86.4 36.95 0
    endloop
  endfacet
  facet normal 0 0 -1
    outer loop
      vertex 74.4 30.950000000000003 0
      vertex 86.4 36.95 0
      vertex 76.5476681109059 30.60984278825132 0
    endloop
  endfacet
  facet normal 0 0 -1
    outer loop
      vertex 76.5476681109059 30.60984278825132 0
      vertex 86.4 36.95 0
      vertex 78.48510750343269 29.622668110905884 0
    endloop
  endfacet
  facet normal 0 0 -1
    outer loop
      vertex 74.4 30.950000000000003 0
      vertex 75.36792585209557 36.95 0
      vertex 86.4 36.95 0
    endloop
  endfacet
endsolid OpenSCAD_Model
